<?xml version="1.0" encoding="utf-8"?>
<!-- Generator: Adobe Illustrator 20.1.0, SVG Export Plug-In . SVG Version: 6.00 Build 0)  -->
<svg version="1.1" id="Layer_1" xmlns="http://www.w3.org/2000/svg" xmlns:xlink="http://www.w3.org/1999/xlink" x="0px" y="0px"
	 viewBox="0 0 1024 1024" style="enable-background:new 0 0 1024 1024;" xml:space="preserve">
<style type="text/css">
	.st0{fill:#424242;stroke:#FFFFFF;stroke-miterlimit:10;}
	.st1{fill:#424242;stroke:#FFFFFF;}
</style>
<path class="AO" class="st0" d="M506.5,589.5l3,8.9l3.4,7.2l2.5,3.8l4.6,6.3l7.6-0.8l3.8-1.7l6.3,1.7l1.7-3l3-6.8l7.2-0.4l0.8-2.1h5.9
	l-0.8,4.2h14.4v7.6l2.5,4.6l-1.7,7.2l0.8,7.2l3.8,4.2l-0.8,14.4l3-1.3l5.1,0.4l7.2-1.7l5.5,0.8l1.3,3.8l-1.3,5.9l2.1,5.5l-1.7,4.6
	l0.8,4.2h-24.9l-0.4,38.9l8,10.1l7.6,7.6l-22,5.1l-28.7-1.7l-8-5.9l-48.2,0.4l-1.3,0.4l-7.2-5.5l-7.6-0.4l-7.2,2.1l-5.9,2.5
	l-1.3-7.6l1.7-10.6l4.2-11l0.4-5.1l3.8-11l3-5.1l6.8-8l3.8-5.5l1.3-8.9l-0.8-6.8l-3.4-4.2l-3.4-7.2l-3-7.2l0.4-2.5l3.8-4.6
	l-3.8-11.4l-2.5-8l-5.9-7.6l1.3-2.1l5.1-1.7h3.4l4.2-1.3L506.5,589.5z M460.5,587l-3,1.3l-3.4-8.9l4.6-5.1l3.8-2.1l4.2,4.2l-4.2,2.5
	l-2.1,3V587z"/>
<path class="BF" class="st0" d="M280.5,407l-8-3l-5.5,0.4l-4.2,3l-5.5-2.5l-2.1-3.8l-5.5-2.5l-0.8-6.8l3.4-5.1l-0.4-4.2l9.3-10.1
	l1.7-8.5l3.4-3l5.9,1.7l5.1-2.5l1.7-3l9.3-5.5l2.1-3.8l11-5.1l6.3-1.7l3,2.1h7.6l-0.8,5.9l1.7,5.5l6.8,8l0.4,5.9l13.5,2.5l-0.4,8.5
	l-2.5,3.8l-5.9,1.3l-2.5,5.1l-4.2,1.3l-10.6-0.4l-5.5-0.8l-3.8,2.1l-5.1-0.8l-20.7,0.4l-0.4,6.8L280.5,407z"/>
<path class="BI" class="st0" d="M659.9,573.1l-0.8-14.4l-3-5.5l7.2,0.8l3.8-6.8l6.3,0.8l0.8,4.6l2.5,2.5v3.8l-3,2.5l-4.6,6.3l-4.2,4.2
	L659.9,573.1z"/>
<path class="BJ" class="st0" d="M345.6,447.1l-9.7,1.3l-3-8l0.4-27.5l-2.5-2.5l-0.4-5.9l-4.2-4.2l-3.4-3.4l1.7-6.3l4.2-1.3l2.5-5.1
	l5.9-1.3l2.5-3.8l3.8-3.4h4.2l8.9,6.8l-0.4,4.2l2.5,7.2l-2.1,4.6l1.3,3.4l-5.9,7.6l-3.8,3.8l-2.1,7.6l0.4,7.6L345.6,447.1z"/>
<path class="BW" class="st0" d="M616.8,742.1l2.5,2.1l3.8,7.2l13.5,13.5l5.1,1.3v4.2l3.4,8l9.3,2.1l7.6,5.9l-16.9,9.3l-10.6,9.7
	l-3.8,8.5l-3.4,4.6l-6.3,0.8l-2.1,6.3l-1.3,4.2l-7.6,3l-9.7-0.8l-5.5-3.8l-5.1-1.7l-5.9,3l-3,6.3l-5.5,3.8l-5.9,5.9l-8.5,1.3
	l-2.5-4.6l1.3-8l-7.2-12.3l-3.4-2.1v-37.6l11.8-0.4l0.4-44.8l8.9-0.4l18.2-4.2l4.6,5.1l7.6-5.1h3.8l6.8-3l2.1,0.8L616.8,742.1z"/>
<path class="CD" class="st1" d="M677.7,479.3l-0.8,13.9l4.6,1.7l-3.8,4.2l-4.6,3l-4.6,6.3l-2.5,5.5l-0.8,9.3l-2.5,4.6v8.9l-3.4,3.4
	l-0.4,7.2l-1.7,0.8l-1.3,6.3l3,5.5l0.8,14.4l2.1,11l-1.3,6.3l2.5,6.8l6.8,6.8l6.3,15.2l-4.6-1.3l-16.1,2.1l-3.4,1.3l-2.5,6.3
	l2.5,5.1l-2.1,14.4l-1.7,12.3l3.4,2.1l8.5,4.6l3.4-2.1l0.8,13.1h-9.3l-5.1-6.8l-4.2-5.1l-9.3-1.7l-2.5-6.3l-7.2,3.8l-9.3-1.7
	l-3.8-5.5l-7.6-1.3l-5.5,0.4l-0.8-3.8l-4.2-0.4l-5.5-0.8l-7.2,1.7l-5.1-0.4l-3,1.3l0.8-14.4l-3.8-4.2l-0.8-7.2l1.7-7.2l-2.5-4.6
	v-7.6h-14.4l0.8-4.2h-5.9l-0.8,2.1l-7.2,0.4l-3,7.2l-1.7,3l-6.3-1.7l-3.8,1.7l-8,0.8l-4.6-6.3l-2.5-3.8l-3.4-7.2l-3-8.9H471
	l-4.2,1.3h-3.4l-5.1,1.7l-1.7-3.8l3-1.3l0.4-5.1l2.1-3l4.2-2.5l3,1.3l4.2-4.6h6.3l0.8,3.4l4.2,2.1l6.8-7.6l6.8-5.9l3-3.8l-0.4-9.7
	l5.1-11.4l5.5-5.9l8-5.5l1.3-3.8l0.4-4.2l2.1-4.2l-0.4-6.8l1.3-10.6l2.1-7.2l3.4-6.3l0.8-7.2l0.8-8l4.6-5.9l6.3-3.8l9.7,3.8l7.6,4.2
	l8.5,1.3l8.9,2.1l3.4-7.2l1.7-0.8l5.5,1.3l13.1-5.9l4.6,2.5l3.8-0.4l1.7-3l4.2-0.8l8.9,1.3l7.6,0.4l3.8-1.3l7.2,9.7l5.5,1.3l3.4-2.1
	l5.5,0.8l6.8-2.5l3,5.1L677.7,479.3z"/>
<path class="CF" class="st0" d="M494.3,433.6l9.7-0.8l2.1-3l2.1,0.4l3,2.5l14.8-4.6l5.1-4.6l6.3-4.2l-1.3-4.2l3.4-1.3l11.4,0.8l11-5.5
	l8.5-13.1l5.9-4.6l7.6-2.1l1.3,5.1l6.8,7.6v4.6l-2.1,5.1l0.8,3.8l4.2,3.4l8.9,5.1l6.3,4.6v3.8l8,6.3l5.1,5.1l3,7.2l8.9,4.6l2.1,3.8
	l-3.8,1.3l-7.6-0.4l-8.9-1.3l-4.2,0.8l-1.7,3l-3.8,0.4l-4.6-2.5l-13.1,5.9l-5.5-1.3l-1.7,0.8l-3.4,7.2l-8.9-2.1l-8.5-1.3l-7.6-4.2
	l-9.7-3.8l-6.3,3.8l-4.6,5.9l-0.8,8l-7.6-0.8l-8-2.1l-7.2,6.3l-6.3,11l-1.3-3.4l-0.4-5.5l-5.5-3.8l-4.2-5.9l-0.8-4.2l-5.5-6.3
	l0.8-3.4l-1.3-5.1l0.8-9.3l3-2.1L494.3,433.6z"/>
<path class="CG" class="st0" d="M467.2,576.4l-4.2-4.2l-3.8,2.1l-4.6,5.1l-9.7-12.3l8.9-6.3l-4.2-8l4.2-3l8-1.3l0.8-5.1l6.3,5.5
	l10.6,0.4l3.8-5.5l1.7-8l-1.3-9.3l-5.5-6.8l5.1-13.5l-3-2.1l-8.9,0.8l-3.4-5.9l0.8-5.1l14.8,0.4l9.7,3l9.3,3l0.8-6.3l6.3-11l7.2-6.3
	l8,2.1l7.6,0.8l-0.8,7.2l-3.4,6.3l-2.1,7.2l-1.3,10.6l0.4,6.8l-2.1,4.2l-0.4,4.2l-1.3,3.8l-8,5.5l-5.5,5.9l-5.1,11.4l0.4,9.7l-3,3.8
	l-6.8,5.9l-6.8,7.6l-4.2-2.1l-0.8-3.4h-6.3l-4.2,4.6L467.2,576.4z"/>
<path class="CI" class="st0" d="M280.1,461.9h-5.5l-8.5-2.1h-7.6l-13.9,2.1l-8,3.4l-11.8,4.2l-2.1-0.4l0.8-9.7l1.3-1.7l-0.4-4.6
	l-5.1-5.1l-3.8-0.8l-3.4-3.4l2.5-5.1l-1.3-5.9l0.4-3.4h2.1l0.8-5.1l-0.8-2.1l1.3-1.7l4.2-1.3l-3-9.7l-2.5-4.6l0.8-4.2l2.5-0.8
	l1.7-1.3l3.4,1.7h9.3l2.1-3.4l2.1,0.4l3.4-1.3l1.7,5.1l2.5-1.7l5.1-1.7l5.5,2.5l2.1,3.8l5.5,2.5l4.2-3l5.5-0.4l8,3l3,16.9l-5.1,10.1
	l-3,13.5l5.1,10.1L280.1,461.9z"/>
<path class="CM" class="st0" d="M468.1,494l-1.7-0.4l-7.2,1.7l-7.2-1.7l-5.5,0.8l-19.4-0.4l1.7-9.3l-4.6-7.6l-5.5-2.1l-2.5-5.1l-3-1.7
	v-3.4l3-8.5l5.5-11.4h3.4l7.2-6.8h4.6l6.8,4.6l8-3.8l1.3-5.1l2.5-4.6l1.7-5.9l6.3-5.1l2.5-8.5l2.5-2.5l1.7-6.3l3-7.6l10.1-9.3
	l0.8-3.8l1.3-2.1l-4.6-4.6l0.4-3.8l3.4-0.8l4.6,7.6l0.8,8l-0.4,8l6.3,11h-6.8l-3.4,0.8l-5.5-1.3l-2.5,5.5l7.2,6.8l5.1,2.1l1.7,5.1
	l3.8,8l-1.7,3.4l-5.9,11.8l-2.5,1.3l-0.8,9.3l1.3,5.1l-0.8,3.4l5.5,6.3l0.8,4.2l4.2,5.9l5.5,3.8l0.4,5.5l1.3,3.4l-0.8,6.3l-9.3-3
	l-9.7-3L468.1,494z"/>
<path class="DJ" class="st0" d="M821.8,370.2l3,3.8l-0.4,5.1l-6.8,3l5.1,3.4l-4.2,6.3l-2.5-2.1l-3,0.8h-6.8v-3.8l-0.8-3.4l3.8-5.5
	l4.2-5.5l5.1,0.8L821.8,370.2z"/>
<path class="DZ" class="st0" d="M455.4,237.6l-40.6,24.5L380.6,287l-16.9,5.5l-13.1,1.3v-8l-5.5-2.1l-7.6-3.8l-3-5.9l-40.1-27.5
	l-40.1-28.3l-44.8-31.7l0.4-2.5v-0.8v-15.6l19-10.1l11.8-2.1l9.7-3.8l4.6-6.8l13.9-5.5l0.4-10.1l6.8-1.3l5.5-5.1l15.6-2.5l2.1-5.5
	l-3-3l-4.2-14.8l-0.8-8.5l-4.6-9.3l11.4-8l12.7-2.5l7.6-5.9l11.4-4.2l20.3-2.5l19.4-1.3l5.9,2.1l11-5.9h12.7l4.6,3.4l8-0.8l-2.5,7.6
	l1.7,13.9l-3,11.8l-7.2,8l0.8,10.6l9.7,8.5v3.4l7.2,5.5l5.1,24.9l3.8,11.8l0.4,6.3l-2.1,11l0.8,5.9l-1.7,7.2l0.8,8.5l-4.6,5.5
	l7.2,9.7l0.4,5.5l4.2,7.2l5.5-2.5l9.3,5.9L455.4,237.6z"/>
<path class="EG" class="st0" d="M725.8,158.5l-3.4,5.5l-2.5,10.1l-3.4,6.8l-3,2.5l-3.8-4.2l-5.5-5.9l-8.5-19.4l-1.3,1.3l5.1,14.4
	l7.2,13.5l8.9,20.7l4.2,7.2l3.8,7.2l10.6,14.4l-2.5,2.1l0.4,8.5l13.9,11.4l2.1,2.5h-46.9h-46.1h-47.7v-47.3v-47.3l-3.4-11l3-8.5
	l-1.7-5.9l4.2-6.8h15.6l11.4,3.8l11.8,4.2l5.5,2.1l9.3-4.2l5.1-3.8l10.6-1.3l8.5,1.7l3.4,6.8l3-4.6l9.3,3.4l9.3,0.8l5.9-3.4
	L725.8,158.5z"/>
<path class="EH" class="st0" d="M159.6,182.6h15.2H212l0,0l0,0h-37.2H159.6L159.6,182.6L159.6,182.6l-8,13.9l-8,4.6l-4.2,8l-0.4,6.8
	l-3.4,7.6l-3.8,2.1l-6.8,8l-4.2,8.9l0.8,4.2l-3.8,6.8l-4.6,3.4l-0.4,5.9l-0.4,5.5l2.5-4.2h46.5l-2.1-18.2l3-6.8l11-1.3l-0.4-33.4
	l38.9,0.8v-19l0.4-2.5v-0.8L159.6,182.6z"/>
<path class="ER" class="st0" d="M813.7,372.4l-4.2-3.8l-4.6-7.2l-5.1-3.8l-3-4.2l-10.1-4.6h-8l-3-2.5l-6.8,3l-7.2-5.5l-3.8,8.9L744,350
	l-1.3-4.6l5.1-17.7l1.3-8l3.8-3.8l8.9-2.1l5.9-7.2l6.8,14.4l3.4,11.4l6.3,5.9l16.1,11.4l6.8,6.8l6.3,7.2l3.8,4.2l5.9,3.8l-3.4,3
	L813.7,372.4z"/>
<path class="ET" class="st0" d="M760.9,343.2l7.2,5.5l6.8-3l3,2.5h8l10.1,4.6l3,4.2l5.1,3.8l4.6,7.2l4.2,3.8l-4.2,5.5l-3.8,5.5l0.8,3.4
	v3.8h6.8l3-0.8l2.5,2.1l-2.5,4.2l4.2,6.8l4.2,5.9l4.6,4.2l38.9,13.9h10.1l-33.4,35.5l-15.6,0.4l-10.6,8.5h-7.6l-3.4,3.8h-8l-4.6-3.8
	l-11,5.1l-3.4,5.1l-8-0.8l-2.5-1.3l-3,0.4h-3.8l-14.8-10.1h-8.5l-4.2-3.8v-6.8l-6.3-2.1l-6.8-12.7l-5.5-3l-2.1-4.6l-5.9-5.9
	l-7.2-0.8l4.2-6.8l6.3-0.4l1.7-3.8v-10.6l3.4-12.7l5.5-3.4l1.3-5.1l5.1-9.3l7.2-5.9l4.6-11.8l2.1-10.6l13.9,2.5L760.9,343.2z"/>
<path class="GA" class="st0" d="M444.8,567.1l-12.3-11.8l-8-9.7l-7.2-12.3l0.4-3.8l2.5-3.8l3-8.5l2.5-8.9l4.2-0.8h17.3v-14.4l5.5-0.8
	l7.2,1.7l7.2-1.7l1.7,0.4l-0.8,5.1l3.4,5.9l8.9-0.8l3,2.1l-5.1,13.5l5.5,6.8l1.3,9.3l-1.7,8l-3.8,5.5l-10.6-0.4l-6.3-5.5l-0.8,5.5
	l-8,1.3l-4.2,3l4.2,8L444.8,567.1z"/>
<path class="GH" class="st0" d="M326.5,450.9l-18.6,6.8l-6.8,4.2l-10.6,3.4l-10.6-3.4l0.4-4.6l-5.1-10.1l3-13.5l5.1-10.1l-3-16.9
	l-1.7-8.9l0.4-6.8l20.7-0.4l5.1,0.8l3.8-2.1l5.5,0.8l-0.8,3.8l5.1,6.3v8.5l1.3,9.3l3,4.2l-2.5,10.6l0.8,5.9l3.4,7.6L326.5,450.9z"/>
<path class="GM" class="st0" d="M115.3,365.2l1.7-5.5l12.7-0.4l2.5-3h3.8l4.6,3h3.8l3.8-2.1l2.5,3.4l-5.1,2.5h-5.1l-5.1-2.5l-4.2,3
	h-2.1l-3,1.7H115.3z"/>
<path class="GN" class="st0" d="M214.6,430.2l-3.4-0.4l-2.5,4.6h-3.4l-2.1-2.5l0.8-4.6l-5.1-7.2l-3,1.3l-2.5,0.4l-3.4,0.8v-4.2l-1.7-3
	l0.4-3.4l-2.5-5.1l-3.4-4.2h-9.3l-2.5,2.1l-3.4,0.4l-2.1,2.5l-1.3,3.4l-6.3,5.1l-5.1-7.2l-4.6-4.6l-3-1.7l-3-2.5l-1.3-5.1l-1.7-2.5
	l-3.4-2.1l5.1-5.9h3.8l3-2.1h2.5l1.7-1.7l-0.8-3.8l1.3-1.3v-4.2h5.9l8.5,3l2.5-0.4l0.8-1.3l6.3,0.8l1.7-0.8l0.8,4.2h1.7l3-1.7
	l2.1,0.4l3.4,3l5.1,0.8l3.4-2.5l3.8-1.7l3-1.7l2.5,0.4l2.5,2.5l1.3,3.4l4.6,5.1l-2.5,3l-0.4,3.8l2.5-1.3l1.7,1.3l-0.4,3.4l3.8,3.4
	l-2.5,0.8l-0.8,4.2l2.5,5.1l3,9.7l-4.2,1.3l-1.3,1.7l0.8,2.1l-0.8,5.1h-2.1L214.6,430.2L214.6,430.2z"/>
<path class="GQ" class="st0" d="M425.8,508.8l-2.1-1.7l4.2-13.1l19.4,0.4v14.4h-17.3H425.8z"/>
<path class="GW" class="st0" d="M135.1,390.1l-6.3-5.1l-5.1-0.8l-2.5-3.4v-1.7l-3.4-2.5L117,374l6.3-2.1l3.8,0.4l3.4-1.3l22,0.4v4.2
	l-1.3,1.3l0.8,3.8l-1.7,1.7h-2.5l-3,2.1H141L135.1,390.1z"/>
<path class="KE" class="st0" d="M797.7,530.8l7.2,9.7l-8.5,4.6l-3,5.1l-4.6,0.8l-1.7,8.5l-3.8,4.6l-2.1,8l-4.6,3.8l-16.9-11.8l-0.8-7.2
	l-43.1-24.1l-2.1-1.3V519l3.4-4.6l5.9-7.6l4.2-8.5l-5.1-13.5l-1.3-5.9l-5.5-8l7.2-7.2l8-7.6l6.3,2.1v6.8l4.2,3.8h8.5l14.8,10.1h3.8
	l3-0.4l2.5,1.3l8,0.8l3.4-5.1l11-5.1l4.6,3.8h8l-10.6,13.5L797.7,530.8z"/>
<path class="LR" class="st0" d="M223,469.1h-3l-12.3-5.5l-10.6-8.9l-10.1-6.3l-8-7.6l3-3.8l0.4-3.4l5.5-6.3l5.5-5.5l2.5-0.4l3-1.3
	l5.1,7.2l-0.8,4.6l2.1,2.5h3.4l2.5-4.6l3.4,0.4l-0.4,3.4l1.3,5.9l-2.5,5.1l3.4,3.4l3.8,0.8l5.1,5.1l0.4,4.6l-1.3,1.7L223,469.1z"/>
<path class="LS" class="st0" d="M655.7,875.6l4.2,4.2l-3.8,6.8l-2.1,4.2l-6.8,2.1l-2.1,4.2l-4.2,1.3l-8.9-10.6l6.3-8.5l6.3-5.1l5.5-2.5
	L655.7,875.6z"/>
<path class="LY" class="st0" d="M489.2,245.2l-8.5,4.6l-6.8-7.2l-18.6-5.5l-5.1-8l-9.3-5.9l-5.5,2.5l-4.2-7.2l-0.4-5.5l-7.2-9.7
	l4.6-5.5l-0.8-8.5l1.7-7.2l-0.8-5.9l2.1-11l-0.4-6.3l-3.8-11.8l5.9-3.4l0.8-5.9l-1.3-5.9l8-5.5l3.8-4.6l5.9-3.8l0.8-11l13.9,4.6
	l5.1-1.3l9.7,2.5l15.6,6.3l5.5,12.3l10.6,2.5l16.9,5.9l12.7,6.8l5.9-3.4l5.5-6.3l-2.5-10.6l3.8-6.8l8.5-6.8l8-1.7l16.1,3l4.2,6.3
	h4.2l3.8,2.5l11.8,1.7l3,4.6l-4.2,6.8l1.7,5.9l-3,8.5l3.4,11v47.3v47.3v25.4H597v5.1l-47.3-24.1L502.3,238L489.2,245.2z"/>
<path class="MA" class="st0" d="M212,182.6v-16.1l19-10.1l11.8-2.1l9.7-3.8l4.6-6.8l13.9-5.5l0.4-10.1l6.8-1.3l5.5-5.1l15.6-2.5
	l2.1-5.5l-3-3L294.4,96l-0.8-8.5l-5.1-8.9h-5.1l-12.3-3.4l-11.4,0.8l-7.2-6.3h-8.9l-3.8,8.9l-8,14.8l-8.9,5.9l-11.8,6.3l-7.6,9.3
	l-1.7,7.2l-4.6,11.8l3,16.9l-9.7,11.4l-5.9,3.8l-9.3,9.3l-11,1.7l-5.5,4.6H174L212,182.6L212,182.6L212,182.6l-37.2-0.4h-15.2
	L212,182.6z"/>
<path class="MG" class="st0" d="M898.7,667.7l3,5.1l3,8l2.1,14.8l3,5.9l-1.3,5.9l-2.1,3.8L902,704l-2.1,3.8l2.1,8.9l-0.8,5.1l-3.4,3
	l-0.8,10.6l-4.6,14.4l-5.9,17.3l-7.2,24.1l-4.6,17.7l-5.5,14.8l-9.7,3l-10.6,5.5l-6.8-3.4l-9.3-4.6l-3.4-6.8l-0.8-11.4l-4.2-10.1
	l-1.3-9.3l2.1-9.3l5.5-2.1v-4.2l5.5-9.7l0.8-8l-2.5-5.9l-2.1-8l-0.8-11.4l4.2-6.8l1.7-7.6l5.9-0.4l6.8-2.5l4.2-2.1h5.1l6.8-6.8
	l9.7-7.6l3.4-5.9l-1.7-5.1l5.1,1.7l6.8-8.5V669l3.8-5.5L898.7,667.7z"/>
<path class="ML" class="st0" d="M170.2,347.4l3.8-2.1l2.1-7.2l3.8-0.4l8.5,3.4l6.8-2.5l4.6,0.8l1.7-2.5h47.3l2.5-8.5l-2.1-1.7
	l-5.5-53.2l-5.9-54.9l18.2-0.4l40.1,28.3l40.1,27.5l3,5.9l7.6,3.8l5.5,2.1v8l13.1-1.3v28.7l-6.3,8l-0.8,7.6l-10.6,1.7l-16.1,0.8
	l-4.2,4.2l-7.6,0.4h-7.6l-3-2.1l-6.3,1.7l-11,5.1l-2.1,3.8l-9.3,5.5l-1.7,3l-5.1,2.5l-5.9-1.7l-3.4,3l-1.7,8.5l-9.3,10.1l0.4,4.2
	l-3.4,5.1l0.8,6.8l-5.1,1.7l-2.5,1.7l-1.7-5.1l-3.4,1.3l-2.1-0.4l-3.4,3.8h-9.3l-3.4-1.7l-1.7,1.3l-3.8-3.4l0.4-3.4l-1.7-1.3
	l-2.5,1.3l0.4-3.8l2.5-3l-4.6-5.1l-1.3-4.6l-2.5-2.5l-2.5-0.4l-3,1.7l-3.8,1.7l-3.4,2.5l-5.1-0.8l-3.4-3l-2.1-0.4l-3,1.7h-1.7
	l-0.8-4.2l0.4-3.8l-0.8-4.6l-4.2-3.4l-2.1-6.8L170.2,347.4L170.2,347.4z"/>
<path class="MR" class="st0" d="M170.2,347.4l-8-8.5l-7.2-8.9l-8-3.4l-5.5-3.8h-6.8l-5.9,2.5l-5.9-0.8l-4.2,3.8l-0.8-6.8l3.4-5.9
	l1.7-11.8l-1.3-12.3l-1.3-6.3l1.3-6.3l-3-5.9l-6.3-5.5l2.5-4.2h46.5l-2.1-18.2l3-6.8l11-1.3l-0.4-33.4l38.9,0.8V186l44.8,31.7
	l-18.2,0.4l5.9,54.9l5.5,53.2l2.1,1.7l-2.5,8.5h-47.3l-1.7,2.5l-4.6-0.8l-6.8,2.5l-8.5-3.4l-3.8,0.4l-2.1,7.2L170.2,347.4z"/>
<path class="MW" class="st0" d="M721.6,656.3l-3.4,9.3l3.4,15.6h4.2l4.2,3.8l5.1,8.9l0.8,15.6l-5.1,2.5l-3.8,8.5l-7.6-7.6l-0.8-8.5
	l2.5-5.9l-0.8-4.6l-4.6-3l-3.4,1.3l-6.8-5.9l-6.3-3l3.8-11.4l3.8-4.2l-2.1-10.1l2.5-9.7l2.1-3.4l-3-10.1l-5.5-5.5l11.4,2.1l2.5,3.4
	l4.2,5.5L721.6,656.3z"/>
<path class="MZ" class="st0" d="M721.6,656.3l8.9-0.8l14.4,3.4l3-1.7l8.5-0.4l4.2-3.4h7.2l13.1-4.6l9.3-6.8l2.1,5.5l-0.4,11.8l1.3,10.6
	l0.4,19l2.1,5.9l-3.4,8.9l-4.6,8.5l-7.6,7.6l-11,4.6l-13.5,5.9l-13.5,13.5l-4.6,2.1l-8.5,8.9l-5.1,3l-0.8,8.9l5.5,9.3l2.1,7.6v3.8
	l2.1-0.4l-0.4,12.7l-2.1,5.9l3,2.1l-1.7,5.5l-5.1,4.6l-9.7,4.2l-14.4,7.2l-5.1,4.6l0.8,5.5l3,0.8l-0.8,6.8h-8.9l-0.8-5.9l-1.7-5.9
	l-0.8-4.6l2.1-14.4l-3-9.3l-5.5-18.2l12.3-14.4l3-9.3l1.7-1.3l1.3-7.2l-2.1-3.8l0.4-9.3l2.1-8.5v-15.6l-5.9-3.8l-5.5-0.8l-2.5-3
	l-5.5-2.5l-9.7,0.4l-0.8-4.6l-1.3-8.5l35.9-10.1l6.8,5.9l3.4-1.3l4.6,3l0.8,4.6l-2.5,5.9l0.8,8.5l7.6,7.6l3.8-8.5l5.1-2.5l-0.8-15.6
	l-5.1-8.9l-4.2-3.8h-4.2l-3.4-15.6L721.6,656.3z"/>
<path class="NA" class="st0" d="M507,870.1l-8.9-10.1l-4.6-9.7l-2.5-12.7l-3-9.3l-3.8-19.9l-0.4-15.2l-1.7-6.8l-4.6-5.1l-6.3-10.6
	l-6.3-15.2l-2.5-7.6l-9.7-12.3l-0.8-9.3l5.9-2.5l7.2-2.1l7.6,0.4l7.2,5.5l1.7-0.8l48.2-0.4l8,5.9l28.7,1.7l22-5.1l9.7-3l7.6,0.8
	l4.6,3v0.8l-6.3,2.1h-3.8l-7.6,5.1l-4.6-5.1l-18.2,4.2l-8.9,0.4l-0.4,44.8l-11.8,0.4v37.6v48.6l-10.6,6.8l-5.9,0.8l-7.6-2.5
	l-5.5-0.8l-2.1-5.9l-4.6-3.8L507,870.1z"/>
<path class="NE" class="st0" d="M339.2,379.5l0.4-8.5l-13.5-2.5l-0.4-5.9l-6.8-8l-1.7-5.5l0.8-5.9l7.6-0.4l4.2-4.2l16.1-0.8l10.6-1.7
	l0.8-7.6l6.3-8v-28.7l16.9-5.5l34.2-24.9l40.6-24.5l18.6,5.5l6.8,7.2l8.5-4.6l3,19.9l4.2,3.4v3.8l5.1,4.2l-2.5,5.5l-4.6,25.4
	l-0.4,16.1l-15.2,11.4l-5.1,16.1l5.1,4.6v8l7.6,0.4L485,369l-3.4,0.8l-0.4,3.8l-2.1,0.4l-8-13.1l-3-0.4l-9.3,6.8l-9.3-3.4l-6.3-0.8
	l-3.4,1.7l-7.2-0.4l-6.8,5.1l-5.9,0.4l-14.4-6.3l-5.5,3h-5.9l-4.6-4.6l-11.8-4.6l-12.7,1.3l-3,2.5l-1.7,6.8l-3.4,5.1l-0.8,10.6
	l-8.9-6.8H343L339.2,379.5z"/>
<path class="NG" class="st0" d="M414.4,464.5l-12.3,4.2l-4.6-0.4l-4.6,2.5l-9.3-0.4l-6.3-7.6l-3.8-8.5l-8.5-7.6h-8.9h-10.6l0.8-19
	l-0.4-7.6l2.1-7.6l3.8-3.8l5.9-7.6l-1.3-3.4l2.1-4.6l-2.5-7.2l0.4-4.2l0.8-10.6l3.4-5.1l1.7-6.8l3-2.5l12.7-1.3l11.8,4.6l4.6,4.6
	h5.9l5.5-3l14.4,6.3l5.9-0.4l6.8-5.1l7.2,0.4l3.4-1.7l6.3,0.8l9.3,3.4l9.3-6.8l3,0.4l8,13.1l2.1-0.4l4.6,4.6l-1.3,2.1l-0.8,3.8
	l-10.1,9.3l-3,7.6l-1.7,6.3l-2.5,2.5l-2.5,8.5l-6.3,5.1l-1.7,5.9l-2.5,4.6l-1.3,5.1l-8,3.8l-6.8-4.6H433l-7.2,6.8h-3.4l-5.5,11.4
	L414.4,464.5z"/>
<path class="RW" class="st0" d="M672.6,533.8l4.6,6.8l-0.8,6.8l-3.4,1.3l-6.3-0.8l-3.8,6.8l-7.2-0.8l1.3-6.3l1.7-0.8l0.4-7.2l3.4-3.4
	l3,1.3L672.6,533.8z"/>
<path class="SD" class="st0" d="M714.9,409.1h-1.7v-5.9l-1.3-4.2l-5.9-4.6l-1.3-8.9l1.3-8.9l-5.5-0.8l-0.8,2.5l-7.2,0.4l3,3.4l0.8,7.2
	l-6.3,6.8l-5.9,8.5l-5.9,1.3l-10.1-6.8l-4.6,2.5l-1.3,3.8l-5.9,2.1l-0.4,2.5h-11.8l-1.7-2.5l-8.5-0.4l-4.2,2.1l-3.4-0.8l-6.3-7.2
	l-2.1-3.4l-8.5,1.7l-3.4,5.5l-3,10.6l-4.2,2.1l-3.8,1.3l-0.8-0.4l-4.2-3.4l-0.8-3.8l2.1-5.1v-4.6l-6.8-7.6l-1.3-5.1v-3l-4.2-3.4
	v-7.2l-2.5-4.6l-4.2,0.8l1.3-4.6l3-5.1l-1.3-5.1l3.8-3.8l-2.5-3l3-7.6l5.5-8.9l10.1,0.8l-0.4-48.6v-5.1h13.5v-25.4h47.7h46.1h46.9
	l3.8,12.3l-2.5,2.1l1.7,13.1l4.2,14.8l4.6,3l6.3,4.6l-5.9,7.2l-8.9,2.1l-3.8,3.8l-1.3,8l-5.1,17.7l1.3,4.6l-2.1,10.6l-4.6,11.8
	l-7.2,5.9l-5.1,9.3l-1.3,5.1l-5.5,3.4l-3.4,12.7v2.1h0.8V409.1z"/>
<path class="SL" class="st0" d="M179.1,440.8l-3.4-0.8l-8.5-4.6l-6.3-6.3l-2.1-4.2l-1.7-8.9l6.3-5.1l1.3-3.4l2.1-2.5l3.4-0.4l2.5-2.1
	h9.3l3.4,4.2l2.5,5.1l-0.4,3.4l1.7,3v4.2l3.4-0.8l-5.5,5.5l-5.5,6.3l-0.4,3.4L179.1,440.8z"/>
<path class="SN" class="st0" d="M117,360.1l-5.1-9.3l-5.9-4.2l5.1-2.1l5.9-8.5l3-6.3l4.2-3.8l5.9,0.8l5.9-2.5h6.8l5.5,3.8l8,3.4
	l7.2,8.9l8,8.5l0.4,7.6l2.1,6.8l4.2,3.4l0.8,4.6l-0.4,3.8l-1.7,0.8l-6.8-1.3l-0.8,1.3l-2.5,0.4l-8.5-3h-5.9l-22-0.4l-3.4,1.3
	l-3.8-0.4l-6.3,2.1l-2.1-9.3l10.6,0.4l3-1.7h2.1l4.2-3l5.1,2.5h5.1l5.1-2.5l-2.5-3.4l-3.8,2.1h-3.8l-4.6-3h-3.8l-2.5,3L117,360.1z"
	/>
<path class="SO" class="st0" d="M916.8,381.6l-0.4-3.4h-4.6l-5.5,4.2l-6.3,1.3l-5.5,1.7l-3.8,0.4l-6.8,0.4l-4.2,2.1l-5.9,0.8l-10.6,3.8
	l-12.7,1.3l-11,3h-5.9l-5.5-5.1l-2.1-5.1l-3.8-2.1l-4.2,6.3l-2.5,4.2l4.2,6.8l4.2,5.9l4.6,4.2l38.9,13.9h10.1l-33.4,35.5l-15.6,0.4
	l-10.6,8.5h-7.6l-3.4,3.8l-10.6,13.5v42.7l7.2,9.7l2.5-3l3-6.3l13.1-14.4l11-8.9l17.7-11.8l11.8-9.7l13.9-16.1l10.1-13.1L897,440
	l7.2-15.2l5.5-13.1L913,399l2.5-4.2v-6.3L916.8,381.6z"/>
<path class="SS" class="st0" d="M714.9,409.1v9.3l-1.7,3.8l-6.3,0.4l-4.2,6.8l7.2,0.8l5.9,5.9l2.1,4.6l5.5,3l6.8,12.7l-8,7.6l-7.2,7.2
	l-7.2,5.5h-8.5l-9.7,2.5l-7.6-2.5l-4.6,3.4l-10.6-8l-3-5.1l-6.8,2.5l-5.5-0.8l-3.4,2.1l-5.5-1.3l-7.2-9.7l-2.1-3.8l-8.9-4.6l-3-7.2
	l-5.1-5.1l-8-6.3V429l-6.3-4.6l-8-4.6l3.8-1.3l4.2-2.1l3-10.6l3.4-5.5l8.5-1.7l2.1,3.4l5.9,6.8l3.4,0.8l4.2-2.1l8.5,0.4l1.7,2.5
	h11.8l0.4-2.5l5.9-2.1l1.3-3.4l4.6-2.5l10.1,6.8l5.9-1.3l5.9-8.5l6.3-6.8l-0.8-7.2l-3-3.4l7.2-0.4l0.8-2.5l5.5,0.8l-1.3,8.9l1.3,8.9
	l5.9,4.6l1.3,4.2v5.9L714.9,409.1z"/>
<path class="SZ" class="st0" d="M692.5,846l-2.5,5.9l-6.8,1.3L676,846v-4.6l3.4-5.1l1.3-3.8l3.4-0.8l5.9,2.5l1.7,5.9L692.5,846z"/>
<path class="TD" class="st0" d="M485,368.5l1.3-5.5l-7.6-0.4v-8l-5.1-4.6l5.1-16.1l15.2-11.4l0.4-16.1l4.6-25.4l2.5-5.5l-5.1-4.2v-3.8
	l-4.2-3.4l-3-19.9l11.8-7.2l47.3,24.5l47.3,24.1l0.4,48.6l-10.1-0.8l-5.5,8.9l-3,7.6l2.5,3l-4.2,4.6l1.3,5.1l-3.4,5.1l-1.3,4.6
	l4.2-0.8l2.5,4.6v7.2l4.2,3.4v3l-7.6,1.7l-5.9,4.6l-8.5,13.1l-11,5.5l-11.4-0.8l-3.4,1.3l1.3,4.2l-6.3,4.2l-5.1,4.6l-14.8,4.6
	l-3-2.5l-2.1-0.4l-2.1,3l-9.7,0.8l1.7-3.4l-3.8-8l-1.7-5.1L485,415l-7.2-6.8l2.5-5.5l5.5,1.3l3.4-0.8h6.8l-6.3-11l0.4-8l-0.8-8
	L485,368.5z"/>
<path class="TG" class="st0" d="M335.8,448.4l-9.3,2.5l-2.5-4.2l-3.4-7.6l-0.8-5.9l2.5-10.6l-3-4.2l-1.3-9.3v-8.5l-5.1-6.3l0.8-3.8
	l10.6,0.4l-1.7,6.3l3.4,3.4l4.2,4.2l0.4,5.9l2.5,2.5l-0.4,27.5L335.8,448.4z"/>
<path class="TN" class="st0" d="M425.8,147.6l-5.1-24.9l-7.2-5.5v-3.4l-9.7-8.5L403,94.7l7.2-8l3-11.8l-1.7-13.9l2.5-7.6l13.1-5.9
	l8.5,1.7l-0.4,7.6l10.1-5.5l0.8,3l-5.9,7.2v6.8l4.2,3.8l-1.7,12.7l-8,7.2l2.1,7.6l6.3,0.4l3,6.8l4.6,2.1l-0.8,11l-5.9,3.8l-3.8,4.6
	l-8,5.5l1.3,5.9l-0.8,5.9L425.8,147.6z"/>
<path class="TZ" class="st0" d="M714,531.6l2.1,1.3l43.1,24.1l0.8,6.8l16.9,11.8l-5.5,14.4l0.8,6.8l7.6,4.2l0.4,3l-3.4,7.2l0.8,3.8
	l-0.8,5.5l4.2,7.6l5.1,11.8l4.2,2.5l-9.3,6.8l-13.5,5.1h-7.2l-4.2,3.4l-8.5,0.4l-3,1.7l-14.4-3.4l-8.9,0.8l-3.4-16.5l-4.2-5.5
	l-2.5-3.4l-11.4-2.1l-6.8-3.8l-7.6-2.1l-4.6-2.1l-5.1-3l-6.3-15.2l-6.8-6.8l-2.5-6.8l1.3-6.3l-2.1-11l5.1-0.4l4.2-4.2l4.6-6.3l3-2.5
	v-3.8l-2.5-2.5l-0.8-4.6l3.4-1.3l0.8-6.8l-4.6-6.8l4.2-1.3h13.1L714,531.6z"/>
<path class="UG" class="st0" d="M689.9,532.5h-13.1l-4.2,1.3l-7.2,3.8l-3-1.3v-8.9l2.5-4.6l0.8-9.3l2.5-5.5l4.6-6.3l4.6-3l3.8-4.2
	l-4.6-1.7l0.8-13.9l4.6-3.4l7.6,2.5l9.7-2.5h8.5l7.2-5.5l5.5,8l1.3,5.9l5.1,13.5l-4.2,8.5l-5.9,7.6l-3.4,4.6v12.7L689.9,532.5z"/>
<path class="ZA" class="st0" d="M685.7,879.4l-2.1,2.1l-5.1,6.8l-3.4,7.2l-6.8,9.7l-13.5,14.4l-8.5,8.5l-8.9,6.3l-12.3,5.5l-5.9,0.8
	l-1.7,3.8l-7.2-2.1l-5.9,2.5l-12.7-3l-7.2,1.7l-5.1-0.8l-12.3,5.5l-10.1,2.1l-7.2,5.5l-5.5,0.4l-5.1-5.1l-4.2-0.4l-5.1-6.3l-0.4,2.1
	l-1.7-3.8v-8.5l-3.8-9.3l3.8-2.5l-0.4-10.6l-7.6-12.7l-5.9-11.4l0,0l-8.5-17.7l5.5-6.8l4.6,3.8l2.1,5.9l5.5,0.8l7.6,2.5l6.3-0.8
	l10.6-6.8v-48.6l3.4,2.1l7.2,12.3l-1.3,8l2.5,4.6l8.5-1.3l5.9-5.9l5.5-3.8l3-6.3l5.9-3l5.1,1.7l5.5,3.8l9.7,0.8l7.6-3l1.3-4.2
	l2.1-6.3l6.3-0.8l3.4-5.1l3.8-8.5l10.6-9.7l16.9-9.3h4.6l5.9,2.1l3.8-1.7l6.3,1.3l5.5,18.2l3,9.3l-2.1,14.4l0.8,4.6l-5.9-2.5
	l-3.4,0.8l-1.3,3.8l-3.4,5.1v4.6l7.2,7.2l6.8-1.3l2.5-5.9h8.9l-3,9.7l-1.3,11l-3,5.9L685.7,879.4z M655.7,875.6l-5.1-4.2l-5.5,3
	l-6.3,5.1l-6.3,8.5l8.9,10.6l4.2-1.3l2.1-4.2l6.8-2.1l2.1-4.2l3.8-6.8L655.7,875.6z"/>
<path class="ZM" class="st0" d="M700.5,629.3l5.5,5.5l3,10.1l-2.1,3.4l-2.5,9.7l2.1,10.1l-3.8,4.2l-3.8,11.4l6.3,3l-35.9,10.1l1.3,8.5
	l-8.9,1.7l-6.8,5.1l-1.3,4.2l-4.2,0.8l-10.1,10.1l-6.3,8l-4.2,0.4l-3.8-1.3l-13.1-1.3l-2.1-0.8v-0.8l-4.6-3l-7.6-0.8l-9.7,3
	l-7.6-7.6l-8-10.1l0.4-38.9H597l-0.8-4.2l1.7-4.6l-2.1-5.5l1.3-5.9l-1.3-3.8l4.2,0.4l0.8,3.8l5.5-0.4l7.6,1.3l3.8,5.5l9.3,1.7
	l7.2-3.8l2.5,6.3l9.3,1.7l4.2,5.1l5.1,6.8h9.3l-0.8-13.1l-3.4,2.1l-8.5-4.6l-3.4-2.1l1.7-12.3l2.1-14.4l-3-5.5l3.4-7.6l3.4-1.3
	l16.1-2.1l4.6,1.3l5.1,3l4.6,2.1l7.6,2.1L700.5,629.3z"/>
<path class="ZW" class="st0" d="M681.9,788.1l-6.3-1.3l-3.8,1.7l-5.9-2.1h-4.6l-7.6-5.9l-9.3-2.1l-3.4-8v-4.2l-5.1-1.3l-13.5-13.5
	l-3.8-7.2l-2.5-2.1l-4.6-10.1l13.1,1.3l3.8,1.3l4.2-0.4l6.3-8l10.1-10.1l4.2-0.8l1.3-4.2l6.8-5.1l8.9-1.7l0.8,4.6l9.7-0.4l5.5,2.5
	l2.5,3l5.5,0.8l5.9,3.8V734l-2.1,8.5l-0.4,9.3l2.1,3.8l-1.3,7.2l-1.7,1.3l-3,9.3L681.9,788.1z"/>
</svg>
