<?xml version="1.0" encoding="utf-8"?>
<!-- Generator: Adobe Illustrator 20.1.0, SVG Export Plug-In . SVG Version: 6.00 Build 0)  -->
<svg version="1.1" id="Layer_1" xmlns="http://www.w3.org/2000/svg" xmlns:xlink="http://www.w3.org/1999/xlink" x="0px" y="0px"
	 viewBox="0 0 1024 1024" style="enable-background:new 0 0 1024 1024;" xml:space="preserve">
<style type="text/css">
	.st0{fill:#424242;stroke:#FFFFFF;stroke-width:0.5;}
</style>
<path class="AE" class="st0" d="M243.6,734l0.9-0.2l0.2,1.5l4.1-0.9l4.3,0.2l3.1,0.2l3.5-3.9l3.9-3.7l3.3-3.5l0.9,2l0.7,4.4H266
	l-0.4,3.7l0.9,0.7l-2.4,1.1v2.2l-1.5,2.4l-0.2,2.2l-1.1,1.1l-15.5-2.8l-2-5.7L243.6,734z"/>
<path class="AF" class="st0" d="M293.4,666.4l5.4,2.4l3.9-0.9l1.1-2.8l4.1-0.9l3-2l1.1-5.2l4.4-1.3l0.7-2.2l2.4,1.7l1.5,0.2h3l3.9,1.3
	l1.5,0.7l3.7-2l1.8,1.3l1.7-3l3.1,0.2l0.7-0.9l0.6-2.6l2.2-2.2l2.8,1.5l-0.6,2l1.5,0.4l-0.6,5.4l2,2.2l1.8-1.3l2.2-0.6l3.1-3
	l3.5,0.6h5.4l0.9,1.8l-3,0.7l-2.6,1.1l-5.9,0.7l-5.5,1.3l-3,2.8l1.3,2.8l0.6,3.1l-2.6,2.6l0.2,2.4l-1.5,2.2l-5-0.2l2,4.1l-3.3,1.7
	l-2.2,3.7l0.2,3.7l-2,1.7l-1.8-0.6l-3.9,0.7l-0.6,1.7h-3.9l-3,3.3l-0.2,5.2l-6.8,2.4l-3.7-0.6L308,705l-3.1-0.7l-5.2,0.9l-8.7-3
	l4.6-5.4l-0.4-3.9l-3.9-1.1L291,688l-1.7-4.8l2.2-3.3l-2.2-0.9l1.5-4.6L293.4,666.4z"/>
<path class="AM" class="st0" d="M202.4,630.5l7.2-1.1l1.1,1.8l2,1.1l-1.1,1.7l2.8,2.4l-1.5,2.2l2.2,1.8l2.4,1.1l0.2,4.6l-1.8,0.2
	l-2-3.9v-1.1h-2.2l-1.5-1.8l-1.1,0.2l-2-2l-3.9-1.7l0.6-3.3L202.4,630.5z"/>
<path class="AZ" class="st0" d="M209.6,639.7l1.5,1.8h2.2v1.1l2,3.9l-3.5-0.9l-2.6-3.1l-0.7-2.6L209.6,639.7z M222,629.6l2.2,0.4
	l0.9-1.8l3.1-2.8l2.8,3.7l2.6,4.8l2.4,0.4l1.7,1.8l-4.3,0.6l-0.9,5.2l-0.9,2.4l-1.8,1.5l0.2,3.3l-1.3,0.4l-3.3-3.5l1.8-3.3l-1.7-1.8
	l-1.8,0.6l-6.1,5l-0.2-4.6l-2.4-1.1l-2.2-1.8l1.5-2.2l-2.8-2.4l1.1-1.7l-2-1.1l-1.1-1.8l1.3-1.1l3.9,2l2.8,0.4l0.7-0.7l-2.6-3.7
	l1.3-0.9l1.5,0.2L222,629.6z"/>
<path class="BD" class="st0" d="M455.7,746.4l-0.2,3.9l-1.8-0.9l0.4,4.4l-1.5-3l-0.4-2.8l-0.9-2.6l-2.2-3.3l-4.8-0.2l0.6,2.2l-1.7,3.1
	l-2.2-1.1l-0.7,0.9l-1.5-0.6l-2-0.6l-0.7-4.6l-1.8-4.3l0.9-3.3l-3.1-1.5l1.1-2l3.3-2l-3.7-3l1.8-3.9l4.1,2.4l2.4,0.4l0.4,3.9l5,0.7
	h4.8l3,0.9l-2.4,4.8l-2.4,0.4l-1.7,3.1l2.8,3l0.9-3.5h1.5L455.7,746.4z"/>
<path class="BN" class="st0" d="M567,839.1l2-1.8l4.4-2.8l-0.2,2.6l-0.4,3.3l-2.4-0.2l-1.1,1.7L567,839.1z"/>
<path class="BT" class="st0" d="M450.9,713.9l2,1.8l-0.4,3.5l-4.3,0.2l-4.4-0.4l-3.3,0.9l-4.6-2.2v-1.1l3.3-4.3l2.8-1.5l3.7,1.3
	l2.8,0.2L450.9,713.9z"/>
<path class="CN" class="st0" d="M546.9,764.7l-4.4,2.6l-4.3-1.7L538,761l2.6-2.4l5.7-1.5l3,0.2l1.1,2l-2.2,2.4L546.9,764.7z
	 M636.4,566.9l9.1,2.6l6.1,5.5l2,7.4h8l4.4-3l8.5-2.2l-2.8,7l-2,2.8l-1.8,8.3l-3.5,7.2l-6.3-1.3l-4.4,2.6l1.3,6.3l-0.7,8.3l-2.6,0.2
	v3.5l-3.3-4.1l-2,3.9l-8,3l0.7,3.7l-4.4-0.2l-2.4-2.2l-3.5,4.8l-5.7,3.7l-4.3,4.4l-7.2,2l-3.9,3.1l-5.5,1.8l2.8-3.1l-1.1-2.6
	l4.1-4.6l-2.8-3.5l-4.4,2.4l-5.9,4.6l-3.1,4.3l-5.2,0.4l-2.4,2.8l2.8,4.4l4.3,1.1l0.2,3l4.1,1.8l5.7-4.6l4.6,2.6l3.3,0.2l0.9,3.3
	l-7.4,1.8L600,664l-5,3.1l-2.6,4.4l5.5,3.5l2,6.1l3.1,5.5l3.5,4.6v4.4l-3.3,1.7l1.3,3.1l3.1,1.8l-0.7,4.8l-1.3,4.6l-3,0.6l-3.7,6.3
	l-4.3,7.6l-4.8,6.8l-7.2,5.2l-7.2,4.6l-5.9,0.7l-3.1,2.4l-1.8-1.8l-3,2.8l-7.2,2.8l-5.5,0.9l-1.8,5.7l-2.8,0.4l-1.1-4.6l1.3-2.2
	l-7-1.8L535,749l-5.2-1.5l-2.4-2.2l0.7-3.1l-4.8-0.9l-2.4-2l-4.4,3l-5,0.7h-4.1l-2.8,1.3l-2.8,0.7l0.7,6.3l-2.8-0.2l-0.4-1.3
	l-0.2-2.2l-3.9,1.7l-2.2-0.9l-3.9-2l1.5-4.6l-3.3-1.1l-1.3-5.2l-5.5,0.9l0.6-6.7l5-4.8l0.2-4.8l-0.2-4.4l-2.2-1.5l-1.7-3.5l-3,0.4
	l-5.5-0.9l1.8-2.4l-2.4-3.7l-3.7,2.6l-4.4-1.5l-5.9,3.7l-4.6,4.4l-4.3,0.7l-2.2-1.7l-2.8-0.2l-3.7-1.3l-2.8,1.5l-3.3,4.3l-0.4-4.6
	l-3.1,1.3l-6.1-0.6l-5.9-1.3l-4.3-2.6l-4.1-1.1l-1.7-2.8l-3-0.9l-4.4-3.5l-4.1-1.8l-2.2,1.5l-7.2-4.3l-5.2-3.9l-1.5-6.7l3.7,0.7
	l0.2-3.1l-2-3.1l0.6-5l-5.5-7.4l-8.5-2.6l-1.5-5l-3.9-3l-0.9-1.8l-0.7-3.7l0.2-2.6l-3.1-1.5l-1.7,0.7l-1.3-6.1l1.5-1.5l-0.7-1.7
	l5-3.1l3.5-1.3l5.5,0.9l2-4.4l6.7-0.7l1.8-2.8l8.1-3.7l0.7-1.7l-0.4-4.1l3.5-1.8l-4.6-12.6l10.2-3l2.6-1.7l3.7-13.5l10.4,2.6l3-3.5
	l0.2-7.8l4.3-0.7l3.9-5.2l2-0.7l1.3,5.5l4.4,4.1l7.4,3l3.5,6.1l-2,8.7l1.8,3.1l6.1,1.3l7,0.9l6.3,4.6l3.1,0.7l2.4,6.7l3.1,4.3
	l5.7-0.2l10.7,1.7l6.8-0.9l5.2,1.1l7.8,4.3h6.3l2.2,2.2l6.1-3.7l8.3-2.4l7.8-0.2l6.1-2.4l3.7-3.7l3.7-2.4l-0.9-2.4l-1.7-2.8l2.8-4.6
	l3,0.7l5.4,1.5l5.2-3.9l8-2.8l3.7-5l3.7-2.2l7.6-0.9l4.1,0.9l0.6-2.8l-4.6-5.4l-4.1-2.4l-4.1,2.8l-5.2-1.1l-3,0.9l-1.3-3.1l3.7-7.8
	l2.6-5.9l6.3,3l7.4-5v-3.5l4.6-8.7l3-2.8v-4.6l-2.8-2l4.3-4.3l6.5-1.5l6.8-0.2l7.8,2.6l4.6,3.1l3.1,8.5l1.8,3.5l1.8,5L636.4,566.9z"
	/>
<path class="CY" class="st0" d="M152.5,668.8l3.5-2.8l-4.6,1.8l-3.7-0.2l-0.7,1.5h-0.4l-2.4,0.2l1.1,2.6l2.6,0.7l5.4-2.6l-0.2-0.6
	L152.5,668.8z"/>
<path class="GE" class="st0" d="M192,627.5l0.7-3l-1.3-4.8l-3-2.6l-2.8-0.7l-1.8-2.2l0.6-0.9l4.4,1.3l7.6,1.1l7,3.3l0.9,1.3l3.1-1.1
	l4.8,1.5l1.5,2.8l3.3,1.7l-1.3,0.9l2.6,3.7l-0.7,0.7l-2.8-0.4l-3.9-2l-1.3,1.1l-7.2,1.1l-5-3.3L192,627.5z"/>
<path class="ID" class="st0" d="M600.5,915.3h-2.2l-6.8-3.7l4.8-1.1l2.8,1.7l1.8,1.7L600.5,915.3z M619.9,914.7l-4.4,1.1l-0.6-0.6
	l0.4-1.8l2.2-3.1l5.2-2l0.6,1.1v1.7L619.9,914.7z M585.9,904l1.8,1.5l3.1-0.4l1.3,2.2l-5.9,1.1l-3.5,0.7H580l1.8-3h2.8L585.9,904z
	 M612,904l-0.7,3l-7.8,1.5l-6.8-0.7v-1.8l4.1-1.1l3.3,1.5l3.5-0.4L612,904z M538,897.1l10,0.6l1.1-2.2l9.6,2.6l1.8,3.3l7.8,0.9
	l6.3,3.1l-5.9,2l-5.7-2l-4.6,0.2l-5.4-0.4l-4.8-0.9l-5.9-2l-3.9-0.6l-2.2,0.7l-9.4-2.2l-0.9-2.2l-4.8-0.4l3.5-5l6.3,0.4l4.3,2
	l2.2,0.4L538,897.1z M672.8,894.2l-2.6,3.5l-0.6-3.9l0.9-1.8l1.1-1.8l1.1,1.5L672.8,894.2z M634.2,879.9l-1.8,1.7l-3.5-0.9l-0.9-2.2
	l5.2-0.2L634.2,879.9z M651,878.3l1.8,3.9l-4.4-2l-4.3-0.4l-3,0.4l-3.5-0.2l1.3-2.8l6.5-0.2L651,878.3z M669.8,868.3l1.5,8.3
	l5.4,3.1l4.3-5.5l5.9-3.1h4.6l4.4,1.8l3.9,1.8l5.5,0.9v16.8v17l-4.6-4.3l-5.2-1.1l-1.3,1.5l-6.5,0.2l2.2-4.3l3.3-1.5l-1.3-5.5
	l-2.4-4.4l-10-4.4l-4.3-0.4l-7.8-4.8l-1.5,2.6l-2,0.4l-1.1-1.8v-2.2l-3.9-2.6l5.5-1.8h3.7l-0.4-1.3h-7.6l-2-3.1l-4.6-0.9l-2.2-2.6
	l7-1.3l2.6-1.7l8.3,2L669.8,868.3z M623.8,855l-4.1,5.2l-3.9,0.9l-5-0.9l-8.7,0.2l-4.6,0.7l-0.7,3.9l4.6,4.6l2.8-2.4l9.6-1.8
	l-0.4,2.4l-2.2-0.7l-2.2,3l-4.6,2l5,6.7l-0.9,1.8l4.6,5.9v3.3l-2.8,1.5l-2-1.8l2.6-4.3l-5.2,2l-1.3-1.5l0.7-2l-3.7-3l0.4-5l-3.5,1.7
	l0.4,5.9l0.2,7.4l-3.3,0.7l-2.2-1.5l1.5-4.8l-0.7-5h-2.2l-1.7-3.5l2.2-3.3l0.7-4.1l2.6-7.8l1.1-2l4.4-3.9l4.1,1.5l6.5,0.7l5.9-0.2
	l5.2-3.7L623.8,855z M641.7,856.5l-0.4,4.4l-2.8-0.6l-0.7,3.1l2.2,2.8l-1.5,0.6l-2-3.3l-1.5-6.7l1.1-4.1l1.7-1.8l0.4,2.8l3.1,0.4
	L641.7,856.5z M585.9,852.9l5.7,4.8l-6.1,0.6l-1.7,3.5l0.2,4.6l-5,3.5l-0.2,5.2l-2,8l-0.7-1.8l-5.9,2.4l-2-3.1l-3.7-0.4l-2.6-1.7
	l-6.1,1.8l-1.8-2.6l-3.3,0.2l-4.3-0.6l-0.7-6.8L543,869l-2.4-4.4l-0.7-4.4l0.6-4.8l3.1-3.5l0.9,3.5l3.5,3l3.3-1.1l3.3,0.4l3-2.6
	l2.4-0.4l5,1.5l4.3-1.1l2.6-7.2l2-1.8l1.8-5.9h5.9l4.4,0.9l-3,4.6l3.9,4.8L585.9,852.9z M523.8,892.3l-5.7,0.2l-4.4-4.3l-6.7-4.3
	l-2.2-3.1l-3.9-4.3l-2.6-3.9l-3.9-7.2l-4.6-4.3l-1.5-4.4l-1.8-4.1l-4.6-3.3L479,845l-3.9-3l-5.4-5.7l-0.4-2.6l3.3,0.2l8,0.9l4.6,5
	l4.1,3.5l2.8,2.2l5,5.5h5.2l4.4,3.5l3,4.3l3.9,2.4l-2,4.3l3,1.8l1.8,0.2l0.9,3.5l1.8,3l3.9,0.4l2.6,3.3l-1.3,6.5L523.8,892.3z"/>
<path class="IL" class="st0" d="M161.7,684.5l-0.9,1.8l-1.8-0.9l-1.1,4.1l1.3,0.7l-1.3,0.9l-0.2,1.7l2.4-0.9l0.2,2.4l-2.6,9.6
	l-3.3-10.2l1.5-2l-0.4-0.4l1.3-2.8l1.1-4.6l0.7-1.5h0.2h1.7l0.6-1.1l1.5-0.2v2.6L161.7,684.5L161.7,684.5z"/>
<path class="IN" class="st0" d="M379.2,667.1l5.5,7.4l-0.6,5l2,3.1l-0.2,3.1l-3.7-0.7l1.5,6.7l5.2,3.9l7.2,4.3l-3.3,2.8l-2,5.5l5,2.2
	l4.8,3l6.8,3.3l7,0.7l3,3l4.1,0.6l6.3,1.3h4.3l0.6-2.2l-0.7-3.7l0.4-2.4l3.1-1.3l0.4,4.6v1.1l4.6,2.2l3.3-0.9l4.4,0.4l4.3-0.2
	l0.4-3.5l-2-1.8l4.3-0.7l4.6-4.4l5.9-3.7l4.3,1.5l3.7-2.4l2.4,3.7l-1.8,2.4l5.5,0.9l0.4,2.2l-1.8,1.1l0.4,3.5l-3.7-1.1l-6.7,4.1
	l0.2,3.3l-2.8,4.8l-0.4,2.8l-2.2,4.6l-4.1-1.3l-0.2,5.7l-1.1,1.8l0.6,2.4l-2.6,1.3l-2.8-8.9h-1.5l-0.9,3.5l-2.8-3l1.7-3.1l2.4-0.4
	l2.4-4.8l-3-0.9h-4.8l-5-0.7l-0.4-3.9l-2.4-0.4l-4.1-2.4l-1.8,3.9l3.7,3l-3.3,2l-1.1,2l3.1,1.5l-0.9,3.3l1.8,4.3l0.7,4.6l-0.7,2
	h-3.7l-6.5,1.1l0.4,4.1l-2.8,3.3l-7.4,3.7l-5.7,6.5l-3.9,3.3l-5.2,3.5v2.4l-2.6,1.3l-4.6,1.8l-2.4,0.4l-1.5,4.1l1.1,7l0.2,4.4
	l-2.2,5v8.9l-2.6,0.2l-2.4,4.1l1.5,1.7l-4.8,1.5l-1.7,3.5l-2,1.5l-4.8-4.8l-2.4-7.4l-2-5.4l-1.8-2.4l-2.8-5l-1.3-6.7l-0.9-3.3
	l-4.6-7.4l-1.8-10.7l-1.5-7v-6.7l-0.9-5.2l-7.6,3.3l-3.7-0.7l-6.8-6.7l2.6-2l-1.5-2.2l-6.1-4.8l3.5-3.7H344l-1.1-4.8l-3-3l-0.6-4.4
	l-3.3-2.6l5.7-6.1l6.1,0.4l5.4-6.1l3.3-6.1l5-5.9v-4.3l4.4-3.5l-4.3-3l-1.8-4.1l-1.8-5.5l2.6-2.8l8,1.5l5.7-0.9L379.2,667.1z"/>
<path class="IQ" class="st0" d="M211.8,664.3l3.3,1.8l0.4,3.7l-2.6,2.2l-1.1,4.8l3.5,5.9l6.3,3.3l2.8,4.6l-0.9,4.4h1.7v3.1l2.8,3.1
	l-3.1-0.2l-3.5-0.6l-3.9,5.7l-9.6-0.6l-14.6-12l-7.8-4.3l-6.3-1.7l-2-7.4l11.5-6.5l2-7.6l-0.6-4.6l2.8-1.7l2.6-4.1l2.2-1.1l6.1,0.9
	l1.8,1.7l2.4-1.1L211.8,664.3z"/>
<path class="IR" class="st0" d="M255.6,656.4l4.6-1.3l3.7-3.7l3.5,0.2l2.2-1.3l3.7,0.6l5.7,3.3l4.1,0.7l5.9,5.7l3.9,0.2l0.4,5.4l-2,7.8
	l-1.5,4.6l2.2,0.9l-2.2,3.3l1.7,4.8l0.4,3.9l3.9,1.1l0.4,3.9l-4.6,5.4l2.6,3.1l2,3.5l5,2.6l0.2,5.2l2.4,0.9l0.4,2.6l-7.4,3l-2,6.7
	l-9.8-1.7l-5.7-1.3l-5.9-0.7l-2.2-7l-2.4-1.1l-4.1,1.1l-5.2,2.8l-6.3-1.8l-5.2-4.4l-5-1.7l-3.5-5.5l-3.9-8l-2.8,0.9l-3.3-2l-1.8,2.4
	l-2.8-3.1v-3.3h-1.3l0.9-4.4l-2.8-4.6l-6.3-3.3l-3.5-5.9l1.1-4.8l2.6-2.2l-0.4-3.7l-3.3-1.8l-3.3-7.6l-2.8-5.2l0.9-2l-1.7-7.6
	l3.5-1.8l0.7,2.6l2.6,3.1l3.5,0.9l1.8-0.2l6.1-5l1.8-0.6l1.5,2l-1.8,3.3l3.3,3.5l1.3-0.4l1.7,4.8l5,1.3l3.7,3.3l7.4,1.1l8.1-1.7
	L255.6,656.4z"/>
<path class="JO" class="st0" d="M160.8,686.5l0.9-1.8l5.7,2.4l10.2-6.5l2,7.4l-0.9,0.9l-10.4,3l5.2,6.1l-1.7,0.9l-0.9,2l-3.9,0.7
	l-1.3,2.2l-2.2,1.8l-5.7-0.9l-0.2-0.9l2.6-9.6l-0.2-2.4l0.7-1.8L160.8,686.5L160.8,686.5z"/>
<path class="JP" class="st0" d="M672.4,675.6l0.7,2l-3,3.7l-2.2-2l-2.6,1.5l-1.3,3.7l-3.3-1.8v-3l2.8-3.7l3,0.7l2.2-2.6L672.4,675.6z
	 M705.2,656.8l-2,5.2l0.9,3.1l-2.8,4.4l-6.7,3l-9.1,0.2l-7.4,7l-3.5-2.4l-0.2-4.6l-9.1,1.5l-6.1,3l-6.1,0.2l5.2,4.6l-3.5,10.4
	l-3.3,2.6l-2.6-2.4l1.3-5.5l-3.3-1.8l-2-4.3l5-1.8l2.8-3.9l5.2-3.3l3.9-4.3l10.4-1.8l5.5,1.3l5.4-11.5l3.5,3.1l7.6-6.5l3-2.6
	l3.3-8.1l-0.9-7.6l2.2-4.3l5.5-1.3l2.8,9.4l-0.2,5.4l-4.8,6.7L705.2,656.8z M720.3,609l3.7,1.5l3.7-3l1.1,8.1l-7.8,1.8l-4.6,7
	l-8.1-4.8l-2.8,7.6l-5.7,0.2l-0.7-6.8l2.6-5.4l5.5-0.4l1.5-10l1.5-5.7l6.1,7.6L720.3,609z"/>
<path class="KG" class="st0" d="M343.7,622.5l1.1-3.1l3.3-0.9l8.5,2.4l0.7-4.1l3-1.5l7.4,3l1.8-0.7l8.7,0.2l7.8,0.7l2.6,2.6l3.1,1.1
	l-0.7,1.7l-8.1,3.7l-1.8,2.8l-6.7,0.7l-2,4.4l-5.5-0.9l-3.5,1.3l-5,3.1l0.7,1.7l-1.5,1.5l-9.8,1.1l-6.5-2.2l-5.5,0.6l0.6-3.9
	l5.7,1.1l1.8-2l3.9,0.7l6.7-4.8l-6.1-3.7l-3.7,1.7l-3.9-2.6l4.3-4.4L343.7,622.5z"/>
<path class="KH" class="st0" d="M511.6,807.5l-2-2.8l-2.6-5.4l-1.3-6.3l3.3-4.4l6.7-1.1l4.8,0.7l4.3,2l2.4-3.7l4.6,2l1.1,3.5l-0.6,6.3
	l-8.7,4.1l2.2,3.1l-5.4,0.4l-4.4,2L511.6,807.5z"/>
<path class="KP" class="st0" d="M651.7,621.6l0.7,1.3l-2-0.4l-2.2,2.4l-1.5,2.4l0.2,5l-2.8,1.5l-0.9,1.1l-2,2l-3.5,1.1l-2.2,1.8l-0.2,3
	l-0.6,0.7l2,1.1l3,3l-0.7,1.7l-2.2,0.4l-3.7,0.4l-2,3l-2.4-0.2l-0.4,0.6l-2.6-1.3l-0.6,1.3l-1.5,0.6l-0.2-1.3l-1.3-0.6l-1.5-1.1
	l1.5-3l1.3-0.7l-0.4-1.1l1.3-3.5l-0.4-1.1l-3-0.7l-2.4-1.8l4.3-4.4l5.7-3.7l3.5-5l2.4,2.2l4.4,0.2l-0.7-3.7l8-3l2-3.9L651.7,621.6z"
	/>
<path class="KR" class="st0" d="M639.9,647.1l4.4,7.8l1.3,4.3v7.4l-1.8,3.5l-4.6,1.3l-4.1,2.6l-4.6,0.6l-0.6-3.5l0.9-4.8l-2.2-6.7
	l3.9-1.1l-3.5-5.5l0.4-0.6l2.4,0.2l2-3l3.7-0.4l2.2-0.4L639.9,647.1z"/>
<path class="KW" class="st0" d="M225.1,701.1l1.1,2.6l-0.4,1.3l1.7,4.4l-3.7,0.2l-1.3-2.8l-4.6-0.6l3.9-5.7L225.1,701.1z"/>
<path class="KZ" class="st0" d="M343.7,622.5l-3,1.3l-6.8,4.8l-2.2,4.8h-1.8l-1.5-3.3l-6.7-0.2l-1.1-5.7H318l0.4-7L312,612l-8.9,0.6
	l-6.1,1.1l-5-6.5l-4.3-2.8l-8-5.2l-0.9-0.7l-13.3,4.4l0.2,25.9l-2.6,0.4l-3.7-5.4l-3.5-2l-5.9,1.5l-2.2,2.2l-0.4-1.7l1.3-3l-0.9-2.4
	l-5.9-2.4l-2-6.3l-2.8-1.8l-0.2-2.4l5,0.7l0.2-5.4l4.4-1.1l4.4,1.1l0.9-7.2l-0.9-4.6l-5.2,0.4l-4.4-1.8l-5.9,3.3l-4.8,1.7l-2.6-1.3
	l0.6-3.9l-3.3-5.2l-3.9,0.2l-4.4-5.2l3-5.9l-1.5-1.7l4.1-8.9l5.4,4.6l0.6-5.9l10.7-9.1l8.1-0.2l11.5,5.7l6.1,3.3l5.5-3.5l8.1-0.2
	l6.7,4.3l1.5-2.4l7.2,0.4l1.3-3.9l-8.3-5.7l5-4.1l-0.9-2.2l5-2.2l-3.7-5.9l2.4-3l19.2-2.4l2.6-2.2l12.9-3.3l4.6-3.7l9.2,2l1.7,9.2
	l5.4-2.2l6.7,3l-0.4,4.8l5-0.6l12.9-8.3l-1.8,2.8l6.7,6.8L391,558l2.8-4.3l7.2,4.8l7.4-2l2.8,1.5l2.4,4.6l3.7,1.5l2.2,3.5l6.7-1.1
	l2.8,4.8l-3.9,5.2l-4.3,0.7l-0.2,7.8l-3,3.5l-10.4-2.6l-3.7,13.5l-2.6,1.7l-10.4,3l4.6,12.6l-3.5,1.8l0.4,4.1l-3.1-1.1l-2.6-2.6
	l-7.8-0.7l-8.7-0.2l-1.8,0.7l-7.4-3l-3,1.5l-0.7,4.1l-8.5-2.4l-3.3,0.9L343.7,622.5z"/>
<path class="LA" class="st0" d="M520.6,788.4l1.7-2.4l0.2-4.4l-4.3-4.6l-0.4-5.4l-3.9-4.4l-3.9-0.4l-1.1,1.8l-3,0.2l-1.5-0.9L499,771
	l-0.2-4.8l1.3-5.7l-3.5-0.2l-0.4-3.3l-2.2-1.7l1.1-2l4.4-3.5l0.4,1.3l2.8,0.2l-0.7-6.3l2.6-0.7l3,4.4l2.4,5h6.5l2,4.8l-3.3,1.5
	l-1.5,2l6.3,3.3l4.3,6.5l3.3,4.8l3.9,3.7l1.3,3.7l-0.9,5.4l-4.6-2l-2.4,3.7L520.6,788.4z"/>
<path class="LB" class="st0" d="M162.3,681l-1.5,0.2l-0.6,1.1h-1.7l1.8-5l2.6-4.4l0.2-0.2l2.4,0.4l0.9,2.4l-2.8,2.4L162.3,681z"/>
<path class="LK" class="st0" d="M399.7,823.7l-0.7,5.4l-2.2,1.5l-4.4,1.1l-2.4-4.1l-0.9-7.4l2.4-8.5l3.5,3l2.4,3.7L399.7,823.7z"/>
<path class="MM" class="st0" d="M491.4,756.6l-3,2.4l-3.7,0.2l-2.4,5.9l-2.2,0.9l2.6,4.8l3.3,3.9l2,3.5l-1.8,4.6l-1.8,0.9l1.3,2.6
	l3.5,4.3l0.6,3v2.4l2,4.8l-2.8,5l-2.6,5.4l-0.6-3.9l1.7-4.1l-1.7-3.1l0.4-5.7l-2-2.8l-1.7-6.3l-0.9-6.8l-2.2-4.4l-3.3,2.8l-5.9,3.9
	l-3-0.6l-3.1-1.3l1.8-6.7l-1.1-5l-4.1-6.3l0.6-2l-3-0.7l-3.7-4.4l-0.4-4.4l1.8,0.9l0.2-3.9l2.6-1.3l-0.6-2.4l1.1-1.8l0.2-5.7
	l4.1,1.3l2.2-4.6l0.4-2.8l2.8-4.8l-0.2-3.3l6.7-4.1l3.7,1.1l-0.4-3.5l1.8-1.1l-0.4-2.2l3-0.4l1.7,3.5l2.2,1.5l0.2,4.4l-0.2,4.8
	l-4.8,4.8l-0.6,6.7l5.5-0.9l1.3,5.2l3.3,1.1l-1.5,4.6l3.9,2l2.2,1.1l3.7-1.7l0.2,2.2l-4.4,3.5l-1.1,2L491.4,756.6z"/>
<path class="MN" class="st0" d="M430.4,570.6l5.5-1.3l9.8-6.8l8-3.9l4.4,2.6l5.4,0.2l3.5,3.9l5.2,0.2l7.6,2l5-5.5l-2-4.8l5.4-8.7
	l5.7,3.5l4.6,0.9l6.1,2l0.9,6.1l7.4,3.3l4.8-1.5l6.5-1.1l5.2,1.1l5.2,3.9l3.1,4.1h4.8l6.5,1.3l4.8-2l6.8-1.3l7.6-5.7l3.1,0.9
	l2.8,2.8l6.1-0.7l-2.6,5.9l-3.7,7.8l1.3,3.1l3-0.9l5.2,1.1l4.1-2.8l4.1,2.4l4.6,5.4l-0.6,2.8l-4.1-0.9l-7.6,0.9l-3.7,2.2l-3.7,5
	l-8,2.8l-5.2,3.9l-5.4-1.5l-3-0.7l-2.8,4.6l1.7,2.8l0.9,2.4l-3.7,2.4l-3.7,3.9l-6.1,2.4l-7.8,0.2l-8.3,2.4l-6.1,3.7l-2.2-2.2h-6.3
	l-7.6-4.3l-5.2-1.1l-6.8,0.9l-10.7-1.7l-5.7,0.2l-3-4.3l-2.4-6.7l-3.1-0.7l-6.3-4.6l-7-0.9l-6.1-1.3l-1.8-3.1l2-8.7l-3.5-6.1l-7.4-3
	l-4.4-4.1L430.4,570.6z"/>
<path class="MY" class="st0" d="M499.2,830.6l0.4,2.6l3.3-0.6l1.7-2l1.1,0.6l3.1,3.1l2.2,3.5l0.4,3.5l-0.6,2l0.6,1.8l0.4,3l1.8,1.5
	l2,4.6v1.7l-3.7,0.4l-5-3.9l-6.1-4.1l-0.6-2.6l-3-3.5l-0.7-4.3l-1.8-2.8l0.6-3.7l-1.1-2.2l0.9-0.9L499.2,830.6z M589.6,839.3
	l-3.9,1.8l-4.4-0.9h-5.9l-1.8,5.9l-2,1.8l-2.6,7.2l-4.3,1.1l-5-1.5l-2.4,0.4l-3,2.6l-3.3-0.4l-3.3,1.1l-3.5-3l-0.9-3.5l3.7,1.8
	l4.1-0.9l1.1-4.4l2.2-0.9l6.3-1.1l3.7-4.1l2.6-3.3l2.4,2.8l1.1-1.8l2.4,0.2l0.4-3.3l0.2-2.6l4.1-3.7l2.6-4.1h2l2.6,2.6l0.2,2.2
	l3.3,1.5l4.3,1.5l-0.4,2l-3.5,0.2L589.6,839.3z"/>
<path class="NP" class="st0" d="M432.2,713.3l-0.4,2.4l0.7,3.7l-0.6,2.2h-4.3l-6.3-1.3l-4.1-0.6l-3-3l-7-0.7l-6.8-3.3l-4.8-3l-5-2.2
	l2-5.5l3.3-2.8l2.2-1.5l4.1,1.8l5.2,3.9l3,0.9l1.7,2.8l4.1,1.1l4.3,2.6l5.9,1.3L432.2,713.3z"/>
<path class="OM" class="st0" d="M281.2,751.6l-1.8,3.7l-2.4-0.4l-1.1,1.3l-0.9,2.8l0.6,3.7l-0.4,0.6h-2.4l-3.3,2l-0.6,2.6l-1.1,1.1
	h-3.1l-2,1.3v2.2l-2.6,1.5l-2.8-0.6l-3.5,1.8l-2.4,0.4l-1.7-3.7l-4.1-8.9l15.5-5.5l3.5-11.1l-2.4-3.9l0.2-2.2l1.5-2.4v-2.2l2.4-1.1
	l-0.9-0.7l0.4-3.7h2.6l2.4,3.9l3,2l3.9,0.7l3.1,0.9l2.4,3.1l1.5,1.8l1.8,0.7v1.3l-1.8,3.3l-0.9,1.5L281.2,751.6z M268.6,724.6
	l-0.7,1.1l-0.9-2l1.5-2l0.6,0.6L268.6,724.6z"/>
<path class="PH" class="st0" d="M629.7,819.1l0.6,3.5l0.4,3l-1.8,4.8l-1.8-5.4l-2.4,2.6l1.7,3.9l-1.5,2.4l-6.1-3l-1.5-3.7l1.7-2.4
	l-3.3-2.4l-1.7,2.2l-2.4-0.2l-3.9,3l-0.9-1.5l2-4.4l3.3-1.5l2.8-2l1.8,2.4l3.9-1.5l0.9-2.4l3.7-0.2l-0.4-4.1l4.3,2.4l0.4,2.6
	L629.7,819.1z M617.5,809.3l-1.8,1.7l-1.7,3.3l-1.7,1.5l-3.1-3.7l1.1-1.5l1.3-1.5l0.6-3.3l2.8-0.4l-0.9,3.5l3.9-5L617.5,809.3z
	 M589,814.3l-6.8,5l2.6-3.7l3.7-3.1l3.1-3.7l2.8-5.2l0.9,4.3l-3.3,3L589,814.3z M606.6,800.8l3.1,1.7h3.3v2.2l-2.4,2.2l-3.3,1.7
	l-0.2-2.4l0.4-2.8L606.6,800.8z M625.1,799.3l1.5,5.9l-4.1-1.5l0.2,1.8l1.3,3.3l-2.4,1.1l-0.2-3.7l-1.5-0.2l-0.7-3.1l3.1,0.4v-2
	l-3.1-4.1l5,0.2L625.1,799.3z M604.8,794.7l-1.3,4.6l-2.2-2.6l-2.6-3.9l4.4,0.2L604.8,794.7z M603.6,765.7l3.1,1.5l1.7-1.5l0.4,1.5
	l-0.9,2.2l1.8,3.9l-1.3,4.4l-3.1,1.8l-0.7,4.3l1.1,4.3l2.8,0.6l2.2-0.6l6.5,3l-0.6,3l1.7,1.3l-0.6,2.4l-4.1-2.6l-1.8-2.8l-1.3,1.8
	l-3.3-3.1l-4.6,0.7l-2.6-1.1l0.2-2.2l1.7-1.3l-1.5-1.3l-0.7,1.8l-2.6-3l-0.7-2.4l-0.2-5.2l2,1.8l0.6-8.3l1.7-5L603.6,765.7z"/>
<path class="PK" class="st0" d="M365.5,656.9l3.9,3l1.5,5l8.5,2.6l-5,5.4l-5.7,0.9l-8-1.5l-2.6,2.8l1.8,5.5l1.8,4.1l4.3,3l-4.4,3.5v4.3
	l-5,5.9l-3.3,6.1l-5.4,6.1l-6.1-0.4l-5.7,5.7l3.3,2.6l0.6,4.4l3,3l1.1,4.8h-11.5l-3.5,3.7l-3.7-1.5l-1.5-4.1l-4.1-4.3l-9.6,1.1
	l-8.5,0.2l-7.4,0.7l2-6.7l7.4-3l-0.4-2.6l-2.4-0.9l-0.2-5.2l-5-2.6l-2-3.5l-2.6-3.1l8.7,3l5.2-0.9l3.1,0.7l1.1-1.3l3.7,0.6l6.8-2.4
	l0.2-5.2l3-3.3h3.9l0.6-1.7l3.9-0.7l1.8,0.6l2-1.7L335,686l2.2-3.7l3.3-1.7l-2-4.1l5,0.2l1.5-2.2l-0.2-2.4l2.6-2.6l-0.6-3.1
	l-1.3-2.8l3-2.8l5.5-1.3l5.9-0.7l2.6-1.1L365.5,656.9z"/>
<path class="PS" class="st0" d="M160.8,686.5v3.7l-0.7,1.8l-2.4,0.9l0.2-1.7l1.3-0.9l-1.3-0.7l1.1-4.1L160.8,686.5z"/>
<path class="QA" class="st0" d="M239.6,731.3l-0.4-4.1l1.5-3l1.5-0.6l1.7,1.8v3.3l-1.1,3.3l-1.5,0.4L239.6,731.3z"/>
<path class="RU" class="st0" d="M958.9,406.6l-5.2,5.5l-8.5,1.3l-0.2,12l-2,2.6l-4.8-0.4l-3.9-4.3l-6.8-3.5l-1.1-5.4l-5.2-2l-5.9,1.7
	l-2.8-4.4l1.1-4.8l-6.3,3l2.4,5.9l-3,5.2l0,0l-6.7,5.4l-6.7-0.9l4.6,6.3l3.1,9.6l2.4,3.1l0.6,4.6l-1.3,3l-9.6-2.4l-14.4,8.3
	l-4.6,1.3l-8,7.6l-7.6,6.5l-1.8,4.8l-7.4-7.2l-13.5,8.1l-2.4-3.9l-5,4.4l-7-1.5l-1.7,6.7l-6.3,9.6l0.2,3.9l5.9,2.2l-0.7,13.9
	l-4.8,0.4l-2.2,7.6l2.2,3.9l-9.1,4.6l-1.8,10l-7.8,2l-1.5,8.7l-7.4,7.8l-1.8-5.7l-2.2-12.4l-3-19.6l2.4-12.9l4.4-5.7l0.4-4.4
	l8.1-2.2l9.2-12.6l8.9-10.5l9.2-8.5l4.1-15.5L820,448l-3.1,9.1l-13.1,11.8l-4.3-13.1l-13.3,3.7l-12.9,17.8l4.3,6.3l-11.6,2.6l-8,1.1
	l0.4-7.2l-8.1-1.5l-6.5,5l-15.9-1.7l-17.2,2.8l-16.8,19l-20,21.6l8.1,1.1l2.6,5.5l5,1.8l3.3-4.4l5.7,0.6l7.4,9.6l0.2,7.2L702,555
	l-0.4,9.8l-2.4,12.8l-7.8,11.1l-1.7,5.2l-7,8.9l-7,8.3l-3.3,4.3l-6.8,4.1h-2.2l-3.3-3.5l-7,5.2l-0.7,2.4l-0.7-1.3v-3.5l2.6-0.2
	l0.7-8.3l-1.3-6.3l4.4-2.6l6.3,1.3l3.5-7.2l1.8-8.3l2-2.8l2.8-7l-8.5,2.2l-4.4,3h-8l-2-7.4l-6.1-5.5l-9.1-2.6l-1.8-8l-1.8-5
	l-1.8-3.5l-3.1-8.5l-4.6-3.1l-7.8-2.6l-6.8,0.2l-6.5,1.5l-4.3,4.3l2.8,2v4.6l-3,2.8l-4.6,8.7v3.5l-7.4,5l-6.3-3l-6.1,0.7l-2.8-2.8
	l-3.1-0.9l-7.6,5.7l-6.8,1.3l-4.8,2l-6.5-1.3h-4.8l-3.1-4.1l-5.2-3.9l-5.2-1.1l-6.5,1.1l-5,1.5l-7.4-3.3l-0.9-6.1l-6.1-2l-4.6-0.9
	l-5.7-3.5l-5.4,8.7l2,4.8l-5,5.5l-7.4-2l-5.2-0.4l-3.5-3.7l-5.4-0.2l-4.4-2.6l-8,3.9l-9.8,6.8l-5.5,1.3l-2,0.7l-2.8-4.8l-6.7,1.1
	l-2.2-3.3l-3.7-1.7l-2.4-4.6l-2.8-1.5l-7.4,2l-7.2-4.8l-2.8,4.3l-11.6-21.3l-6.7-6.8l1.8-2.8l-12.9,8.3l-5,0.6l0.4-4.8l-6.7-3
	l-5.4,2.2l-1.7-9.2l-9.2-2l-4.6,3.7L315,526l-2.6,2.2l-19.4,3.1l-2.4,3l3.7,5.9l-5,2.2l0.9,2.2l-5,4.1l8.3,5.7l-1.3,3.9L285,558
	l-1.5,2.4l-6.7-4.3l-8.3,0.2l-5.5,3.5l-6.1-3.3l-11.5-5.7l-8.1,0.2l-10.7,9.1l-0.6,5.9l-5.4-4.6l-4.1,8.9l1.5,1.7l-3,5.9l4.4,5.2
	l3.9-0.2l3.3,5.2l-0.6,3.9l2.6,1.3l-2.4,4.4l-5,1.3l-5.2,7.6l4.6,6.8l-0.6,4.8l5.7,8.3l-3.1,2.8L222,631l-2.2-0.4l-3.5-4.3l-1.5-0.2
	l-3.3-1.7l-1.7-2.8l-4.8-1.5l-3.1,1.1l-0.9-1.3l-7-3.3l-7.6-1.1l-4.4-1.3l-0.6,0.9l-6.7-6.1l-5.9-2.8l-4.4-4.3l3.7-1.1l4.3-6.3l-3-3
	l7.6-3.1l-0.2-1.7l-4.6,1.3l0.2-3.3l2.8-2.2l5-0.6l0.7-2.6l-1.1-4.3l2-4.1v-2.4l-7.6-2.6h-0.7l-3.1-3.7l-4.1,1.3l-6.7-2.8l0.2-1.7
	l-1.8-3.5l-4.1-0.4l-0.4-2.6l1.3-1.7l-3.3-4.8l-5.4,0.7l-1.5-0.4l-1.3,1.8l-1.8-0.4l-1.3-5.4l-1.3-3l0.9-0.7l4.3,0.4l2-1.8l-1.5-2.2
	l-3.5-1.5l0.4-1.7l-2-1.7l-3.3-5.7l1.1-2.4l-0.6-4.3l-5-2.2l-2.8,1.1l-0.7-2.2l-5.5-2.4l-1.7-5.5l-0.4-4.6l-2.4-2.2l2.2-3.1
	l-1.5-9.2l3.7-5.7l-0.7-1.8l5.9-5.7l-5.4-5l11.1-13.7l4.8-6.3l1.8-5.7l-7.8-8l2.2-7.6l-4.6-9.1l3.5-10.7l-6.1-14.8l4.8-10.2l-8-9.2
	l0.7-10l4.3-1.3l8.9-5.9l5.4-5.2l8.5,9.1l14.2,3.5l19.6,15.9l4.1,6.5l0.4,8.9l-5.7,6.8l-8.5,3.5l-22.9-9.8l-3.9,1.7l8.5,9.4l0.4,5.7
	l0.4,12.6l6.7,3.7l4.1,3.1l0.7-5.7l-3.1-5.2l3.3-4.6l12.6,7.6l4.4-3l-3.5-9.1l12-12.4l4.8,0.7l4.8,4.4l3-8.9l-4.3-8l2.6-8.1
	l-3.9-8.7l14.4,4.4l3,7.8l-6.5,1.7v7.4l4.1,4.4l8-2.8l1.3-8.5l10.9-6.5l18.1-12l3.9,0.7l-5.2,8.5l6.5,1.5l3.7-4.8l9.6-0.4l7.8-5.9
	l5.9,8.5l5.9-9.4l-5.4-8.5l2.8-5l15.3,4.4l7.2,4.6l18.9,16.3l3.5-7.4l-5.2-7.6l-0.2-3.1l-6.3-1.5l1.7-7l-2.8-12l-0.2-5l9.6-14.8
	l3.3-15.5l3.9-3.5l13.7,4.6l1.1,9.6l-5.9,13.7l3.1,5.2l1.7,10.9l-1.1,20.5l5.7,8.7l-2.2,9.2l-10.2,18.9l5.9,1.8l2-4.6l5.7-3.3
	l1.3-6.7l4.4-6.5l-3-8l2.4-9.4l-5.7-1.1l-1.3-8.1l4.1-15.3l-6.7-12.9l9.2-11.1l-1.3-12.2l2.6-0.4l2.8,9.6l-2,16.1l5.5,3l-2.4-11.8
	l8.7-6.7l10.7-0.9l9.6,9.6l-4.6-14.1l-0.6-19l9.1-3.7l12.4,0.7l11.3-2.4l-4.3-10l5.9-12.9l5.9-0.6l10.2-10.2l13.7-2.8l1.7-5.9
	l13.7-2l4.3,4.8l11.6-11.5l9.6,0.4l1.5-9.6l5-9.8l12.2-9.8l8.9,7.8l-7,5.7l11.6,3.5l1.5,11.1l4.8-5.4l15.2,0.4l11.6,10.7l4.1,8.1
	l-1.3,10.9l-5.7,5.9l-13.7,10.9l-3.9,5.7l6.5,2.6l7.8,4.8l4.6-3.5l2.6,11.8l2.2-4.8l8.3-3l16.6,3l1.3,8.5l21.4,2.6l0.4-13.9
	l11.1,3.1l8.3-0.2l8.3,9.4l2.4,11.1l-3.1,7l6.5,12.9l8.1,6.5l5-17l8.3,7.4l8.9-4.4l10,5l3.9-4.6l8.5,2.2l-3.7-15.5l6.8-7.6L751,315
	l4.4,10l13.5,12.2l20.9-3l10.4,2.6l4.3,6.5l-0.6,11.1l6.5,4.3l7-3l9.2-0.4l9.8,3l9.8-1.7l9.1,12.9l6.5-4.6l-4.3-9.4l2.2-6.7
	l16.6,4.3l10.7-0.9l15,7l7.2,6.3l12.8,10.9l13.5,13.5l-0.4,8.1l3.5,3.1l-1.3-9.4l14.1,2L958.9,406.6z M724,573l-5.2-14.2l-2.2-8.3
	l0.2-8.3l-1.8-8.3l-1.3-5.7l-2.2,1.3l2,4.1l-4.8,4.1l-0.4,11.6l3,8.1l-0.2,10.9l-1.3,5.9l0.6,8.3l-0.6,7.4l0.9,6.3l3.3-5.7l3.9,4.4
	l0.2-5.2l-4.8-7.8l3.1-11.3L724,573z M92.5,522.5l-5.4-1.7l-7.2,3l-1.1,3.9l6.5,0.9l9.6-0.2l-0.4-2.2l0.6-2.4L92.5,522.5z
	 M906.7,338l6.8-0.9l5.4-3.9l0.4-2.2l-7.6-4.6h-4.4l-0.7,0.7l-6.7,6.7l0.9,5L906.7,338z M704.4,288.2l-5,7.2l0.9,0.9l10.7,2l7.8-0.2
	l-0.6-4.8l-7.4-7L704.4,288.2z M749.4,270.7l5.9-7.8l-12.9-5.4l-9.6-3.1l-1.3,6.7l9.6,8L749.4,270.7z M703.3,267.5l19,0.6l4.1-15
	l-18.7-11.3l-13.7-0.9l-6.8,4.1l-2.8,14.4l10.2,12.9L703.3,267.5z M248.2,315.4l-5.4,3.7l0.7,8.9l9.4,4.4l1.3,7l17,2l3.1-1.3
	l-10-13.1l-1.1-13.9l8.1-16.8l7.8-18.1l16.1-18.9l15.9-9.8l18.3-10.5l3.5-6.8l-3.7-8.9l-10.2,3l-8.9,8.3l-17.2,4.1L276,252.3
	l-11.6,10.9l1.5,9.1L253.4,289l4.8,2.2l-10.4,15.3L248.2,315.4z M519.9,190.2l1.5-10.5l-13.1-15.3l-3.9-1.8l-4.3,3.1l-9.4,34.2
	L519.9,190.2z M217.4,136.2l5.5,7.2l6.1-5l0.7-5l4.6-2.4l7-4.1l2-4.8l-7.8-7l-4.8,5.4l-3,7.6l-1.1-8.7l-8,0.4l-10.2,5.7l11.5,0.9
	L217.4,136.2z M459,160.3l8.7,10.5l14.4,7.8l11.3-3.3l1.3-25l-12-29.4l-10.2-16.6l-11.3,7.6l-13.5,21.6l7,6.1L459,160.3z"/>
<path class="SA" class="st0" d="M198.1,777.3l-0.7-2.2l-1.7-1.7l-0.4-2.2l-2.6-1.8l-2.8-4.6l-1.5-4.4l-3.5-3.7l-2.2-0.9l-3.5-5.4
	l-0.4-3.7l0.2-3.3l-3-6.3l-2.4-2.2l-2.8-1.1l-1.7-3.3l0.4-1.3l-1.5-3l-1.5-1.3l-2-4.3l-3.1-4.6l-2.6-4.1h-2.6l0.7-3.1l0.2-2l0.6-2.4
	l5.7,0.9l2.2-1.8l1.3-2.2l3.9-0.7l0.9-2l1.7-0.9l-5.2-6.1l10.4-3l0.9-0.9l6.3,1.7l7.8,4.3l14.6,12l9.6,0.6l4.6,0.6l1.3,2.8l3.7-0.2
	l2,5l2.6,1.3l0.9,2l3.5,2.4l0.4,2.4l-0.6,1.8l0.7,1.8l1.5,1.7l0.7,1.8l0.7,1.5l1.5,1.1l1.5-0.4l0.9,2.2l0.2,1.3l2,5.7l15.5,2.8
	l1.1-1.1l2.4,3.9l-3.5,11.1l-15.5,5.5l-15,2l-4.8,2.4l-3.7,5.7l-2.4,0.9l-1.3-1.8l-2,0.4l-5-0.6l-1.1-0.6l-5.9,0.2l-1.5,0.6l-2-1.5
	l-1.5,2.6l0.6,2.2L198.1,777.3z"/>
<path class="SY" class="st0" d="M177.6,680.4l-10.2,6.5l-5.7-2.4h-0.2l0.7-0.9V681l1.3-3.3l2.8-2.4l-0.9-2.4l-2.4-0.4l-0.6-4.8l1.3-2.6
	l1.5-1.5l1.5-1.5l0.4-3.5l1.7,1.3l5.7-1.8l2.8,1.1h4.3l5.9-2.4l2.8,0.2l5.9-0.9l-2.6,4.1l-2.8,1.7l0.6,4.6l-2,7.6L177.6,680.4z"/>
<path class="TH" class="st0" d="M506.9,799.3l-4.6-2.4l-4.4,0.2l0.7-4.1H494l-0.4,5.7l-2.8,7.6l-1.7,4.6l0.4,3.9l3.3,0.2l2,4.8l0.9,4.4
	l3,3l3.1,0.6l2.8,2.6l-1.7,2.2l-3.5,0.6l-0.4-2.6l-4.3-2.2l-0.9,0.9l-2-2l-0.9-2.6l-2.8-3l-2.6-2.4l-0.9,3l-0.9-3l0.6-3.3l1.5-5
	l2.6-5.4l2.8-5l-2-4.8v-2.4l-0.6-3l-3.5-4.3l-1.3-2.6l1.8-0.9l1.8-4.6l-2-3.5l-3.3-3.9l-2.6-4.8l2.2-0.9l2.4-5.9l3.7-0.2l3-2.4
	l3-1.3l2.2,1.7l0.4,3.3l3.5,0.2l-1.3,5.7l0.2,4.8l5.5-3.1l1.5,0.9l3-0.2l1.1-1.8l3.9,0.4l3.9,4.4l0.4,5.4l4.3,4.6l-0.2,4.4l-1.7,2.4
	l-4.8-0.7l-6.7,1.1l-3.3,4.4L506.9,799.3z"/>
<path class="TJ" class="st0" d="M344,636.2l-1.8,2l-5.7-1.1l-0.6,3.9l5.5-0.6l6.5,2.2l9.8-1.1l1.3,6.1l1.7-0.7l3.1,1.5l-0.2,2.6
	l0.7,3.7H359l-3.5-0.6l-3.1,3l-2.2,0.6l-1.8,1.3l-2-2.2l0.6-5.4l-1.5-0.4l0.6-2l-2.8-1.5l-2.2,2.2l-0.6,2.6l-0.7,0.9l-3.1-0.2
	l-1.7,3l-1.8-1.3l-3.7,2l-1.5-0.7l3-6.7l-1.1-5l-3.9-1.7l1.3-3l4.3,0.4l2.4-3.7l1.7-4.4l7-1.7l-1.1,3.1l0.7,1.8L344,636.2z"/>
<path class="TL" class="st0" d="M622.5,908l0.6-1.3l4.4-1.1l3.7-0.2l1.7-0.6l2,0.6l-1.8,1.5l-5.4,2.2l-4.4,1.5V909L622.5,908z"/>
<path class="TM" class="st0" d="M293.4,666.4L293,661l-3.9-0.2l-5.9-5.7l-4.1-0.7l-5.7-3.3l-3.7-0.6l-2.2,1.3l-3.5-0.2l-3.7,3.7
	l-4.6,1.3l-0.9-4.6l0.7-6.8l-4.1-2.2l1.3-4.6l-3.5-0.4l1.1-5.7l4.8,1.7l4.6-2.2l-3.7-4.1l-1.5-3.9l-4.3,1.8l-0.6,5l-1.7-4.4l2.2-2.2
	l5.9-1.5l3.5,2l3.7,5.4l2.6-0.4l5.9-0.2l-0.9-3.5l4.4-2.4l4.4-4.1l7,3.7l0.6,5.5l2,1.5l5.5-0.4l1.7,1.3l2.6,7l5.9,4.6l3.3,3.1
	l5.4,3.3l6.8,2.8l-0.2,4.1l-1.5-0.2l-2.4-1.7l-0.7,2.2l-4.4,1.3l-1.1,5.2l-3,2l-4.1,0.9l-1.1,2.8l-3.9,0.9L293.4,666.4z"/>
<path class="TR" class="st0" d="M168,628.8l7.4,2.6l6.1-1.1l4.4,0.6l6.1-3.5l5.5-0.4l5,3.3l0.9,2.4l-0.6,3.3l3.9,1.7l2,2l-3.5,1.8
	l1.7,7.6l-0.9,2l2.8,5.2l-2.4,1.1l-1.8-1.7l-6.1-0.9l-2.2,0.9l-5.9,0.9l-2.8-0.2l-5.9,2.4h-4.3l-2.8-1.3l-5.7,1.8l-1.7-1.3l-0.4,3.5
	l-1.5,1.5l-1.5,1.5l-1.8-3l2-2.4l-3.1,0.6l-4.3-1.5l-3.5,3.7l-8,0.7l-4.3-3.5l-5.5-0.2l-1.3,2.6l-3.5,0.7l-5-3.5l-5.7,0.2l-3.1-6.5
	l-3.7-3.7l2.6-5.2l-3.3-3.1l5.7-6.5l8-0.2l2.2-5.2l9.8,0.9l6.3-4.4l6.1-2l8.5-0.2L168,628.8z M117.7,633.3l-4.3,3.7l-1.7-3.1v-1.5
	l1.3-0.7l1.7-4.3l-2.6-1.8l5.4-2.2l4.4,0.9l0.6,2.6l4.6,2.2l-0.9,1.7l-6.1,0.4L117.7,633.3z"/>
<path class="TW" class="st0" d="M606.1,733.3l-3.1,9.1l-2.2,4.6l-2.8-4.6l-0.6-4.1l3-5.5l4.1-4.3l2.4,1.7L606.1,733.3z"/>
<path class="UZ" class="st0" d="M320.9,655.5l0.2-4.1l-6.8-2.8l-5.4-3.3l-3.3-3.1l-5.9-4.6l-2.6-7l-1.7-1.3l-5.5,0.4l-2-1.5l-0.6-5.5
	l-7-3.7l-4.4,4.1l-4.4,2.4l0.9,3.5l-5.9,0.2l-0.2-25.9l13.3-4.4l0.9,0.7l8,5.2l4.3,2.8l5,6.5l6.1-1.1l8.9-0.6l6.3,5.2l-0.4,7h2.6
	l1.1,5.7l6.7,0.2l1.5,3.3h1.8l2.2-4.8l6.8-4.8l3-1.3l1.5,0.7l-4.3,4.4l3.9,2.6l3.7-1.7l6.1,3.7l-6.7,4.8l-3.9-0.7l-2.2,0.2l-0.7-1.8
	l1.1-3.1l-7,1.7l-1.7,4.4l-2.4,3.7l-4.3-0.4l-1.3,3l3.9,1.7l1.1,5l-3,6.7l-3.9-1.3L320.9,655.5z"/>
<path class="VN" class="st0" d="M535.2,749.2l-6.8,4.8l-4.3,5.2l-1.1,3.9l3.9,5.7l4.8,7l4.6,3.3l3.1,4.3l2.4,9.8l-0.7,9.2l-4.3,3.5
	l-5.9,3.3l-4.3,4.4l-6.5,4.8l-1.8-3.3l1.5-3.5l-3.9-3l4.4-2l5.4-0.4l-2.2-3.1l8.7-4.1l0.6-6.3l-1.1-3.5l0.9-5.4l-1.3-3.7l-3.9-3.7
	l-3.3-4.8l-4.3-6.5l-6.3-3.3l1.5-2l3.3-1.5l-2-4.8h-6.5l-2.4-5l-3-4.4l2.8-1.3h4.1l5-0.7l4.4-3l2.4,2l4.8,1.1l-0.9,3.1l2.4,2.2
	L535.2,749.2z"/>
<path class="YE" class="st0" d="M251.6,775.7l-3.7,1.5l-0.9,2.4l-0.2,1.8l-5.2,2.2l-8.3,2.6l-4.6,3.7l-2.2,0.4l-1.5-0.4l-3,2.2
	l-3.3,0.9l-4.3,0.2l-1.3,0.4l-1.1,1.5l-1.3,0.4l-0.7,1.3l-2.6-0.2l-1.7,0.7l-3.5-0.2l-1.3-3.1l0.2-3l-0.9-1.7l-0.9-3.9l-1.5-2.2
	l1.1-0.2l-1.3-2.4l0.6-1.1l-0.2-2.4l2.2-1.7l-0.6-2.2l1.5-2.6l2,1.5l1.5-0.6l5.9-0.2l0.9,0.6l5,0.6l2-0.4l1.3,1.8l2.4-0.9l3.7-5.7
	l4.8-2.4l15-2l4.1,8.9L251.6,775.7z"/>
</svg>
