<?xml version="1.0" encoding="utf-8"?>
<!-- Generator: Adobe Illustrator 20.1.0, SVG Export Plug-In . SVG Version: 6.00 Build 0)  -->
<svg version="1.1" id="Layer_1" xmlns="http://www.w3.org/2000/svg" xmlns:xlink="http://www.w3.org/1999/xlink" x="0px" y="0px"
	 viewBox="0 0 1024 1024" style="enable-background:new 0 0 1024 1024;" xml:space="preserve">
<style type="text/css">
	.st0{fill:#424242;stroke:#FFFFFF;stroke-width:0.5;}
</style>
<path class="AL" class="st0" d="M657.6,825.6l-1.5,6.3l2,7.8l5.9,4.4l-0.5,4.9l-4.4,2.4l-1,5.9l-6.3,8.8l-2.4-1l-0.5-3.9l-7.8-5.9
	l-1-8.8l1-12.2l2-5.9l-2.4-2.9l-1-5.9l5.9-9.3l1,3.4l3.9-1.5l2.9,4.9l3.4,2L657.6,825.6z"/>
<path class="AT" class="st0" d="M608.8,705.6l-1,8.3H600l2.4,4.4L598,731l-2.4,3.4l-12.2,0.5l-6.8,4.4l-11.2-1.5l-19.5-5.4l-2.9-6.8
	l-13.7,3.4l-1.5,3.9l-8.3-2.9l-6.8-0.5l-6.3-3.4l2-4.9l-0.5-3.4l4.4-1l6.8,5.4l2-5.4l12.2,1l9.8-3.4l6.3,0.5l4.4,3.9l1.5-3.4
	l-2-13.2l4.9-2.4l4.9-9.3l10.2,6.8l7.8-8.3l4.9-1.5l10.7,6.3l6.3-1l6.3,3.9l-1,2.4L608.8,705.6z"/>
<path class="BA" class="st0" d="M635.6,769.5h4.9l-3.4,8.3l6.8,7.3l-2,8.8l-3.4,1l-2.4,2l-4.4,4.4l-2,10.2l-12.2-6.8l-5.4-7.8l-5.4-3.9
	l-6.3-7.3l-2.9-5.9l-6.8-8.8l2.9-7.8l4.9,4.4l2.9-3.9l6.3-0.5l11.7,3.4l9.3-0.5L635.6,769.5z"/>
<path class="BE" class="st0" d="M421.9,637.3l10.2,2l12.7-4.4l8.8,9.8l7.3,4.9l-1.5,14.6l-3.4,1l-1.5,11.7l-12.2-9.8l-6.8,1.5
	l-9.8-10.2l-6.3-8.8l-6.3-0.5l-2-7.8L421.9,637.3z"/>
<path class="BG" class="st0" d="M685.9,781.7l3.9,7.8l5.4-1.5l10.7,2.9l20,1l6.8-4.9l16.1-4.4l9.8,6.8l8.3,2l-7.3,7.8l-4.9,13.2
	l4.4,10.7l-11.7-2.4l-14.1,5.9v9.3l-12.2,2l-9.8-6.3l-10.7,4.9l-10.2-0.5l-1-12.2l-6.8-5.9l2.4-2.4l-1.5-2l2.4-5.9l5.4-5.9l-6.8-8.3
	l-1-6.8L685.9,781.7z"/>
<path class="BY" class="st0" d="M697.1,580.2h13.2l14.6-8.8l3.4-13.2l11.2-7.8l-1.5-10.7l8.3-3.9l14.6-9.3l14.6,6.3l2,5.9l7.3-2.9
	l13.2,5.9l1.5,11.2l-2.9,6.3l8.8,15.1l5.4,4.4l-1,4.4l9.3,3.9l3.9,5.9l-5.4,4.9l-11.2-1l-2.4,2.4l3.4,7.3l3.4,14.1l-11.7,1.5
	l-4.4,4.9l-1,11.2l-5.4-2l-12.2,1l-3.4-4.9l-4.9,3.9l-4.9-2.9l-10.7-0.5l-15.1-5.4l-13.7-2l-10.7,0.5l-7.3,5.9l-6.3,1v-9.8
	l-4.4-10.2l8.3-4.4v-9.3l-3.9-8.8L697.1,580.2z"/>
<path class="CH" class="st0" d="M507.3,716.8l0.5,3.4l-2,4.9l6.3,3.4l6.8,0.5l-1,8.3l-5.9,3.4l-10.2-2.4l-2.9,7.8l-6.3,0.5l-2.4-2.9
	l-7.8,6.8l-6.8,1l-5.9-4.4l-4.9-8.8l-6.3,2.9v-8.8l10.2-11.2l-0.5-5.4l6.3,2l3.9-3.4h11.7l2.9-4.4L507.3,716.8z"/>
<path class="CZ" class="st0" d="M608.3,695.8l-6.3-3.9l-6.3,1l-10.7-6.3L580,688l-7.8,8.3l-10.2-6.8l-7.8-8.8l-6.8-4.9l-1.5-8.8
	l-2.4-6.3l9.8-4.4l4.9-5.4l9.8-4.4l3.4-3.9l3.4,2.4l5.9-2.4l6.3,6.8l10.2,2l-1,5.9l7.3,4.4l2-5.4l9.3,2.4l1.5,6.8l10.2,1.5l6.3,10.2
	h-3.9l-2,3.9l-2.9,1l-1,4.9l-2.4,1l-0.5,2l-4.9,2l-5.9-0.5L608.3,695.8z"/>
<path class="DE" class="st0" d="M512.2,554.8v9.3l13.7,5.4v8.3l14.1-4.4l7.8-6.3l15.6,9.3l6.3,7.3l3.4,11.7l-3.9,5.9l4.9,7.8l3.4,11.7
	l-1,7.8l5.4,14.1l-5.9,2.4l-3.4-2.4l-3.4,3.9l-9.8,4.4l-4.9,5.4l-9.8,4.4l2.4,6.3l1.5,8.8l6.8,4.9l7.8,8.8l-4.9,9.3l-4.9,2.4l2,13.2
	l-1.5,3.4l-4.4-3.9l-6.3-0.5l-9.8,3.4l-12.2-1l-2,5.4l-6.8-5.4l-4.4,1l-14.6-6.3l-2.9,4.4h-11.2l2-14.6l6.8-14.1l-19.5-3.9l-6.3-5.4
	l1-9.3l-2.9-4.9l1.5-14.6l-2.4-22.9h8.3l3.4-8.3l3.4-20.5l-2.4-7.8l2.9-4.9l11.2-1.5l2.4,4.9l9.3-11.2l-2.9-8.8l-0.5-13.7l10.2,2.9
	L512.2,554.8z"/>
<path class="DK" class="st0" d="M549.7,539.7l-8.3,19.5l-14.1-13.7l-2-9.8l20-8.3L549.7,539.7z M525.8,519.2l-3.4,9.3l-3.9-2.4
	l-9.8,17.6l3.9,11.7l-8.8,3.4l-10.2-2.9l-5.4-13.2l-0.5-24.9l2.4-6.8l3.9-7.3l12.2-1.5l4.9-6.8l11.2-7.3l-0.5,13.2l-3.9,8.3l1.5,6.8
	L525.8,519.2z"/>
<path class="EE" class="st0" d="M708.3,486l1.5-15.1l-4.9,3.4l-8.8-9.3l-1-15.1l17.1-7.3l17.1-3.9l14.6,4.4l14.1-1l2,4.9l-9.8,15.1
	l3.9,24.4l-5.9,8.3h-11.2l-11.7-9.3l-5.9-2.9L708.3,486z"/>
<path class="ES" class="st0" d="M254.1,825.1l0.5-13.2l-5.4-8.3l19.5-13.7l16.6,3.4h18.5l14.6,3.4l11.2-1l22,0.5l5.4,7.3l25.4,8.3
	l4.9-3.9l15.6,8.3l15.6-2.4l0.5,10.7l-13.2,12.2l-17.6,3.9l-1,5.9l-8.3,9.8l-5.4,14.6l5.4,10.2l-7.8,7.8l-2.9,11.2l-10.2,3.4
	l-9.8,13.2l-17.6,0.5l-13.2-0.5l-8.8,5.9l-5.4,6.3l-6.8-1.5l-4.9-5.9l-3.9-9.8l-12.7-2.4l-1-5.9l4.9-6.3l2-4.9l-4.9-5.4l3.9-11.7
	l-5.4-10.7l5.9-1.5l0.5-8.3l2.4-2.4v-14.1l6.3-4.9l-3.9-9.3l-7.8-0.5l-2.4,2.4h-7.8l-3.4-8.8l-5.4,2.4L254.1,825.1z"/>
<path class="FI" class="st0" d="M766.4,138.2l-2,26.3l21,24.4l-12.7,26.8l16.1,39l-9.3,28.3l12.2,23.9l-5.9,20l20.5,21l-5.4,15.1
	l-12.7,16.6L759,415.8l-24.9,2L710.3,428l-22.4,5.9l-7.8-15.1l-13.2-9.3l2.9-27.8l-6.8-26.3l6.3-17.6l12.2-19l31.2-34.2l9.3-6.8
	l-1.5-13.7l-19-15.6l-4.4-13.2l-0.5-54.2l-21.5-24.9l-18.1-18.5l8.3-10.2l15.1,20l18.1-2l14.6,9.3l13.2-16.6l6.8-28.8l21.5-13.7
	l17.6,16.1L766.4,138.2z"/>
<path class="FR" class="st0" d="M507.3,820.2l-4.4,14.1l-6.3-3.9l-2.9-12.2l2.9-6.8l8.8-7.3L507.3,820.2z M425.8,658.3l9.8,10.2
	l6.8-1.5l12.2,9.8l2.9,2l3.9-0.5l6.3,5.4l19.5,3.9l-6.8,14.1l-2,14.6l-3.9,3.4l-6.3-2l0.5,4.9l-9.8,11.2v8.8l6.3-2.9l4.9,8.8
	l-0.5,5.4l3.9,7.3l-4.9,5.9l3.4,14.6l7.3,2.4l-1.5,8.3l-12.2,10.7l-26.8-4.9l-20,5.9l-1.5,11.2l-15.6,2.4l-15.1-8.3l-4.9,3.9
	l-25.4-8.3l-5.4-7.3l7.3-11.2l2.4-38.5l-14.1-21l-10.2-10.2l-21-7.8l-1.5-15.1l17.6-4.4l22.9,5.4l-4.4-23.4l12.7,9.3l31.7-16.6
	l3.9-17.6l12.2-4.4l2,7.8l6.3,0.5L425.8,658.3z"/>
<path class="GB" class="st0" d="M299.9,565.1l-7.3,16.1l-10.2-4.9l-8.3,0.5l2.9-12.7l-2.9-12.7l11.7-1L299.9,565.1z M336,464.1
	l-14.6,27.8l14.1-3.4h15.1l-3.4,20.5l-12.2,22l14.1,1.5l1,2.4l12.2,28.3l9.3,3.9l8.3,26.3l3.9,8.8l16.6,4.4l-1.5,14.1l-6.8,6.3
	l5.4,11.2l-12.2,11.2h-18.5l-23.4,5.9l-6.3-4.4l-9.3,10.2l-12.7-2.4l-9.8,8.3l-7.3-4.4l20-22.4l12.2-4.9l0,0l-21.5-3.9l-3.9-8.8
	l14.1-6.8l-7.3-12.2l2.4-15.1l20.5,2l0,0l2-13.2l-9.3-14.6v-0.5l-16.6-4.4l-3.4-6.3l4.9-10.7l-4.4-6.8l-7.3,11.2l-1-23.4l-6.8-12.7
	l4.9-26.3l10.7-21l10.7,2L336,464.1z"/>
<path class="GR" class="st0" d="M700,932.9l7.3,5.9l10.7-1l10.2,1l-0.5,2.9l7.3-2l-1.5,4.9l-19.5,1.5v-2.9l-16.6-3.4L700,932.9z
	 M739,831l-4.4,11.2l-3.4,2l-8.3-0.5l-7.3-2l-16.6,4.9l9.3,10.2l-6.8,2.9h-7.3l-7.3-9.3l-2.4,3.9l2.9,10.7l6.8,8.3l-5.4,3.9l7.8,7.8
	l6.8,4.9v9.8l-6.8-5.4l-4.9,1l3.9,8.8l-3.9,1l-4.9-3.4l5.9,19.5h-2.9l-2.4-5.9h-2.9l-1.5,6.3l-2.4-1.5l0.5-3.4l-2.9-4.9h-2.9
	l0.5,3.9l-1,1.5l-2.9-2.4l-2-4.9l2.4-2.9l-2-3.4l-2-2l-1-1.5l-2.4-4.4l2.9-2.4l2-2.4l2.9,0.5l1-2l2.9-1l3.4,2.4l2.4,1l2-2.9
	l-4.4-0.5l-2.9-1l-5.9,1.5h-5.9l-5.4-7.8l-1-1l1-2.9l-6.8-5.4l-1-4.9l6.3-8.8l1-5.9l4.4-2.4l0.5-4.9l8.8-1.5l5.4-3.9l7.3,0.5
	l2.4-2.9l2.4-0.5l10.2,0.5l10.7-4.9l9.8,6.3l12.2-2v-9.3L739,831z"/>
<path class="HR" class="st0" d="M633.2,749l3.4,7.8l4.4,5.4l-5.4,7.3l-6.3-4.4l-9.3,0.5l-11.7-3.4l-6.3,0.5l-2.9,3.9l-4.9-4.4l-2.4,7.8
	l6.8,8.8l2.9,5.9l6.3,7.3l5.4,3.9l5.4,7.8l12.2,6.8l-1.5,2.9l-12.7-6.8l-7.8-6.8l-12.7-5.4l-11.7-14.1l2.9-1.5L581,771l-0.5-6.3
	l-8.8-2.9l-4.4,8.3l-3.9-6.3l0.5-6.8l0.5-0.5l9.3,0.5l2.4-3.4l4.9,2.9l5.4,0.5v-5.4l4.9-2l1.5-7.8l10.7-5.4l4.4,2.4l10.2,8.3
	l11.2,3.9L633.2,749z"/>
<path class="HU" class="st0" d="M598,730.5l4.4-12.7l-2.4-4.4h7.8l1-8.3l6.8,5.4l4.9,2.4l11.7-2.4l1-3.9l5.4-0.5l6.8-2.9l1.5,1.5
	l6.3-2.4l3.4-4.9l4.4-1l14.6,6.3l2.9-2l7.3,5.4l1,5.4l-8.3,4.4l-6.3,13.7l-8.3,13.7l-10.7,1.5l-8.8-1l-10.7,4.9l-4.9,2.9l-11.2-3.9
	l-10.2-8.3l-4.4-2.4l-2.4-6.8L598,730.5z"/>
<path class="IE" class="st0" d="M292.6,581.2l2.4,16.6l-10.2,20l-24.4,13.2l-19.5-3.4l11.2-23.4l-7.3-23.4l18.5-18.5l10.2-11.2
	l2.9,12.7l-2.9,12.7l8.3-0.5L292.6,581.2z"/>
<path class="IS" class="st0" d="M179.4,231.8l-2.9,22l15.6,22.4l-17.6,24.4L135,322.1l-11.7,5.9l-18.1-4.4l-38.1-9.8l13.7-13.7
	l-29.8-15.6l24.4-6.3l-0.5-9.8l-28.8-7.8l9.3-22l20.5-4.9l21.5,22.9l21-18.5l17.1,9.8l22.4-18.1L179.4,231.8z"/>
<path class="IT" class="st0" d="M588.8,890l-4.9,13.7l2,5.4l-2.9,8.8l-10.2-6.3l-6.8-2l-19-8.8l2-8.8l16.1,1.5l14.1-2L588.8,890z
	 M502.9,837.3l8.3,12.7l-2,23.4l-6.3-1l-5.4,5.9l-5.4-4.9l-0.5-21.5l-2.9-10.2l7.3,1L502.9,837.3z M545.8,732.4l19.5,4.9l-1.5,9.8
	l3.4,8.3l-10.7-2.9l-11.2,6.8l1,9.8l-1.5,5.4l4.4,9.8l12.7,9.8l6.8,15.6l15.1,14.6h10.7l3.4,3.9l-3.9,3.4l12.2,6.8l10.2,5.4
	l11.7,9.3l1.5,3.4l-2.4,6.3l-7.8-8.3l-11.7-2.9l-5.9,11.7l9.8,6.3l-1.5,9.3l-5.9,1l-7.3,15.1l-5.9,1.5V891l2.9-9.3l2.9-3.9
	l-5.4-10.2l-4.4-8.8l-5.9-2.4l-3.9-7.8l-8.8-3.4l-5.9-7.3l-10.2-1l-10.7-8.3l-12.7-12.2l-9.3-10.7l-4.4-18.5l-6.8-2.4l-11.2-6.3
	l-6.3,2.4l-7.8,8.8l-5.9,1.5l1.5-8.3l-7.3-2.4l-3.4-14.6l4.9-5.9l-3.9-7.3l0.5-5.4l5.9,4.4l6.8-1l7.8-6.8l2.4,2.9l6.3-0.5l2.9-7.8
	l10.2,2.4l5.9-3.4l1-8.3l8.3,2.9l1.5-3.9l13.7-3.4L545.8,732.4z"/>
<path class="XK" class="st0" d="M660,822.2l-0.5,3.9h-2l-1-6.8l-3.4-2l-2.9-4.9l2.4-4.4l3.4-1.5l2-6.3l2.4-1l2,2.4l2.4,1l2,2.9l2.4,1
	l2.4,3.4h2l-1.5,4.4l-1.5,2.4l0.5,1.5l-2.9,0.5L660,822.2z"/>
<path class="LT" class="st0" d="M686.8,570.4l-1-5.9l1.5-6.3l-5.9-3.9l-14.1-4.4l-2.9-20.5l15.6-7.3l22.9,1.5l13.7-2.4l2,4.9l7.3,1.5
	l13.2,11.7l1.5,10.7l-11.2,7.8l-3.4,13.2l-14.6,8.8h-13.2l-3.4-7.3L686.8,570.4z"/>
<path class="LU" class="st0" d="M459.5,663.6l2.9,4.9l-1,9.3l-3.9,0.5l-2.9-2l1.5-11.7L459.5,663.6z"/>
<path class="LV" class="st0" d="M663.9,529.9l0.5-18.5l6.8-15.6l12.7-8.8l10.7,19l10.7-0.5l2.4-19.5l11.7-4.4l5.9,2.9l11.7,9.3h11.2
	l6.3,5.9l1,12.2l4.4,14.6l-14.6,9.3l-8.3,3.9L723.9,528l-7.3-1.5l-2-4.9l-13.7,2.4l-22.9-1.5L663.9,529.9z"/>
<path class="MD" class="st0" d="M739.5,703.6l3.4-2.9l9.3-2l10.2,6.3l5.9,1l6.3,5.4l-1,6.8l4.9,3.4l2,8.3l4.9,4.9l-1,2.9l2.4,2
	l-3.4,1.5l-9.3-1l-1.5-2.9l-2.9,1.5l1,3.4l-3.9,6.3l-2.4,6.8l-3.4,2l-2.4-8.8l1.5-8.3l-0.5-8.8l-7.8-11.7l-4.4-8.8l-4.4-5.9
	L739.5,703.6z"/>
<path class="ME" class="st0" d="M646.8,813.9l-1-3.4l-5.9,9.3l1,5.9l-2.9-1.5l-3.9-5.9l-5.9-3.9l1.5-2.9l2-10.2l4.4-4.4l2.4-2l3.4,3.4
	l2,2.4l4.4,2l5.4,3.9l-1,1.5l-2.4,4.4L646.8,813.9z"/>
<path class="MK" class="st0" d="M657.6,825.6h2l0.5-3.9l8.3-2.9l2.9-0.5l4.9-1l6.3-0.5l6.8,5.9l1,12.2l-2.4,0.5l-2.4,2.9l-7.3-0.5
	l-5.4,3.9l-8.8,1.5l-5.9-4.4l-2-7.8L657.6,825.6z"/>
<path class="NL" class="st0" d="M460,589.5l11.2,0.5l2.4,7.8l-3.4,20.5l-3.4,8.3h-8.3l2.4,22.9l-7.3-4.9l-8.8-9.8l-12.7,4.4l-10.2-2
	l6.8-5.9l12.2-32.7L460,589.5z"/>
<path class="NO" class="st0" d="M760.5,52.8L803.4,83l-17.6,10.7l15.1,24.9l-23.4,15.6l-11.2,3.4l5.9-27.3l-17.6-15.6l-21,13.7
	l-6.8,28.8l-13.2,16.6l-14.6-9.3l-18.1,2l-15.1-20l-8.3,10.2l-8.3,1.5l-2,24.9l-25.9-5.9l-3.4,20.5h-13.2l-8.8,25.4l-13.7,38.5
	l-20,45.4l4.9,10.7l-4.9,12.7l-13.7-0.5l-8.8,28.8l1,39l8.8,14.6l-4.4,32.7l-11.2,18.5l-5.9,15.1l-9.3-16.6l-26.8,30.7l-18.1,5.9
	l-19-13.2l-4.9-28.8l-4.4-64.4l12.7-19l36.1-25.4l26.8-32.2l24.9-45.4l32.7-66.8l22.9-27.8l37.6-48.3l30.2-17.6l22.4,2l21-34.2
	l24.9,2L760.5,52.8z"/>
<path class="PL" class="st0" d="M581.9,642.6l-5.4-14.1l1-7.8l-3.4-11.7l-4.9-7.8l3.9-5.9l-3.4-11.7l9.3-6.8l21.5-10.7l17.1-7.8
	l13.7,3.9l1,5.9l13.2,0.5l17.1,2.9l25.4-0.5l6.8,2.4l3.4,7.3l0.5,10.2l3.9,8.8v9.3l-8.3,4.4l4.4,10.2v9.8l6.8,19l-1.5,5.9l-6.8,2.4
	l-12.2,17.6l3.4,9.3l-2.9-1l-13.2-7.8l-9.8,2.9l-6.3-2l-8.3,4.4l-6.8-7.3l-5.9,2.9l-1-1.5l-6.3-10.2l-10.2-1.5l-1.5-6.8l-9.3-2.4
	l-2,5.4l-7.3-4.4l1-5.9l-10.2-2L581.9,642.6z"/>
<path class="PT" class="st0" d="M254.1,825.1l4.9-4.9l5.4-2.4l3.4,8.8h7.8l2.4-2.4l7.8,0.5l3.9,9.3l-6.3,4.9v14.1l-2.4,2.4l-0.5,8.3
	l-5.9,1.5l5.4,10.7l-3.9,11.7l4.9,5.4l-2,4.9l-4.9,6.3l1,5.9l-5.4,4.4l-7.3-2.4l-7.3,2l2-13.2l-1.5-10.7l-6.3-1.5l-3.4-6.8l1-11.7
	l5.4-6.3l1-7.3l2.9-10.7l-0.5-7.8l-2.9-6.3L254.1,825.1z"/>
<path class="RO" class="st0" d="M686.3,710.5l5.9-4.4l8.3,2.4h8.8l6.3,4.9l4.9-2.9l10.2-2l3.4-4.9h5.9l3.9,2l4.4,5.9l4.4,8.8l7.8,11.7
	l0.5,8.8l-1.5,8.3l2.4,8.8l5.9,3.4l6.3-2.9l6.3,3.4l0.5,4.9l-6.8,3.9l-4.4-2l-3.9,22.9l-8.3-2l-9.8-6.8l-16.1,4.4l-6.8,4.9l-20-1
	l-10.7-2.9l-5.4,1.5l-3.9-7.8l-2.4-3.4l2.9-3.4l-3.4-2.4l-4.4,4.4l-7.8-5.4l-1-7.8l-8.3-4.4l-1.5-6.3l-6.3-7.8l10.7-3.9l8.3-13.7
	l6.3-13.7L686.3,710.5z"/>
<path class="RS" class="st0" d="M661.5,758.8l8.3,4.4l1,7.8l7.8,5.4l4.4-4.4l3.4,2.4l-2.9,3.4l2.4,3.4l-3.4,4.4l1,6.8l6.8,8.3l-5.4,5.9
	l-2.4,5.9l1.5,2l-2.4,2.4l-6.3,0.5l-4.9,1l-0.5-1.5l1.5-2.4l1.5-4.4h-2l-2.4-3.4l-2.4-1l-2-2.9l-2.4-1l-2-2.4l-2.4,1l-2,6.3
	l-2.4,1.5l1-1.5l-5.4-3.9l-4.4-2l-2-2.4l-3.4-3.4l3.4-1l2-8.8l-6.8-7.3l3.4-8.3h-4.9l5.4-7.3l-4.4-5.4l-3.4-7.8l10.7-4.9l8.8,1
	l7.3,7.8L661.5,758.8z"/>
<path class="SE" class="st0" d="M679.5,256.7l-13.2,22.9l2,19.5l-22,24.9L620,349.9l-9.8,41l9.8,20l13.2,15.1l-12.7,30.2l-14.1,6.3
	l-5.4,42.9l-7.8,23.4l-16.6-2.4l-7.8,19l-15.6,1l-4.4-22.9l-11.7-28.3l-10.2-36.6l5.9-15.1l11.2-18.5l4.4-32.7l-8.8-14.6l-1-39
	l8.8-28.8l13.7,0.5l4.9-12.2l-4.9-10.7l21-46.3l13.7-38.5l9.3-25.4H618l3.9-20.5l25.9,5.9l2-24.9l8.3-1.5l18.1,18.5l21.5,24.9
	l0.5,54.2l4.4,13.2L679.5,256.7z"/>
<path class="SI" class="st0" d="M565.4,737.3l11.2,1.5l6.8-4.4l12.2-0.5l2.4-3.4l2.4,0.5l2.4,6.8l-10.7,5.4l-1.5,7.8l-4.9,2v5.4
	l-5.4-0.5l-4.9-2.9l-2.4,3.4l-9.3-0.5l2.9-2l-3.4-8.3L565.4,737.3z"/>
<path class="SK" class="st0" d="M633.7,676.8l1,1.5l5.9-2.9l6.8,7.3l8.3-4.4l6.3,2l9.8-2.9l13.2,7.8l-3.9,5.4l-2.4,8.3l-2.9,2
	l-14.6-6.3l-4.4,1l-3.4,4.9l-6.3,2.4l-1.5-1.5l-6.8,2.9l-5.4,0.5l-1,3.9l-11.7,2.4l-4.9-2.4l-6.8-5.4l-1.5-7.3l1-2.4l2-4.4l5.9,0.5
	l4.9-2l0.5-2l2.4-1l1-4.9l2.9-1l2-3.9L633.7,676.8z"/>
<path class="UA" class="st0" d="M810.3,620.7l4.9,1l3.4-4.9l3.9,1l14.1-2l8.8,12.7l-3.4,4.4l1,6.8l10.7,1l4.9,9.3l-0.5,4.4l17.6,7.3
	l10.2-3.4l8.3,9.8h7.8l20,6.8v6.3l-5.4,10.7l2.9,11.2l-2,6.8l-13.2,1.5l-6.8,5.9l-0.5,8.8l-10.7,1.5l-9.3,6.3l-12.7,1l-11.7,7.3
	l-6.3,4.9l7.3,7.3l6.8,4.9l14.1-1l-2.4,6.8l-15.1,3.4l-18.5,11.2l-7.3-3.9l2.9-8.8l-15.1-5.9l2.4-3.9l15.6-7.8l-2-3.9l-2.4,2l-2-1
	l-21.5-4.9l-1-7.3l-12.7,2.4l-4.9,10.7L780,762.2l-6.3-3.4l-6.3,2.9l-5.9-3.4l3.4-2l2.4-6.8l3.9-6.3l-1-3.4l2.9-1.5l1.5,2.9l8.3,0.5
	l3.4-1.5l-2.4-2l1-2.9l-4.9-4.9l-2-8.3l-4.9-3.4l1-6.8l-6.3-5.4l-5.9-1l-10.2-6.3l-9.3,2l-3.4,2.9h-5.9l-3.4,4.9l-10.2,2l-4.9,2.9
	l-6.3-4.9h-8.8l-8.3-2.4l-5.9,4.4l-1-5.4l-7.3-5.4l2.4-8.3l3.9-5.4l2.9,1l-3.4-9.3l12.2-17.6l6.8-2.4l1.5-5.9l-6.8-19l6.3-1l7.3-5.9
	l10.7-0.5l13.7,2l15.1,5.4l10.7,0.5l4.9,2.9l4.9-3.9l3.4,4.9l12.2-1l5.4,2l1-11.2l4.4-4.9L810.3,620.7z"/>
</svg>
