<?xml version="1.0" encoding="utf-8"?>
<!-- Generator: Adobe Illustrator 20.1.0, SVG Export Plug-In . SVG Version: 6.00 Build 0)  -->
<svg version="1.1" id="Layer_1" xmlns="http://www.w3.org/2000/svg" xmlns:xlink="http://www.w3.org/1999/xlink" x="0px" y="0px"
	 viewBox="0 0 1024 1024" style="enable-background:new 0 0 1024 1024;" xml:space="preserve">
<style type="text/css">
	.st0{fill:#424242;stroke:#FFFFFF;}
</style>
<path id="BS" class="st0" d="M756,765.1l-1.9,0.3l-1.9-4.8l-2.9-2.4l1.6-5.3l2.1,0.3l2.6,6.6L756,765.1z M753.9,742.1l-8.2,1.3
	l-0.5-2.9l3.4-0.5l4.8,0.3L753.9,742.1z M760,742.1l-1.3,5.8l-1.3-1.1v-4.2l-3.4-3.2v-1.1L760,742.1z"/>
<path id="BZ" class="st0" d="M670,811.9v-1.1l0.8-0.3l1.3,0.8l2.6-4.8h1.3v1.1h1.3v2.1l-1.3,3.4l0.5,1.3l-0.8,2.6l0.5,0.8l-0.8,4
	l-1.6,2.1l-1.3,0.3l-1.6,2.6h-2.1l0.5-8.7L670,811.9z"/>
<path id="CA" class="st0" d="M603.3,209.8L598,219l-6.6,6.6l10.1,9.3l6.1-2.4l10.1,6.3l4.5-7.1l-4.5-7.9l-2.1-4l-4.5-4L603.3,209.8z
	 M416.3,536l-3.2-6.1l-7.4-4.8l-3.7-5.3l-2.4-4l-6.9-1.3l-4.5-1.9l-7.7-2.6l-0.5,2.6l2.9,6.3l7.7,2.1l1.3,3.2l6.6,4l2.1,4l12.2,5
	L416.3,536z M736.7,331.5l-5.3-5.6l-5.6,1.3l-0.5-8.2l-8.5-5.3l-8.2-6.1l-4.2-4.8l-3.7,2.6l-1.3-7.9l-5.3-1.6l-2.6,16.1l-1.1,13.5
	l-6.3,8.2l10.1-1.6l2.6,9.5l10.6-8.5l7.4-9l4.2,7.7l11.6,4L736.7,331.5z M858.4,557.1l-2.6-5.3l-2.9,3.4l1.9,3.7l9.5,4.5l2.6-0.8
	l3.7-4.5l-6.9,0.3L858.4,557.1z M708.4,352.4l1.6,4.2l5.3,0.3l8.7-8.7l0.3-3.2l-10.3-0.3L708.4,352.4z M871.9,527.2l-7.7-4.8
	l-9.8-2.9l-2.6,1.1l6.9,5.3l9.5,3.4l3.7-0.3V527.2z M937.5,539.9l-1.1-5.8l-5.3,1.9l2.4-8.2l-7.4-3.4l-3.4,2.6l-6.6-3.2l2.6-4
	l-5-2.4l-4.8,4l5-10.1l4-7.4l1.3-3.2l-3.4-0.5l-6.3,4l-4.5,6.6l-7.7,18.3l-6.3,6.9l3.2,2.9l-4.8,4l1.1,3.2l14.3,0.3l7.9-0.5l7.1,2.6
	l-5.3,5l4.5,0.3l8.5-9.5l2.1,1.3l-1.6,9l4.8,2.1l3.4-0.3l3.2-9.5L937.5,539.9z M881.7,552.4l-7.4,12.2l-12.2,1.6l-9.5-5.3l-2.4-8.2
	l-2.4-11.9l6.9-7.4l-6.6-5.6l-11.1,1.1l-15.6,9.3l-11.9,14.6l-6.3,1.9l8.5-10.1l10.6-14.8l9.5-5l6.3-8.2l7.7-0.8h11.1l15.9,2.4
	l12.4-1.9l9.3-9.5l12.2-4.2l5.3-4.2l5.3-4.5l-0.5-13.8l-2.9-4.8l-5.8-1.6l-2.9-10.6l-4.8-4l-11.9-3.4l-6.6-7.4l-9.8-7.4l2.9-8.5
	l-8.2-16.7l-9.5-18.3l-5.8-13.2l-5,6.9l-7.1,16.1l-10.8,7.9l-5.3-8.5l-6.9-2.4l-2.4-18.5l0.3-12.7l-13.2-1.1l-2.4-6.1l-9.3-9
	l-6.9-5.3l-6.1,4.2l-7.7-1.6l-12.7-4.2l-5.3,3.7l2.4,24.3l3.2,13.5l-8.7,15.3l9,10.6l5,11.6l0.5,9l-4,9.3l-8.5,9.3l-11.9,6.1
	l5.3,6.6l4,19.6l-4,12.4l-5.8,4l-11.1-11.4l-5.3-13.8l-2.4-12.7l1.3-11.1l-8.2-1.3l-12.2-0.8l-7.9-5.6l-9.3-3.7l-5.3-6.3l-7.4-5
	l-13.8-5.8l-10.3,2.6l-3.4-10.6l-3.4-13.2l-10.8-2.4l0.3-16.9l2.9-11.9l7.9-17.5l9-13l8.7-2.1l0.5-10.8l5.8-7.1l10.6-1.1l8.5-11.6
	l2.1-7.7l7.1-15.1l2.1-9.3l7.7,5.6l10.3-2.9l14.6-13.2l1.1-9.3l-5.3-10.6l5.6-10.8l-0.5-10.3l-10.1-10.3l-10.8-3.2l-10.6-1.6
	l-0.3,23l-5.3,17.5l-7.7,14l-7.1-13l2.1-14.8l-9-13.2l-10.1,16.1v-21.2l-13.8-4.2l6.6-10.6l-10.1-25.4l-7.4-10.3l-9.8-3.7l-8.7,16.9
	l-0.5,24.6l8.7,8.7l7.9,13l-3.4,20.4l-6.1-0.5l-4.8,15.6v-18.5l-11.4-6.9l-6.6,3.4l0.8,12.4l-10.8-0.5l-11.6,3.2l-13-9l-8.2,1.6
	l-6.1-10.6l-6.1-4.8l-5.8,2.1l-9,1.1l-4.8,6.9l7.7,8.5l-8.2,9.8l-7.9-11.6l-6.3,3.4l-20.1,2.4l-13.5-4.2l10.3-9.8l-10.1-10.3
	l-7.4,1.3l-10.3-3.4l-17.5-7.7l-11.4-9l-9-1.3l-2.9,6.3l-9,3.4l-1.1-16.1l-9.8,14.6l-12.4-19.3l-5-2.4l-1.6,10.3l-5.6,5l-5-9
	l-12.2,5.6l-11.1,9.5l-11.1-2.6l-9,6.6l-6.6,8.7l-7.7-1.9l-11.6-10.1l-13.8-5v72.8v93.1l7.4,0.5l7.1,4.2l5.3,6.3l6.6,9.5l7.1-8.2
	l7.4-4.8l4,7.7l5,5.8l6.9,6.3l4.8,10.1l7.7,15.6l12.7,8.5l0.3,8.2l-4.2,6.3l0.3,6.6l9,9.3l1.3,10.1l9.5,5.3l-1.1,7.4l4.2,10.6
	l13.5,4.8l5.3,5l14.3,11.1h1.1h21.2h22h7.4h22.8h22h22.2h22.2h25.1h25.4h15.3v-4.2h2.4l1.3,6.3l2.4,1.9l5.3,0.8l7.7,1.9l7.1,3.4
	l6.1-1.3l9,2.9l2.9-4.5l4.2-1.9l1.6-2.6l1.6-1.3l6.9,2.4l5,0.3l1.9,1.6l2.4,6.3l8.2,1.6l-1.3,3.2l2.9,3.2l-1.3,4.2l3.2,1.3l-1.6,3.7
	l2.1,0.3l1.3-1.6l1.6,2.4l5.6,1.3h5.6l6.1,1.1l6.6,2.1l2.4,3.4l4.8,7.9l-2.4,3.4l-6.1-1.3l-3.7-6.3l1.1,6.6l-3.4,5.8l0.3,4.8
	l-0.5,2.9l-4.8,3.4l-3.4,5.6l-1.6,3.4l4,0.5l5.6-3.2l3.2-2.9l2.1-0.5l4,1.1l2.1-1.6l3.7-1.3l6.3-1.3l0,0l0,0l-0.5-2.9h-0.3l-2.4,0.5
	l-2.9-1.1l2.1-3.4l2.4-1.3l5.3-1.6l6.3-1.3l3.2,1.9l2.1-2.4l2.4-1.3l1.6,0.8v0.3l7.7-7.1l3.4-1.9h11.4h13.8l0.8-2.6l2.4-0.5l3.2-1.6
	l2.6-4.8l2.4-8.2l5.6-8.2l2.4,2.9l5-1.9l3.2,3.2v14.6l4.8,5.8l8.2-1.3l11.9-0.3l-13,8.7l0.3,8.7l5.6,0.8l8.2-7.4l7.4-4.2l16.4-6.3
	l9.3-6.9l-4.8-4L881.7,552.4z M740.1,365.1l2.9-8.2l-1.9-3.2l-2.9-0.3l-2.9,4.8l-0.3,1.1l1.9,4.8L740.1,365.1z M364.4,461.1
	L364.4,461.1l4.2-6.3L364.4,461.1z M355.4,469.8l-7.1,1.1l-3.4-1.6l-0.5,4l1.3,5.6l3.7,4l2.6,5.6l4.5,5.6h2.9l-6.3-9.8L355.4,469.8z
	"/>
<path id="CU" class="st0" d="M721.1,769.6l6.3,0.5h5.8l6.9,2.6l2.9,2.9l6.9-0.8l2.6,1.9l6.3,5l4.5,3.7h2.4l4.5,1.6l-0.5,2.1l5.6,0.3
	l5.6,3.2l-0.8,1.9l-5,1.1l-5,0.3l-5-0.5l-10.6,0.8l5-4.5l-2.9-2.1l-4.8-0.5l-2.6-2.4l-1.9-4.5l-4.2,0.3l-6.9-2.1l-2.1-1.6l-9.8-1.3
	l-2.6-1.6l2.9-2.1l-7.4-0.3l-5.3,4.2h-3.2l-1.1,1.9l-3.7,0.8l-3.2-0.8l4-2.4l1.6-2.9l3.4-1.9l3.7-1.6l5.6-0.8L721.1,769.6z"/>
<path id="DO" class="st0" d="M798.9,797.1l1.1-1.3h5.8l4.5,2.1l1.9-0.3l1.3,2.6l4-0.3l-0.3,2.4l3.2,0.3l3.7,2.9l-2.6,3.2l-3.4-1.6
	l-3.4,0.3l-2.4-0.3l-1.3,1.3l-2.9,0.5l-1.1-1.9l-2.4,1.1l-2.9,5.3l-1.9-1.3l-0.3-2.1l0.3-2.1l-1.9-2.4l1.9-1.3l0.5-2.9L798.9,797.1z
	"/>
<path id="GT" class="st0" d="M663.1,843.1l-3.7-1.3h-4.8l-3.4-1.6l-4-3.2l0.3-2.1l0.8-1.9l-1.1-1.3l3.4-6.3h9.5l0.3-2.6l-1.3-0.5
	l-0.8-1.6l-2.6-1.9l-2.6-2.6h3.4v-4.2h6.9h6.9v6.1l-0.5,8.7h2.1l2.4,1.3l0.5-1.1l2.1,1.1l-3.4,2.9l-3.4,2.1l-0.5,1.6l0.5,1.6
	l-1.6,1.9l-1.9,0.5l0.5,0.8l-1.3,0.8l-2.6,1.9L663.1,843.1z"/>
<path id="HT" class="st0" d="M788,795.5l4.5,0.3l6.3,1.3l0.5,4.2l-0.5,2.9l-2.1,1.3l1.9,2.4l-0.3,2.1l-5-1.3l-2.9,0.5l-4.5-0.5
	l-3.4,1.3l-4-2.4l0.5-2.6l6.9,1.1l5.6,0.5l2.6-1.9l-3.4-3.4v-2.9l-4.8-1.3L788,795.5z"/>
<path id="JM" class="st0" d="M755.7,806.6l5,0.8l4,1.9l1.3,2.1h-5.3l-2.4,1.3l-4.2-1.3l-4.2-2.9l0.8-1.9l3.2-0.5L755.7,806.6z"/>
<path id="MX" class="st0" d="M611,747.9l-2.9,7.1l-1.3,5.8l-0.5,10.8l-0.8,4l1.3,4.2l2.4,4l1.6,6.1l5,5.8l1.6,4.5l2.9,3.7l7.9,2.1
	l3.2,3.2l6.6-2.1l5.6-0.8l5.6-1.3l4.8-1.3l4.8-3.2l1.9-4.5l0.5-6.6l1.3-2.4l5-2.1l7.9-1.9l6.6,0.3l4.5-0.5l1.9,1.6l-0.3,3.7l-4,4.8
	l-1.9,4.8l1.3,1.3l-1.1,3.4l-2.1,5.8l-1.9-2.1h-1.6h-1.3l-2.6,4.8l-1.3-0.8l-0.8,0.3v1.1h-6.9H657v4.2h-3.2l2.6,2.6l2.6,1.9l0.8,1.6
	l1.3,0.5l-0.3,2.6h-9.5l-3.4,6.3l1.1,1.3l-0.8,1.9l-0.3,2.1l-8.5-8.2l-4-2.4l-6.1-2.1l-4.2,0.5l-6.1,2.9l-3.7,0.8l-5.3-2.1l-5.6-1.6
	l-6.9-3.4l-5.6-1.1l-8.5-3.7l-6.1-3.7l-1.9-2.1l-4.2-0.5l-7.7-2.4l-3.2-3.4l-7.9-4.5l-3.7-5l-1.9-4l2.4-0.8l-0.8-2.4l1.6-2.1v-2.6
	l-2.4-3.4l-0.8-3.2l-2.4-4l-6.6-7.9l-7.4-6.3l-3.7-5l-6.3-3.4l-1.3-2.1l1.1-5l-3.7-1.9l-4.5-4l-1.9-5.8l-4-0.8l-4.2-4.5l-3.4-4
	l-0.3-2.6l-4-6.3l-2.6-6.6v-3.2l-5.3-3.4l-2.4,0.3l-4.2-2.4l-1.1,3.4l1.3,4.2l0.8,6.3l2.6,3.4l5.6,5.8l1.3,2.1l1.1,0.5l1.1,2.9
	l1.3-0.3l1.6,5.3l2.4,2.1l1.6,2.9l4.8,4.2l2.4,7.7l2.1,3.7l2.1,3.7l0.5,4.2l3.4,0.3l2.9,3.7l2.6,3.7l-0.3,1.3l-3.2,2.9h-0.8
	l-1.9-4.8l-4.8-4.5l-5.3-4l-3.7-2.1l0.3-5.8l-1.1-4.5l-3.4-2.6l-5-3.7l-1.1,1.1l-1.9-2.1L484,736l-4.2-4.8l0.5-0.5l2.9,0.5l2.6-3.2
	l0.3-3.7l-6.6-5l-4.2-2.4l-2.6-5.3l-2.6-5.6l-3.4-6.9l-2.9-7.9l8.5-0.5l9.5-1.1l-0.8,1.6l11.1,4.2l16.9,6.1h14.8h5.8v-3.4h13
	l2.6,3.2l3.7,2.6l4.5,3.7l2.4,4.5l1.9,4.8l4,2.6l6.1,2.6l4.8-6.6l6.1-0.3l5.3,3.4l3.7,5.8l2.6,5l4.5,4.8l1.6,5.8l2.1,4l5.8,2.6
	l5.3,1.9L611,747.9z"/>
<path id="NI" class="st0" d="M695.4,862.7l-2.6-2.4l-3.4-2.9l-1.6-2.6l-3.2-2.4l-3.7-3.4l0.8-1.1l1.3,1.1l0.5-0.5l2.4-0.3l0.8-1.9
	h1.1l-0.3-3.7l1.9-0.3h1.6l1.6-2.1l2.1,1.6l0.8-1.1l1.3-0.8l2.6-2.1v-1.6h0.8l1.1-1.9l0.8-0.3l1.3,1.1l1.6,0.3l1.6-1.1h1.9l2.6-1.1
	l1.1-1.1l2.6,0.3l-0.5,0.8l-0.3,1.6l0.8,2.9l-1.6,2.6l-0.8,3.2l-0.3,3.4l0.5,1.9l0.3,3.4l-1.1,0.8l-0.8,3.2l0.5,2.1l-1.6,1.9
	l0.3,2.1l1.1,1.3l-1.9,1.6l-2.1-0.5l-1.3-1.6l-2.4-0.5l-1.6,1.1l-4.8-2.1L695.4,862.7z"/>
<path id="PA" class="st0" d="M753.3,891.6l-2.4-2.1l-1.6-4l1.9-2.1l-1.9-0.5l-1.3-2.4l-3.7-2.1l-3.2,0.5l-1.6,2.6l-2.9,1.9l-1.6,0.3
	l-0.8,1.6l3.4,4l-2.1,1.1l-1.1,1.1l-3.4,0.3l-1.3-4.5l-1.1,1.3l-2.4-0.5l-1.6-2.9l-2.9-0.5l-1.9-0.8h-3.4l-0.3,1.6l-0.8-1.1l0.3-1.6
	l0.5-1.6l-0.3-1.3l1.1-0.8l-1.6-1.1v-2.9l2.9-0.5l2.6,2.6l-0.3,1.6l2.9,0.3l0.8-0.5l2.1,1.9l3.7-0.5l3.2-1.9l4.5-1.6l2.6-2.1
	l4.2,0.5l-0.3,0.8l4.2,0.3l3.2,1.3l2.4,2.1l2.9,2.1l-0.8,1.1l1.6,4.2l-1.3,2.1l-2.4-0.5L753.3,891.6z"/>
<path id="PR" class="st0" d="M839.1,806.4l3.7,0.8l1.3,1.6l-1.9,1.9h-5.6l-4.2,0.3l-0.5-3.2l1.1-1.1L839.1,806.4z"/>
<path id="US" class="st0" d="M364.4,461.1L364.4,461.1l-4-4.8l-6.6-4.2l-2.1-11.6l-9.5-10.8l-4-13l-7.1-0.8l-11.9-0.3l-8.7-4
	l-15.3-14.8l-7.1-2.9l-13-5.3l-10.1,1.6l-14.6-6.9l-8.7-6.3l-8.2,3.2l1.6,10.3l-4,1.1l-8.5,3.2l-6.6,5l-8.2,3.2l-1.1-8.5l3.4-14.6
	l7.9-4.8l-2.1-4l-9.3,8.5l-5,10.1l-10.6,10.6l5.3,6.9l-7.1,10.3l-7.9,5.8l-7.4,4.2l-1.9,6.1l-11.6,6.9l-2.4,6.3l-8.7,5.6l-5-1.1
	l-6.9,3.7l-7.7,4.5l-6.1,4.2l-12.7,3.7l-1.1-2.1l8.2-6.1l7.1-4l7.9-7.1l9.3-1.6l3.7-5.6l10.3-7.9l1.6-2.6l5.6-4.8l1.3-10.6l3.7-8.5
	l-8.5,4.2l-2.4-2.4l-4,5.3l-4.8-7.1l-2.1,5l-2.6-7.1l-7.4,5.8h-4.2l-0.5-8.5l1.3-5.3l-4.8-5.3l-9.5,2.9l-6.3-6.9l-5-3.7v-8.5
	l-5.8-6.6l2.9-9l6.1-9l2.6-8.2l6.1-1.1l5,2.6l6.1-7.9l5.3,1.3l5.6-5.3l-1.3-7.7l-4.2-3.2l5.6-6.6l-4.5,0.3l-7.9,3.7l-2.4,3.7
	l-5.8-3.7l-10.6,1.9l-10.8-4.2l-3.2-6.9l-9.3-10.3l10.3-7.7l16.4-9h6.1l-1.1,9.3l15.6-0.8l-6.1-11.4l-9.3-7.1l-5.3-9.5l-7.1-8.5
	l-10.1-6.3l4.2-10.6l13.2-0.5l9.3-9.5l1.9-10.3l7.7-10.3l7.1-2.4l14-10.1l6.9,1.6l11.4-12.2l11.1,4.8l5.3,10.3l3.2-4.2l12.4,1.3
	l-0.5,5l11.4,3.7l7.7-2.1l15.6,6.9l14.3,2.1l5.8,2.9l9.8-3.4l11.1,6.6l8.5,1.1v72.8v93.1l7.4,0.5l7.1,4.2l5.3,6.3l6.6,9.5l7.1-8.2
	l7.4-4.8l4,7.7l5,5.8l6.9,6.3l4.8,10.1l7.7,15.6L370,446l0.3,8.2L364.4,461.1z M828,551.6l-3.2-3.2l-5,1.9l-2.4-2.9l-5.6,8.2
	l-2.4,8.2l-2.6,4.8l-3.2,1.6l-2.4,0.5l-0.8,2.6h-13.8h-11.1l-3.4,1.9l-7.7,7.1l0.8,1.3l0.5,4l-5.6,3.4l-6.1-0.8l-5.8-0.3l-3.4,1.1
	l0.5,2.9l0,0l0.3,1.1l-6.3,6.1l-5.6,2.9l-3.7,1.3l-4.5,2.6l-5.3,1.3l-3.7-0.5l-4.5-2.1l2.6-4l1.6-3.4l3.4-5.6l-0.3-4.2l-1.3-5.8
	l-2.6-1.1L711,587h-1.6l-0.3-2.6l4-4.2l0.8-4.8l-0.5-4.8l-5.6-4l-6.3-2.1l-1.1,4l-1.6,1.1l-1.3,5.3l-0.8-3.4l-2.9,2.6l-1.9,3.4
	l-1.9,5l-0.3,4.2l2.4,6.3l-0.3,6.6l-2.9,4.8l-1.6,1.3l-2.1,1.1H683l-0.8-0.5l-2.1-5.3v-2.6l0.3-2.4l-1.1-5l1.3-5.8l1.6-7.1l4-7.9
	h-1.1l-5.6,6.6l-1.1-1.3l2.9-3.7l4.5-6.9l5-1.1l5.8-2.1l5.8,1.1h0.3l6.6-1.1l-3.7-4.2l-2.1-0.3l-2.4-0.5l-1.6-2.9l-7.4,1.1l-6.6,2.4
	l-5.3-4l-4.2-1.3l2.4-5.8l-6.6,3.7l-5.8,3.4l-5.8,2.6l-4.5-3.7l-7.4,2.4v-1.6l5-4.5l5.3-4.2l7.7-3.7l-9-2.9l-6.1,1.3l-7.1-3.4
	l-7.7-1.9l-5.3-0.8l-2.4-1.9l-1.3-6.3H625v4.2h-15.3h-24.6h-25.1h-22.2h-22.2h-22h-22.2h-7.4h-22h-21.2l2.4,9.3l1.1,9l-1.9,2.9
	l-4-10.3l-10.8-3.7l-0.8,2.1l2.1,5l2.4,9.3l1.3,14.3l-0.8,9.5l-0.8,9.3l-2.9,9.5l2.4,7.7l0.3,8.5l-1.6,7.9l4,5.3l1.1,7.9l5.8,7.9
	l3.2,3.2l-0.3,2.1l6.1,13l7.1,9.3l0.8,5l1.9,1.3l6.9,0.8l2.6,2.4l4.2,0.5l0.8,2.6l3.4,1.1l4.8,5l1.3,4.5l8.5-0.5l9.5-1.1L480,691
	l11.1,4.2l16.9,6.1h14.8h5.8v-4.2h13l2.6,3.2l3.7,2.6l4.5,3.7l2.4,4.5l1.9,4.8l3.7,2.6l6.1,2.6l4.8-6.6l6.1-0.3l5.3,3.4l3.7,5.8
	l2.6,5l4.2,4.8l1.6,5.8l2.1,4l5.8,2.6l5.3,1.9l2.9-0.3l-1.3-2.9l-0.3-4v-5.8l1.6-3.7l4-4l7.4-3.7l6.9-6.3l6.3-2.1l4.5-0.5l5.3,1.9
	l6.3-1.1l5.6,4.5l5.3,0.3l2.9-1.6l2.6,1.3l1.3-1.1l-1.6-1.6l0.3-3.4l-1.3-2.4l3.2-1.3l5.6-0.5l6.6,1.1l8.5-1.1l4.8,2.1l3.7,4
	l1.3,0.5l7.4-4l2.9,1.3l5.8,7.1l2.1,4.8l-1.6,5.6l1.1,3.2l3.4,6.3l4,7.1l2.9,1.9l1.1,3.7l3.7,1.1l2.1-1.1l1.9-5l0.3-3.2l0.3-5.6
	l-3.4-9.5v-3.7l-3.2-5.8l-2.4-7.4l-1.3-5.8l1.1-6.1l3.4-5l4.2-4.2l8.2-5.8l1.1-2.9l3.7-3.2l3.7-0.5l4.8-5.3l7.7-2.6l4.8-6.6
	l-1.1-9.3l-0.8-3.2l-2.1-0.5l-0.3-9l-5-2.9l5,1.6l-1.6-6.1l1.3-4l0.8,7.9l3.7,3.7l-2.4,6.3l0.8,0.3l4.2-7.4l2.4-3.7v-3.7l-1.9-1.6
	l-2.9-4.8l2.4,2.4l1.6,0.5l0.5,2.4l5.3-7.4l1.6-6.9l-2.1-0.5l2.4-2.6l-0.3,1.3h4.8l10.3-2.9l-2.1-1.9l-10.8,1.9l6.1-2.9l4.2-0.5
	l3.2-0.5l5.6-1.6l3.7,0.3l5-1.6l0.5-2.9l-2.1-2.1l0.8,3.7l-3.2-0.3l-2.4-5.3v-5.3l1.3-2.4l4-6.1l7.9-2.9l7.7-3.4l7.9-5L833,572
	l-4.8-5.8v-14.6H828z M196.7,419l-4,2.1l-6.6,5l1.1,6.3l3.7,3.4l7.4-5.3l6.3-6.6l-3.2-4.2L196.7,419z M76.6,343.6l5.3-3.4l0.5-1.9
	l-5.8-1.6V343.6z M99.1,384.1l-7.4,2.6l4.5,4l4.8,2.6l4.5-2.4l-0.8-5.6L99.1,384.1z M355.4,469.8l-7.1,1.1l-3.4-1.6l-0.5,4l1.3,5.6
	l3.7,4l2.6,5.6l4.5,5.6h2.9l-6.3-9.8L355.4,469.8z M174.5,787.6l-2.6-0.8l-0.8,0.8v0.5l0.8,0.5l1.3,1.6l2.4-0.5l0.5-1.1L174.5,787.6
	z M166.5,786.3l4,0.3l0.3-0.8l-3.7-0.3L166.5,786.3z M182.1,794.7l-1.3-0.8l-2.9-1.3l-0.5-0.3l-0.5,0.8l0.5,1.6l-1.3,1.3l-0.3,0.8
	l1.3,2.9l-0.3,2.1l1.9,1.1l1.1-1.3l2.4-1.3l2.9-1.6l0.3-0.5l-1.9-2.6L182.1,794.7z M161.5,781.5l-2.1,1.1l0.3,0.3l1.1,1.9l2.6,0.3
	h0.5l0.5-0.5l-2.1-2.6L161.5,781.5z M149.9,777.3l-1.1,0.8l-0.3,0.5l2.4,1.3l0.8-0.8l-0.3-1.9H149.9z"/>
</svg>
