<?xml version="1.0" encoding="utf-8"?>
<!-- Generator: Adobe Illustrator 20.1.0, SVG Export Plug-In . SVG Version: 6.00 Build 0)  -->
<svg version="1.1" id="Layer_1" xmlns="http://www.w3.org/2000/svg" xmlns:xlink="http://www.w3.org/1999/xlink" x="0px" y="0px"
	 viewBox="0 0 1024 1024" style="enable-background:new 0 0 1024 1024;" xml:space="preserve">
<style type="text/css">
	.st0{fill:#424242;stroke:#FFFFFF;stroke-width:0.5;}
</style>
<path class="AU" class="st0" d="M506.9,726.7l12.2,5.9l6.8-2.3l10-3.2l7.7,0.9l0.9,19.9l-4.5,5.9l-1.4,14l-4.5-4.5l-9.1,12.2l-2.7-0.9
	l-7.7-0.5l-7.7-14.9l-1.8-11.3l-7.2-14.5l0.5-7.7L506.9,726.7z M483.8,338.5l4.5,10l8.2-5l4.1,5.4l5.9,5l-1.4,5.9l2.7,11.3l1.8,6.8
	l3.2,1.8l3.6,11.3l-1.4,6.8l4.1,9.1l13.6,6.8l9.1,6.3l8.6,5.9l-1.8,3.2l7.2,8.6l5,14.5l5-3.2l5,5.9l3.2-2.3l2.3,14.5l9.1,8.6
	l5.9,5.4l10,11.3l3.6,11.3l0.5,8.2l-0.9,8.6l5.9,12.2l-0.9,12.7l-2.3,6.8l-3.6,13.1l0.5,8.6l-2.3,10.4l-5.4,13.6l-9.5,7.2l-4.5,11.8
	l-4.1,7.7l-3.6,13.1l-5,7.7l-3.2,11.8l-1.8,10.9l0.5,5l-7.2,5.4l-14-0.9l-11.8,6.8l-5.9,6.3l-7.7,6.8l-10.4-7.2l-7.7-2.7l1.8-8.2
	l-6.8,3.2l-11.3,11.8l-10.9-4.5l-7.2-2.7l-7.2-0.9l-12.2-4.5l-8.2-10l-2.3-12.2l-3.2-8.2l-6.3-6.3l-12.2-1.8l4.1-7.7l-3.2-11.3
	l-6.3,10.4l-11.3,2.7l6.8-8.6l1.8-9.1l5-7.7l-0.9-11.3l-10.4,12.7l-8.2,5.4l-5,12.2l-10-6.3l0.5-8.2l-8.2-10.9l-6.3-5l2.3-3.6
	l-16.3-9.1l-9.1-0.5l-12.2-7.2l-22.6,1.4l-16.3,5.4l-14.5,5l-12.2-0.9l-13.6,7.7l-10.9,3.6l-2.3,8.2l-4.5,6.3l-10.9,0.5l-8.2,1.4
	l-11.3-2.7l-9.1,1.8l-8.6,0.9l-7.7,8.2l-3.6-0.9l-6.3,4.5l-5.9,5l-9.1-0.5h-8.6l-13.6-10l-6.8-2.7l0.5-8.6l6.3-2.3l2.3-3.6l-0.5-5.4
	l1.4-10.4l-1.4-9.1l-6.8-14.9l-2.3-8.2l0.5-8.2l-5-9.5l-0.5-4.1l-5.4-5.9l-1.4-11.3l-7.2-11.3l-1.8-5.9l5.4,5.9l-4.5-13.1l6.3,4.1
	l3.6,5.4v-7.2l-6.3-10.9l-1.4-4.5l-3.2-4.1l1.4-8.2l2.7-3.6l1.8-6.8l-1.4-8.2l5.4-10l0.9,10.4l5.4-9.5l10.4-4.5l6.3-5.9l9.5-5
	l5.9-0.9l3.6,1.8l10-5l7.7-1.4l1.8-3.2l3.2-1.4l6.8,0.5l13.6-4.1l6.8-5.9l3.2-7.2l7.2-6.8l0.5-5.4l0.5-7.2l9.1-11.3L227,382l5.4-2.7
	l-4.5-6.3l4.1-6.3l5.4,2.7l1.4-10l6.8-6.3l3.2-5l6.3-2.3v-3.6l5.4,1.4v-3.2l5.4-1.8l6.3-1.8l9.5,5.9l7.2,7.7h8.2l8.2,1.4l-2.7-7.2
	l5.9-10.4l5.9-3.6l-1.8-3.2l5.4-7.2l7.7-4.5l6.3,1.4l10.9-2.3v-6.8l-9.1-4.1l6.8-1.8l8.6,3.2l6.8,5.4l10.9,3.2l3.6-1.4l7.7,4.1
	l7.2-3.6l4.5,0.9l3.2-2.3l5.9,6.3l-3.6,6.8l-5,5.4l-4.5,0.5l1.4,5l-3.6,6.3l-4.5,6.3l0.9,3.6l10,7.2l10,4.1l6.3,4.5l9.1,7.7h3.6
	l6.8,3.6l1.8,4.1l12.2,4.5l8.2-4.5l2.3-7.2l2.7-5.9l1.4-7.2l3.6-10.4l-1.8-6.3l0.9-3.6l-1.4-7.2l1.8-10l2.3-2.7l-1.8-4.5l3.2-6.8
	l2.3-7.2l0.5-3.6l4.5-5l3.6,6.3l0.9,8.2l3.2,1.4l0.5,5.4l4.5,6.8l0.9,7.2L483.8,338.5z"/>
<path class="FJ" class="st0" d="M962.5,368l-1.4,6.3l-0.9,0.9l-8.2,3.2l-8.2,2.7l-1.8-5l6.3-2.7l4.1-0.9l7.2-4.1L962.5,368z
	 M936.3,387.4l-5.9-1.8l-5,4.5l1.4,5.9l6.8,1.8l7.7-1.8l2.3-6.8l-4.5-3.6L936.3,387.4z"/>
<path class="NC" class="st0" d="M780,435l10.4,8.6l6.8,6.3l-5,3.2l-7.2-3.6l-9.1-5.9l-8.2-7.2l-8.2-9.5l-1.8-4.5h5.4l7.2,4.5l5.4,4.5
	L780,435z"/>
<path class="NZ" class="st0" d="M871.9,728.5l2.7,6.8l9.1-6.8l3.6,7.2v7.2l-4.5,7.7l-8.2,12.7l-6.3,6.8l4.5,8.6h-10l-10.9,6.8
	l-3.6,11.8l-7.2,18.1l-10,8.2l-6.3,5.4l-11.8-0.5l-8.2-5.9l-13.6-1.4l-2.3-6.8l6.8-13.6l15.9-17.7l8.2-3.2l9.1-6.8l10.9-9.1l7.7-9.1
	l5.4-12.7l5-4.5l1.8-9.5l9.1-7.7L871.9,728.5z M891.4,652l9.1,16.8l0.5-10.9l5.9,4.5l1.8,12.2L919,680l8.6,1.4l7.2-5.9l6.3,1.8
	l-3.2,14.5l-3.6,9.5l-9.5-0.5l-3.6,5l1.4,7.2l-1.8,3.2l-5,9.1l-6.3,11.3l-10,6.8l-2.3-4.5l-5-3.6l7.2-13.6l-4.1-9.1l-13.6-6.8
	l0.5-5.9l9.1-5.4l2.3-12.2l-0.5-10.4l-5-10.4l0.5-2.7l-5.9-6.3l-10-13.6l-5.4-10.9l4.5-1.4l6.8,8.6l10,4.1L891.4,652z"/>
<path class="PG" class="st0" d="M655,249.8l-3.6,1.4l-5.4-5l-5.4-8.2l-2.7-9.5l1.8-1.4l1.4,3.6l3.6,2.7l6.3,8.2l5.9,4.5L655,249.8z
	 M605.6,233l-6.8,0.9l-1.8,3.6l-6.8,3.2l-6.3,3.2h-7.2l-10.4-3.6l-7.2-3.6l0.9-4.1l11.3,1.8l6.8-0.9l1.8-5.9l1.8-0.5l1.4,6.8
	l7.2-0.9l3.6-4.5l7.2-4.5l-1.4-7.2h7.7l2.7,2.3l-0.5,6.8L605.6,233z M545.4,257l11.3,8.2l8.2,13.6l7.2-0.5l-0.5,5.4l10,2.3l-3.6,2.3
	l13.6,5.4l-1.4,3.6l-8.6,0.9l-3.2-3.2l-10.9-1.4l-12.7-1.8l-10-8.2l-7.2-6.8l-6.8-11.3l-16.8-5.4l-10.9,3.6l-7.7,4.1l1.8,9.5
	l-10,4.5l-7.2-2.3l-13.1-0.5v-41.7v-41.2l22.2,8.6l23.6,7.2l8.6,6.3l7.2,6.3l1.8,7.2l21.3,7.7l3.2,6.8l-11.8,1.4L545.4,257z
	 M620.1,220.3l-4.1,3.2l-2.3-7.2l-3.2-5l-5.9-4.1l-7.2-5.4l-9.1-3.6l3.6-3.2l6.8,3.6l4.5,2.7l5.4,3.2l5,5.4l5,4.1L620.1,220.3z"/>
<path class="SB" class="st0" d="M733.8,296.9l3.6,4.5h-9.1l-5-7.7l7.7,3.2H733.8z M717.9,288.7l-5,0.5l-7.7-1.4l-2.7-1.8l0.9-5l8.2,1.8
	l4.1,2.7L717.9,288.7z M728.4,285.1l-1.8,2.3L717,276l-2.7-7.7h4.5l4.5,10L728.4,285.1z M705.3,269.2l0.5,2.7l-10-5.4L689,262
	l-4.5-4.1l1.8-1.4l5.9,3.2l10.4,5.9L705.3,269.2z M676.3,256.6l-2.7,0.9l-5.4-2.7l-5.4-5l0.5-2.3l7.7,5.4L676.3,256.6z"/>
<path class="VU" class="st0" d="M806.3,373.9l-4.1,1.8l-4.5-5.9l0.5-3.6L806.3,373.9z M796.8,353.9l2.3,10.4l-3.6-1.8l-2.7,0.9
	l-1.8-3.6l-0.5-10L796.8,353.9z"/>
</svg>
