<?xml version="1.0" encoding="UTF-8" standalone="no"?>
<!-- Created with Inkscape (http://www.inkscape.org/) -->

<svg
   xmlns:dc="http://purl.org/dc/elements/1.1/"
   xmlns:cc="http://creativecommons.org/ns#"
   xmlns:rdf="http://www.w3.org/1999/02/22-rdf-syntax-ns#"
   xmlns:svg="http://www.w3.org/2000/svg"
   xmlns="http://www.w3.org/2000/svg"
   version="1.1"
   width="166.67656"
   height="47.779869"
   id="svg3803">
  <defs
     id="defs3805" />
  <metadata
     id="metadata3808">
    <rdf:RDF>
      <cc:Work
         rdf:about="">
        <dc:format>image/svg+xml</dc:format>
        <dc:type
           rdf:resource="http://purl.org/dc/dcmitype/StillImage" />
        <dc:title></dc:title>
      </cc:Work>
    </rdf:RDF>
  </metadata>
  <g
     transform="translate(-291.66172,-508.47013)"
     id="layer1">
    <g
       id="g3910">
      <g
         id="text2987"
         style="font-size:25px;font-style:normal;font-variant:normal;font-weight:900;font-stretch:normal;text-align:start;line-height:100%;letter-spacing:0px;word-spacing:0px;writing-mode:lr-tb;text-anchor:start;fill:#000000;fill-opacity:1;stroke:none;font-family:Helvetica LT Std;-inkscape-font-specification:Helvetica LT Std Heavy">
        <path
           d="m 297.56172,513.14513 2.75,0 c 1.375,0 2.375,0.6 2.375,1.875 0,1.25 -0.975,1.7 -2.8,1.7 l -2.325,0 0,-3.575 m 1.8,7.525 c 2.75,0 3.15,0.775 3.15,3.125 0,1.6 0.15,2.75 0.3,3.15 l 5.975,0 0,-0.55 c -0.7,0 -0.625,-0.8 -0.625,-3.15 0,-3.625 -1.15,-4.075 -3.05,-4.775 2.1,-0.575 3.025,-2.325 3.025,-4.4 0,-3.5 -1.97501,-5.125 -7.975,-5.125 l -8.5,0 0,18 5.9,0 0,-6.275 1.8,0"
           id="path3831"
           style="line-height:100%;fill:#000000;font-family:Helvetica LT Std;-inkscape-font-specification:Helvetica LT Std Heavy" />
        <path
           d="m 326.49531,526.94513 0,-4.2 -9.125,0 0,-2.825 7.425,0 0,-4.2 -7.425,0 0,-2.575 8.775,0 0,-4.2 -14.675,0 0,18 15.025,0"
           id="path3833"
           style="line-height:100%;fill:#000000;font-family:Helvetica LT Std;-inkscape-font-specification:Helvetica LT Std Heavy" />
        <path
           d="m 334.96172,517.14513 0,-4 1.675,0 c 1.25,0 3.15,0.225 3.15,1.9 0,1.55 -1,2.1 -2.375,2.1 l -2.45,0 m 0,9.8 0,-5.6 2.975,0 c 5.17499,0 7.475,-2.45 7.475,-6.325 0,-3.7 -2.50001,-6.075 -7.675,-6.075 l -8.675,0 0,18 5.9,0"
           id="path3835"
           style="line-height:100%;fill:#000000;font-family:Helvetica LT Std;-inkscape-font-specification:Helvetica LT Std Heavy" />
        <path
           d="m 356.05313,512.87013 c 2.59999,-0.075 3.59999,2.525 3.59999,4.975 0,2.975 -1,5.175 -3.55,5.175 -2.82499,0 -3.525,-2.875 -3.525,-5.175 0,-2.275 0.80001,-4.975 3.47501,-4.975 m 0.05,-4.4 c -5.59999,0 -9.42499,3.67501 -9.42499,9.325 0,6.12499 3.775,9.625 9.42499,9.625 5.325,0 9.45001,-3.45001 9.45001,-9.575 0,-4.75 -3.02501,-9.375 -9.45001,-9.375"
           id="path3837"
           style="line-height:100%;fill:#000000;font-family:Helvetica LT Std;-inkscape-font-specification:Helvetica LT Std Heavy" />
        <path
           d="m 373.97773,513.14513 2.75,0 c 1.375,0 2.375,0.6 2.375,1.875 0,1.25 -0.975,1.7 -2.8,1.7 l -2.325,0 0,-3.575 m 1.8,7.525 c 2.75,0 3.15,0.775 3.15,3.125 0,1.6 0.15,2.75 0.3,3.15 l 5.975,0 0,-0.55 c -0.69999,0 -0.625,-0.8 -0.625,-3.15 0,-3.625 -1.15,-4.075 -3.05,-4.775 2.1,-0.575 3.025,-2.325 3.025,-4.4 0,-3.5 -1.975,-5.125 -7.975,-5.125 l -8.5,0 0,18 5.9,0 0,-6.275 1.8,0"
           id="path3839"
           style="line-height:100%;fill:#000000;font-family:Helvetica LT Std;-inkscape-font-specification:Helvetica LT Std Heavy" />
        <path
           d="m 386.32187,513.67013 5.3,0 0,13.275 5.90001,0 0,-13.275 5.29999,0 0,-4.725 -16.5,0 0,4.725"
           id="path3841"
           style="line-height:100%;fill:#000000;font-family:Helvetica LT Std;-inkscape-font-specification:Helvetica LT Std Heavy" />
        <path
           d="m 420.53828,526.94513 0,-4.2 -9.125,0 0,-2.825 7.425,0 0,-4.2 -7.425,0 0,-2.575 8.775,0 0,-4.2 -14.675,0 0,18 15.025,0"
           id="path3843"
           style="line-height:100%;fill:#000000;font-family:Helvetica LT Std;-inkscape-font-specification:Helvetica LT Std Heavy" />
        <path
           d="m 429.10469,513.14513 2.75,0 c 1.375,0 2.375,0.6 2.375,1.875 0,1.25 -0.975,1.7 -2.8,1.7 l -2.325,0 0,-3.575 m 1.8,7.525 c 2.74999,0 3.15,0.775 3.15,3.125 0,1.6 0.15,2.75 0.3,3.15 l 5.975,0 0,-0.55 c -0.7,0 -0.625,-0.8 -0.625,-3.15 0,-3.625 -1.15,-4.075 -3.05,-4.775 2.1,-0.575 3.025,-2.325 3.025,-4.4 0,-3.5 -1.97501,-5.125 -7.975,-5.125 l -8.5,0 0,18 5.9,0 0,-6.275 1.8,0"
           id="path3845"
           style="line-height:100%;fill:#000000;font-family:Helvetica LT Std;-inkscape-font-specification:Helvetica LT Std Heavy" />
        <path
           d="m 457.83828,514.17013 c -0.425,-3.15 -2.7,-5.7 -7.7,-5.7 -4.49999,0 -7.8,1.925 -7.8,5.75 0,6.87499 10.35,5 10.35,7.725 0,0.85 -0.975,1.325 -2.45,1.325 -0.575,0 -1.2,-0.15 -1.675,-0.45 -0.5,-0.3 -0.85,-0.775 -0.975,-1.425 l -5.65,0 c 0.125,3.25 3.22501,6.025 7.975,6.025 4.95,0 8.425,-2.025 8.425,-6.2 0,-6.54999 -10.35,-4.875 -10.35,-7.575 0,-0.65 0.575,-1.025 1.875,-1.025 0.575,0 1.1,0.1 1.525,0.325 0.425,0.225 0.75,0.6 0.85,1.225 l 5.6,0"
           id="path3847"
           style="line-height:100%;fill:#000000;font-family:Helvetica LT Std;-inkscape-font-specification:Helvetica LT Std Heavy" />
      </g>
    </g>
    <g
       id="g3922">
      <g
         id="text2991"
         style="font-size:15.11320877px;font-style:normal;font-variant:normal;font-weight:900;font-stretch:normal;text-align:start;line-height:125%;letter-spacing:0px;word-spacing:0px;writing-mode:lr-tb;text-anchor:start;fill:#000000;fill-opacity:1;stroke:none;font-family:Helvetica LT Std;-inkscape-font-specification:Helvetica LT Std Heavy">
        <path
           d="m 300.67371,531.22512 -2.94708,0 -1.29973,6.72538 -0.0302,0 -1.22417,-6.72538 -3.44581,0 2.70526,10.88151 3.50627,0 1.23928,-6.31732 0.0302,0 1.25439,6.31732 3.50627,0 2.70526,-10.88151 -3.44581,0 -1.22417,6.72538 -0.0302,0 -1.29973,-6.72538"
           id="path3850" />
        <path
           d="m 311.47965,542.10663 0,-10.88151 -3.56671,0 0,10.88151 3.56671,0"
           id="path3852" />
        <path
           d="m 313.10692,534.08151 3.204,0 0,8.02512 3.56672,0 0,-8.02512 3.204,0 0,-2.85639 -9.97472,0 0,2.85639"
           id="path3854" />
        <path
           d="m 328.16959,542.10663 0,-4.21659 3.37025,0 0,4.21659 3.56672,0 0,-10.88151 -3.56672,0 0,3.67251 -3.37025,0 0,-3.67251 -3.56671,0 0,10.88151 3.56671,0"
           id="path3856" />
        <path
           d="m 342.42111,533.59789 c 1.57178,-0.0453 2.17631,1.52644 2.17631,3.00753 0,1.79847 -0.60453,3.12843 -2.14608,3.12843 -1.70779,0 -2.13096,-1.73802 -2.13096,-3.12843 0,-1.3753 0.48362,-3.00753 2.10073,-3.00753 m 0.0302,-2.65992 c -3.38535,0 -5.69768,2.22164 -5.69768,5.63722 0,3.70274 2.2821,5.81859 5.69768,5.81859 3.21911,0 5.71279,-2.08563 5.71279,-5.78836 0,-2.87151 -1.8287,-5.66745 -5.71279,-5.66745"
           id="path3858" />
        <path
           d="m 349.82635,537.36108 c 0,3.74807 1.87404,5.0327 5.24428,5.0327 3.61206,0 5.22917,-1.52644 5.22917,-5.01759 l 0,-6.15107 -3.56671,0 0,6.51379 c 0,1.17883 -0.37784,1.99494 -1.66246,1.99494 -1.46598,0 -1.67756,-0.9219 -1.67756,-1.99494 l 0,-6.51379 -3.56672,0 0,6.13596"
           id="path3860" />
        <path
           d="m 361.84111,534.08151 3.204,0 0,8.02512 3.56672,0 0,-8.02512 3.204,0 0,-2.85639 -9.97472,0 0,2.85639"
           id="path3862" />
        <path
           d="m 383.13019,537.55755 c 1.13349,0 1.96472,0.0605 1.96472,1.01259 0,0.81611 -0.66498,0.99747 -1.54155,0.99747 l -1.55666,0 0,-2.01006 1.13349,0 m 0.12091,-3.79341 c 0.75566,0 1.45087,0.0151 1.45087,0.86145 0,0.63475 -0.51385,0.95213 -1.22417,0.95213 l -1.4811,0 0,-1.81358 1.2544,0 m 0.48362,8.34249 c 2.82617,0 4.6851,-0.84634 4.6851,-3.27957 0,-1.17883 -0.63476,-2.19141 -1.81359,-2.49368 0.69521,-0.43828 1.42064,-1.25439 1.42064,-2.37277 0,-2.16119 -1.9496,-2.73549 -4.39794,-2.73549 l -5.19894,0 0,10.88151 5.30473,0"
           id="path3864" />
        <path
           d="m 395.34686,533.59789 c 1.57178,-0.0453 2.17631,1.52644 2.17631,3.00753 0,1.79847 -0.60453,3.12843 -2.14608,3.12843 -1.70779,0 -2.13096,-1.73802 -2.13096,-3.12843 0,-1.3753 0.48362,-3.00753 2.10073,-3.00753 m 0.0302,-2.65992 c -3.38535,0 -5.69768,2.22164 -5.69768,5.63722 0,3.70274 2.2821,5.81859 5.69768,5.81859 3.21911,0 5.71279,-2.08563 5.71279,-5.78836 0,-2.87151 -1.8287,-5.66745 -5.71279,-5.66745"
           id="path3866" />
        <path
           d="m 406.1828,533.76414 1.66245,0 c 0.83123,0 1.43576,0.36271 1.43576,1.13349 0,0.75566 -0.58942,1.0277 -1.69268,1.0277 l -1.40553,0 0,-2.16119 m 1.08815,4.54907 c 1.66245,0 1.90426,0.46851 1.90426,1.88915 0,0.96725 0.0907,1.66246 0.18136,1.90427 l 3.61206,0 0,-0.33249 c -0.42317,0 -0.37783,-0.48363 -0.37783,-1.90427 0,-2.19141 -0.69521,-2.46345 -1.84381,-2.88662 1.26951,-0.3476 1.8287,-1.40553 1.8287,-2.65992 0,-2.11585 -1.19395,-3.09821 -4.82112,-3.09821 l -5.13849,0 0,10.88151 3.56672,0 0,-3.79342 1.08815,0"
           id="path3868" />
        <path
           d="m 417.99141,533.76414 0.6801,0 c 1.90426,0 2.64481,0.60453 2.64481,2.87151 0,2.05539 -0.9068,2.93196 -2.56925,2.93196 l -0.75566,0 0,-5.80347 m 1.11838,8.34249 c 3.49115,0 5.77325,-1.57178 5.77325,-5.66745 0,-3.58183 -2.17631,-5.21406 -5.68257,-5.21406 l -4.77577,0 0,10.88151 4.68509,0"
           id="path3870" />
        <path
           d="m 435.42213,542.10663 0,-2.53902 -5.51632,0 0,-1.70779 4.48862,0 0,-2.53902 -4.48862,0 0,-1.55666 5.30474,0 0,-2.53902 -8.87146,0 0,10.88151 9.08304,0"
           id="path3872" />
        <path
           d="m 440.60078,533.76414 1.66245,0 c 0.83122,0 1.43575,0.36271 1.43575,1.13349 0,0.75566 -0.58941,1.0277 -1.69268,1.0277 l -1.40552,0 0,-2.16119 m 1.08815,4.54907 c 1.66245,0 1.90426,0.46851 1.90426,1.88915 0,0.96725 0.0907,1.66246 0.18136,1.90427 l 3.61206,0 0,-0.33249 c -0.42317,0 -0.37783,-0.48363 -0.37783,-1.90427 0,-2.19141 -0.69521,-2.46345 -1.84382,-2.88662 1.26951,-0.3476 1.8287,-1.40553 1.8287,-2.65992 0,-2.11585 -1.19394,-3.09821 -4.82111,-3.09821 l -5.13849,0 0,10.88151 3.56672,0 0,-3.79342 1.08815,0"
           id="path3874" />
        <path
           d="m 457.97104,534.38378 c -0.25692,-1.90426 -1.63223,-3.44581 -4.65487,-3.44581 -2.72037,0 -4.71532,1.16372 -4.71532,3.47604 0,4.15612 6.25687,3.02264 6.25687,4.66998 0,0.51385 -0.58941,0.801 -1.48109,0.801 -0.34761,0 -0.72544,-0.0907 -1.01259,-0.27204 -0.30226,-0.18136 -0.51385,-0.46851 -0.58941,-0.86145 l -3.41559,0 c 0.0756,1.96471 1.94961,3.64228 4.82112,3.64228 2.99241,0 5.09315,-1.22417 5.09315,-3.74808 0,-3.95965 -6.25687,-2.94707 -6.25687,-4.5793 0,-0.39294 0.3476,-0.61964 1.13349,-0.61964 0.3476,0 0.66498,0.0604 0.9219,0.19647 0.25693,0.13602 0.4534,0.36272 0.51385,0.74055 l 3.38536,0"
           id="path3876" />
      </g>
    </g>
    <g
       id="g3957">
      <path
         d="m 292.19516,544.19446 165.60966,0 0,11.99729 -165.60966,0 z"
         id="rect3016"
         style="fill:#b90102;fill-opacity:1;stroke:#ff0000;stroke-width:0.1;stroke-linecap:round;stroke-linejoin:round;stroke-miterlimit:4;stroke-opacity:1" />
      <g
         id="g3939">
        <g
           id="text2991-0"
           style="font-size:10.18295383px;font-style:normal;font-variant:normal;font-weight:900;font-stretch:normal;text-align:start;line-height:125%;letter-spacing:0px;word-spacing:0px;writing-mode:lr-tb;text-anchor:start;fill:#ffffff;fill-opacity:1;stroke:none;font-family:Helvetica LT Std;-inkscape-font-specification:Helvetica LT Std Heavy">
          <path
             d="m 316.67619,554.07361 0,-2.57629 2.6272,0 0,-1.71074 -2.6272,0 0,-1.33396 3.29927,0 0,-1.71074 -5.70245,0 0,7.33173 2.40318,0"
             id="path3880" />
          <path
             d="m 324.53711,548.34061 c 1.05902,-0.0305 1.46634,1.02847 1.46634,2.0264 0,1.21177 -0.40732,2.10787 -1.44598,2.10787 -1.15067,0 -1.43579,-1.17104 -1.43579,-2.10787 0,-0.92664 0.32585,-2.0264 1.41543,-2.0264 m 0.0204,-1.7922 c -2.28098,0 -3.83897,1.49689 -3.83897,3.79824 0,2.49482 1.53763,3.92043 3.83897,3.92043 2.16897,0 3.84916,-1.40525 3.84916,-3.90007 0,-1.93476 -1.23214,-3.8186 -3.84916,-3.8186"
             id="path3882" />
          <path
             d="m 331.83813,548.45262 1.12012,0 c 0.56006,0 0.96738,0.24439 0.96738,0.76372 0,0.50915 -0.39713,0.69244 -1.14049,0.69244 l -0.94701,0 0,-1.45616 m 0.73317,3.06507 c 1.12012,0 1.28305,0.31567 1.28305,1.27287 0,0.6517 0.0611,1.12012 0.1222,1.28305 l 2.43372,0 0,-0.22403 c -0.28512,0 -0.25457,-0.32585 -0.25457,-1.28305 0,-1.47653 -0.46842,-1.65982 -1.24232,-1.94494 0.85537,-0.23421 1.23214,-0.94702 1.23214,-1.7922 0,-1.42561 -0.80446,-2.08751 -3.24837,-2.08751 l -3.4622,0 0,7.33173 2.40318,0 0,-2.55592 0.73317,0"
             id="path3884" />
          <path
             d="m 343.114,550.08189 0,-1.62927 0.68226,0 c 0.50914,0 1.28305,0.0916 1.28305,0.7739 0,0.63134 -0.40732,0.85537 -0.96738,0.85537 l -0.99793,0 m 0,3.99172 0,-2.28098 1.21177,0 c 2.10787,0 3.0447,-0.99793 3.0447,-2.57629 0,-1.50708 -1.0183,-2.47446 -3.12616,-2.47446 l -3.53349,0 0,7.33173 2.40318,0"
             id="path3886" />
          <path
             d="m 350.5135,548.45262 1.12013,0 c 0.56006,0 0.96738,0.24439 0.96738,0.76372 0,0.50915 -0.39714,0.69244 -1.14049,0.69244 l -0.94702,0 0,-1.45616 m 0.73318,3.06507 c 1.12012,0 1.28305,0.31567 1.28305,1.27287 0,0.6517 0.0611,1.12012 0.12219,1.28305 l 2.43373,0 0,-0.22403 c -0.28512,0 -0.25457,-0.32585 -0.25457,-1.28305 0,-1.47653 -0.46842,-1.65982 -1.24232,-1.94494 0.85536,-0.23421 1.23213,-0.94702 1.23213,-1.7922 0,-1.42561 -0.80445,-2.08751 -3.24836,-2.08751 l -3.4622,0 0,7.33173 2.40317,0 0,-2.55592 0.73318,0"
             id="path3888" />
          <path
             d="m 362.29868,554.07361 0,-1.71074 -3.71678,0 0,-1.15067 3.02434,0 0,-1.71074 -3.02434,0 0,-1.04884 3.57422,0 0,-1.71074 -5.97739,0 0,7.33173 6.11995,0"
             id="path3890" />
          <path
             d="m 369.576,548.87012 c -0.17311,-1.28305 -1.09977,-2.32171 -3.13635,-2.32171 -1.83293,0 -3.17709,0.78408 -3.17709,2.34207 0,2.80031 4.21575,2.0366 4.21575,3.14654 0,0.34622 -0.39714,0.53969 -0.99793,0.53969 -0.23421,0 -0.48878,-0.0611 -0.68226,-0.18329 -0.20366,-0.12219 -0.34622,-0.31567 -0.39714,-0.58043 l -2.30134,0 c 0.0509,1.32379 1.3136,2.45409 3.24836,2.45409 2.01622,0 3.43165,-0.82482 3.43165,-2.52537 0,-2.66793 -4.21574,-1.98568 -4.21574,-3.08543 0,-0.26476 0.23421,-0.4175 0.76372,-0.4175 0.23421,0 0.44805,0.0407 0.62116,0.13237 0.17311,0.0917 0.30549,0.2444 0.34622,0.49897 l 2.28099,0"
             id="path3892" />
          <path
             d="m 376.93477,548.87012 c -0.17311,-1.28305 -1.09976,-2.32171 -3.13635,-2.32171 -1.83293,0 -3.17708,0.78408 -3.17708,2.34207 0,2.80031 4.21574,2.0366 4.21574,3.14654 0,0.34622 -0.39713,0.53969 -0.99793,0.53969 -0.2342,0 -0.48878,-0.0611 -0.68225,-0.18329 -0.20366,-0.12219 -0.34622,-0.31567 -0.39714,-0.58043 l -2.30135,0 c 0.0509,1.32379 1.31361,2.45409 3.24837,2.45409 2.01622,0 3.43165,-0.82482 3.43165,-2.52537 0,-2.66793 -4.21574,-1.98568 -4.21574,-3.08543 0,-0.26476 0.23421,-0.4175 0.76372,-0.4175 0.23421,0 0.44805,0.0407 0.62116,0.13237 0.17311,0.0917 0.30549,0.2444 0.34622,0.49897 l 2.28098,0"
             id="path3894" />
          <path
             d="m 384.03881,554.07361 0,-2.57629 2.6272,0 0,-1.71074 -2.6272,0 0,-1.33396 3.29928,0 0,-1.71074 -5.70246,0 0,7.33173 2.40318,0"
             id="path3896" />
          <path
             d="m 390.70833,548.45262 1.12012,0 c 0.56006,0 0.96738,0.24439 0.96738,0.76372 0,0.50915 -0.39713,0.69244 -1.14049,0.69244 l -0.94701,0 0,-1.45616 m 0.73317,3.06507 c 1.12012,0 1.28305,0.31567 1.28305,1.27287 0,0.6517 0.0611,1.12012 0.1222,1.28305 l 2.43372,0 0,-0.22403 c -0.28512,0 -0.25457,-0.32585 -0.25457,-1.28305 0,-1.47653 -0.46842,-1.65982 -1.24232,-1.94494 0.85537,-0.23421 1.23214,-0.94702 1.23214,-1.7922 0,-1.42561 -0.80446,-2.08751 -3.24837,-2.08751 l -3.4622,0 0,7.33173 2.40318,0 0,-2.55592 0.73317,0"
             id="path3898" />
          <path
             d="m 402.49351,554.07361 0,-1.71074 -3.71678,0 0,-1.15067 3.02434,0 0,-1.71074 -3.02434,0 0,-1.04884 3.57422,0 0,-1.71074 -5.9774,0 0,7.33173 6.11996,0"
             id="path3900" />
          <path
             d="m 409.85228,554.07361 0,-1.71074 -3.71678,0 0,-1.15067 3.02434,0 0,-1.71074 -3.02434,0 0,-1.04884 3.57422,0 0,-1.71074 -5.9774,0 0,7.33173 6.11996,0"
             id="path3902" />
          <path
             d="m 413.38227,548.45262 0.45823,0 c 1.28305,0 1.78202,0.40732 1.78202,1.93476 0,1.38488 -0.61098,1.97549 -1.7311,1.97549 l -0.50915,0 0,-3.91025 m 0.75354,5.62099 c 2.35226,0 3.88989,-1.05903 3.88989,-3.81861 0,-2.41336 -1.46635,-3.51312 -3.82879,-3.51312 l -3.21782,0 0,7.33173 3.15672,0"
             id="path3904" />
          <path
             d="m 422.44859,548.34061 c 1.05903,-0.0305 1.46635,1.02847 1.46635,2.0264 0,1.21177 -0.40732,2.10787 -1.44598,2.10787 -1.15067,0 -1.4358,-1.17104 -1.4358,-2.10787 0,-0.92664 0.32586,-2.0264 1.41543,-2.0264 m 0.0204,-1.7922 c -2.28098,0 -3.83898,1.49689 -3.83898,3.79824 0,2.49482 1.53763,3.92043 3.83898,3.92043 2.16896,0 3.84915,-1.40525 3.84915,-3.90007 0,-1.93476 -1.23214,-3.8186 -3.84915,-3.8186"
             id="path3906" />
          <path
             d="m 429.49504,554.07361 0,-2.48464 -0.0509,-1.14049 -0.10183,-1.0794 0.0204,0 1.33396,4.70453 1.67001,0 1.33396,-4.70453 0.0204,0 -0.1222,1.32379 -0.0305,1.14049 0,2.24025 2.15878,0 0,-7.33173 -2.90214,0 -1.29324,4.57215 -1.29323,-4.57215 -2.90214,0 0,7.33173 2.15878,0"
             id="path3908" />
        </g>
      </g>
    </g>
  </g>
</svg>
