<?xml version="1.0" encoding="utf-8"?>
<!-- Generator: Adobe Illustrator 20.1.0, SVG Export Plug-In . SVG Version: 6.00 Build 0)  -->
<svg version="1.1" id="Layer_1" xmlns="http://www.w3.org/2000/svg" xmlns:xlink="http://www.w3.org/1999/xlink" x="0px" y="0px"
	 viewBox="0 0 1024 1024" style="enable-background:new 0 0 1024 1024;" xml:space="preserve">
<style type="text/css">
	.st0{fill:#424242;stroke:#FFFFFF;stroke-width:0.5;}
</style>
<path class="AR" class="st0" d="M475.2,938.1l-10.4,0.8l-5.4-6.6l-6.6-0.4h-11.6V891l4.2,8.5l5.4,13.5l13.9,11.2l15.1,4.6L475.2,938.1z
	 M481,467.5l6.2,8.5l4.2-9.3l12.4,0.4l1.9,2.3l19.7,18.9l8.9,1.9l13.1,8.9l11.2,4.6l1.5,5.4l-10.8,18.1l10.8,3.1l12,1.9l8.5-1.9
	l9.7-9.3l1.9-10.4l5.4-2.3l5.4,6.9l-0.4,9.7l-9.3,6.6l-7.3,5l-12.4,12l-14.3,17l-2.7,10l-3.1,13.1v12.7l-2.3,2.7l-0.8,8.5l-0.8,6.9
	l13.9,11.2l-1.5,9.3l6.9,5.8l-0.4,6.6l-10.4,17.4l-16.2,7.3l-21.6,3.1l-12-1.5l2.3,8.5l-2.3,10.4l1.9,6.9l-6.6,5l-11.2,1.9
	l-10.4-6.2l-4.2,3.9l1.5,14.3l7.3,4.2l5.8-4.6l3.1,7.7l-10,4.6l-8.5,9.3l-1.5,15.1l-2.7,8.1h-10l-8.5,7.7l-3.1,11.6l10.8,11.6
	l10.4,3.1l-3.9,14.3l-12.7,9.3l-6.9,19.3l-10,6.6l-4.2,8.1l3.5,17.8l7.3,10l-4.6-0.8l-10-2.7l-26.3-2.3l-4.6-10v-12.7l-7.3,1.2
	l-3.9-6.2l-0.8-17.8l8.1-7.3l3.5-10.4l-1.2-8.1l5.8-13.5L408,776l-1.2-8.9l4.6-3.1l-1.2-5.8l-5-3.1l3.5-6.2l-5-5.8l-2.3-17l4.2-3.1
	l-1.9-17.4l2.7-14.7l3.1-12.4l6.6-5l-3.5-13.5v-12.4l8.1-8.9l-0.4-10.8l6.2-12.7v-12l-2.7-2.3l-5-22l6.6-12.7l-1.2-11.6l3.9-11.2
	L435,532l7.7-7.7l-0.8-5l2.3-3.9l-0.4-19.7l11.6-5.8l3.9-12.4l-1.2-3.1l8.9-10.4L481,467.5z"/>
<path class="BO" class="st0" d="M503.4,466.7l-12.4-0.4l-4.2,9.3l-6.2-8.5l-14.3-2.7l-8.9,10.4l-7.7,1.5l-4.2-16.2l-5.8-12.7l3.5-11.2
	l-5.8-4.6l-1.5-8.1l-5.4-7.7l6.9-12l-4.6-9.3l2.3-3.9l-1.9-4.2l4.2-5.4l0.4-9.3l0.4-7.7l2.3-3.9l-9.3-17.8l8.1,0.8l5.4-0.4l2.3-3.5
	l9.7-4.2l5.8-4.2l14.3-1.9l-1.2,8.1l1.2,4.2l-0.8,7.3l12,9.7l12,1.9l4.2,4.2l7.3,2.3l4.6,3.1h6.9l6.2,3.5l0.4,6.6l1.9,3.1v4.6h-3.1
	l4.2,13.1l20.8,0.4l-1.5,6.6l1.2,4.2l5.8,3.1l2.7,6.9l-1.9,8.9l-3.1,5l1.2,6.6l-3.5,2.3v-3.5l-10-5.8h-10l-18.9,3.5l-5,10l-0.4,6.2
	l-4.2,13.9L503.4,466.7z"/>
<path class="BR" class="st0" d="M560.1,564.8l14.3-17l12.4-12l7.3-5l9.3-6.6l0.4-9.7l-5.4-6.9l-5.4,2.3l2.3-6.9l1.5-6.9v-6.6l-3.9-1.9
	l-4.2,1.9l-3.9-0.4l-1.2-4.6l-1.2-10.8l-1.9-3.5l-7.3-3.1l-4.2,2.3l-11.6-2.3l0.8-15.8l-3.1-6.6l3.5-2.3l-1.2-6.6l3.1-5l1.9-8.9
	l-2.7-6.9l-5.8-3.1l-1.2-4.2l1.5-6.6l-20.8-0.4l-4.2-13.1h3.1v-4.6l-1.9-3.1l-0.4-6.6l-6.2-3.5h-6.9l-4.6-3.1l-7.3-2.3l-4.2-4.2
	l-12-1.9l-12-9.7l0.8-7.3l-1.2-4.2l1.2-8.1l-14.3,1.9l-5.8,4.2l-9.7,4.2l-2.3,3.5l-5.4,0.4l-8.1-0.8l-6.2,1.9l-5-1.2l0.8-16.6
	l-8.9,6.6l-9.7-0.4l-4.2-5.8l-7.3-0.8l2.3-4.6l-6.2-6.6l-4.6-9.7l2.7-1.9v-3.5l6.6-3.1l-1.2-5.8l2.7-3.9l0.8-5l12.4-7.3l8.9-1.9
	l1.5-1.5l9.7,0.4l5-29.3l0.4-4.6l-1.5-6.2l-4.6-3.9V220l6.2-1.9l2.3,1.2l0.4-4.2l-6.2-1.2v-6.6l21.2,0.4l3.5-3.9l3.1,3.5l1.9,6.2
	l1.9-1.2l6.2,5.8l8.5-0.8l1.9-3.5l8.1-2.3l4.6-1.5l1.2-4.6l7.7-3.1l-0.8-2.3l-9.3-0.8l-1.5-6.9l0.4-7.3l-4.6-2.7l1.9-1.2l8.1,1.5
	l8.5,2.7l3.1-2.7l7.7-1.5l12-3.9l3.9-4.2l-1.5-3.1l5.8-0.4l2.7,2.3l-1.5,4.6l3.9,1.5l2.3,5l-3.1,3.9l-1.9,9.3l2.7,5.4l0.8,5l6.6,5
	l5.4,0.4l1.2-1.9l3.5-0.4l5-1.9l3.5-2.7l6.2,0.8l2.7-0.4l5.8,0.8l0.8-2.3l-1.9-1.9l1.2-3.1l4.2,0.8l5-1.2l6.2,2.3l4.6,2.3l3.5-3.1
	l2.3,0.4l1.5,3.1l5-0.8l4.2-4.2l3.5-8.1l6.6-10l3.9-0.4l2.7,5.8l6.2,18.9l5.8,1.9l0.4,7.3l-8.1,8.9l3.5,3.1l19.3,1.5l0.4,10.8
	l8.1-6.9l13.5,3.9l17.8,6.6l5.4,6.2l-1.9,5.8l12.7-3.5l21.2,5.8l16.2-0.4l15.8,8.9l13.9,12l8.5,3.1l9.3,0.4l3.9,3.5l3.9,13.9
	l1.9,6.6l-4.2,18.1l-5.4,6.9L784,343.9l-6.9,12.4l-9.3,9.3l-2.7,0.4l-3.1,8.1l0.8,20.8l-3.1,17.4l-1.2,7.3l-3.5,4.6l-1.9,15.1
	l-10.8,15.1l-1.5,11.6l-8.9,5l-2.7,6.9h-11.6l-17,4.6l-7.7,5l-12,3.5l-12.7,9.3l-9.3,12l-1.5,8.9l1.9,6.6l-1.9,12.4l-2.3,5.8
	l-7.7,6.9l-12,22l-9.7,10l-7.3,5.8l-5,12.4l-7.3,7.3L603,603l4.6-6.2l-6.2-8.5l-8.5-6.9l-11.2-8.1l-3.9,0.4l-10.8-9.7L560.1,564.8z"
	/>
<path class="CL" class="st0" d="M441.2,891v40.9h11.6l6.6,0.4l-3.5,7.7l-9.3,5.8l-5.4-0.8l-6.6-1.5l-7.7-5.8l-11.2-2.7l-13.5-10.4
	l-11.2-10L376,894.5l8.9,3.9l15.1,12l14.3,6.6l5.8-8.5l3.5-12.4l10-7.3L441.2,891z M445.8,460.5l4.2,16.2l7.7-1.5l1.2,3.1l-3.9,12.4
	l-11.6,5.8l0.4,19.7l-2.3,3.9l3.1,4.6l-7.7,7.7l-6.9,11.6l-3.9,11.2l1.2,12l-6.6,12.7l5,22l2.7,2.3v12l-6.2,12.7l0.4,11.2l-8.1,8.9
	v12.4l3.5,13.5l-6.6,5l-3.1,12.4l-2.7,14.7l1.9,17.4l-4.2,3.1l2.3,17l5,5.8l-3.5,6.2l5,3.1l1.2,5.8l-4.6,1.9l1.2,8.9l-3.9,20.5
	l-5.8,13.5l1.2,8.1l-3.5,10.4l-8.1,7.3l0.8,17.8l3.9,6.2l7.3-1.2v12.7l4.6,10l26.3,2.3l10,2.7h-9.7l-5.4,4.2l-9.7,6.6l-1.9,17
	l-4.6,0.4l-12.4-5.8l-12.4-12.4l0,0l-13.5-10l-3.5-11.2l3.1-10l-5.4-11.2l-1.5-28.2l4.6-15.4l11.6-12.4l-16.6-4.6l10.4-13.9
	l3.9-25.5l12,5.4l5.8-30.9l-7.3-3.9l-3.5,18.5l-6.9-1.9l3.5-20.8l3.9-26.3l5-9.7l-3.1-13.5l-0.8-15.4l4.6-0.4l6.6-21.6l7.3-20.8
	l4.6-19.3l-2.3-18.9l3.1-10.4l-1.2-15.4l6.2-15.1l1.9-23.2l3.5-24.7l3.5-26.3l-0.8-18.9l-2.3-16.2l5.4-3.1l3.1-5.8l5.4,7.7l1.5,8.1
	l5.8,4.6l-3.5,11.2L445.8,460.5z"/>
<path class="CO" class="st0" d="M368.6,226.6l-4.6-2.7l-5.4-3.5l-3.1,1.5l-9.3-1.5l-2.7-4.6l-1.9,0.4l-10.8-6.2l-1.5-3.5l4.2-0.8
	l-0.4-5.4l2.7-3.9l5.4-0.8l4.6-6.9l4.2-5.8l-3.9-2.7l1.9-6.2l-2.3-10l2.3-2.7l-1.5-9.3l-4.2-5.8l1.5-5.4l3.5,0.8l1.9-3.1l-2.3-6.2
	l1.2-1.5l5.4,0.4l8.1-7.7l4.2-1.2v-3.5l1.9-9.3l6.2-5l6.9-0.4l0.8-2.3l8.5,0.8l8.5-5.4l4.2-2.3l5.4-5.4l3.9,0.8l2.7,3.1l-1.9,3.9
	l-6.9,1.9l-2.7,5.4l-4.2,3.1l-3.1,4.2l-1.5,7.7l-3.1,6.6l5.4,0.8l1.5,5l2.3,2.3l0.8,4.2l-1.2,3.9l0.4,2.3l2.7,0.8l2.7,3.9l13.9-1.2
	l6.2,1.5l7.7,9.3l4.2-1.2l7.7,0.4l6.2-1.2l3.9,1.9l-1.9,5.8l-2.7,3.9l-0.8,7.7l2.3,7.3l3.1,3.1l0.4,2.3l-5.4,5.4l3.9,2.3l3.1,3.9
	l3.1,10.8l-1.9,1.2l-1.9-6.2l-3.1-3.5l-3.5,3.9l-21.2-0.4v6.6l6.2,1.2l-0.4,4.2l-2.3-1.2l-6.2,1.9v7.7l4.6,3.9l1.5,6.2l-0.4,4.6
	l-5,29.3l-5.4-5.8l-3.1-0.4l6.9-10.8l-8.1-5l-6.6,0.8l-3.9-1.9l-6.2,2.7l-8.1-1.5l-6.2-11.2l-5-2.7l-3.5-5l-7.3-5L368.6,226.6z"/>
<path class="EC" class="st0" d="M315.3,261.3l5.8-8.1l-2.3-4.6l-4.2,5L308,249l2.3-3.1l-1.9-9.7l3.9-1.5l1.9-6.6l4.2-6.9l-0.8-4.2
	l5.8-2.3l7.3-4.2l10.8,6.2l1.9-0.4l2.7,4.6l9.3,1.5l3.1-1.5l5.4,3.5l4.6,2.7l1.5,8.1l-3.5,6.9l-12,11.6l-13.1,4.2l-6.6,9.3l-1.9,7.3
	l-6.2,4.2l-4.6-5.4l-4.2-1.2l-4.6,0.8L313,269l3.1-2.7L315.3,261.3z"/>
<path class="FK" class="st0" d="M521.5,877.5l13.1-10.4l9.3,4.2l6.6-6.9l8.5,7.7l-3.1,6.2l-14.7,5.4l-5-6.2l-9.3,7.7L521.5,877.5z"/>
<path class="GF" class="st0" d="M614.5,198l-4.2,4.2l-5,0.8l-1.5-3.1l-2.3-0.4l-3.5,3.1l-4.6-2.3l2.7-4.6l0.8-5l1.9-4.6l-4.2-6.2
	l-0.8-7.3l5.8-9.3l3.9,1.2l8.1,2.7l11.6,9.3l1.9,4.2l-6.6,9.7L614.5,198z"/>
<path class="GY" class="st0" d="M536.9,135.1l6.9,3.9l6.6,6.9l0.4,5.8l4.2,0.4l5.8,5.4l4.2,3.9l-1.5,9.7l-6.6,2.7l0.4,2.3l-1.9,5.8
	l4.6,7.7h3.5l1.5,6.2l6.6,9.3l-2.7,0.4l-6.2-0.8l-3.5,2.7l-5,1.9l-3.5,0.4l-1.2,1.9l-5.4-0.4l-6.6-5l-0.8-5l-2.7-5.4l1.9-9.3
	l3.1-3.9l-2.3-5l-3.9-1.5l1.5-4.6l-2.7-2.3l-5.8,0.4l-7.3-8.1l3.1-3.1l-0.4-5l6.6-1.9l2.7-1.9l-3.9-3.9l0.8-3.9L536.9,135.1z"/>
<path class="PE" class="st0" d="M430.8,416.1l-3.1,5.8l-5.4,2.7l-10.8-6.6l-0.8-4.6l-21.6-11.2l-19.3-12.4l-8.5-6.9l-4.6-9.3l1.9-3.1
	l-9.3-14.7l-10.8-20.1l-10-21.6l-4.2-5l-3.5-8.1l-8.5-6.9l-7.7-4.2l3.5-4.6l-5.4-10.4l3.5-7.3l8.5-6.9l1.2,4.6l-3.1,2.7l0.4,3.9
	l4.6-0.8l4.2,1.2l4.6,5.4l6.2-4.2l1.9-7.3l6.6-9.3l13.1-4.2l12-11.2l3.5-6.9l-1.5-8.1l3.1-1.2l7.3,5l3.5,5l5,2.7l6.2,11.2l8.1,1.5
	l6.2-2.7l3.9,1.9l6.6-0.8l8.1,5l-6.9,10.8l3.1,0.4l5.4,5.8l-9.7-0.4l-1.5,1.5l-8.9,1.9l-12.4,7.3l-0.8,5l-2.7,3.9l1.2,5.8l-6.6,3.1
	v4.6l-2.7,1.9l4.6,9.7l6.2,6.6l-2.3,4.6l7.3,0.8l4.2,5.8l9.7,0.4l8.9-6.6l-0.8,16.6l5,1.2l6.2-1.9l9.3,17.8l-2.3,3.9l-0.4,7.7
	l-0.4,9.3l-4.2,5.4l1.9,4.2l-2.3,3.9l4.6,9.3L430.8,416.1z"/>
<path class="PY" class="st0" d="M505.3,469.4l4.2-13.9l0.4-6.2l5-10l18.9-3.5h10l10,5.8v3.5l3.1,6.6l-0.8,15.8l11.6,2.3l4.2-2.3
	l7.3,3.1l1.9,3.5l1.2,10.8l1.2,4.6l3.9,0.4l4.2-1.9l3.9,1.9v6.6l-1.5,6.9l-2.3,6.9l-1.9,10.8l-9.7,9.3l-8.5,1.9l-12-1.9l-10.8-3.1
	l10.8-18.1l-1.5-5.4l-11.2-4.6l-13.1-8.9l-8.9-1.9L505.3,469.4z"/>
<path class="SR" class="st0" d="M565.1,161l13.1,2.3l1.2-1.9l8.9-0.8l11.6,3.1l-5.8,9.3l0.8,7.3l4.2,6.6l-1.9,4.6l-0.8,5l-2.7,4.6
	l-6.2-2.3l-5,1.2l-4.2-0.8l-1.2,3.1l1.9,1.9l-0.8,2.3l-5.8-0.8l-6.6-9.3l-1.5-6.2h-3.5l-4.6-7.7l1.9-5.8l-0.4-2.3l6.6-2.7L565.1,161
	z"/>
<path class="TT" class="st0" d="M516.1,108.8l6.2-1.5l2.3,0.4l-0.4,8.1l-8.9,1.2l-1.9-0.8l3.1-3.1L516.1,108.8z"/>
<path class="UY" class="st0" d="M560.1,564.8l6.9-1.2l10.8,9.7l3.9-0.4l11.2,8.1l8.5,6.9l6.2,8.5l-4.6,6.2l3.1,7.3l-4.6,8.1l-12.4,7.3
	l-8.1-2.7l-5.8,1.5l-10-5.8l-7.3,0.4l-6.6-7.3l0.8-8.5l2.3-2.7v-12.7l3.1-13.1L560.1,564.8z"/>
<path class="VE" class="st0" d="M411.9,98l-0.4,2.7l-6.6,1.2l3.5,5v5.8l-4.6,6.2l4.2,8.5l4.6-0.8l2.3-7.7l-3.5-3.9l-0.4-8.1l13.5-4.6
	l-1.5-5l3.9-3.5l3.9,7.7h7.7l6.9,6.2l0.4,3.5h9.7l11.6-1.2l6.2,5l8.1,1.5l6.2-3.5v-2.7l13.5-0.8h13.1l-9.3,3.1l3.9,5l8.5,0.8
	l8.1,5.4l1.9,8.9l5.8-0.4l4.2,2.7l-8.5,6.2l-0.8,3.9l3.9,3.9l-2.7,1.9l-6.6,1.9l0.4,5L520,161l7.3,8.1l1.5,3.1l-3.9,4.2l-12,3.9
	l-7.7,1.5l-3.1,2.7l-8.5-2.7l-8.1-1.5l-1.9,1.2l4.6,2.7l-0.4,7.3l1.5,6.9l9.3,0.8l0.8,2.3l-7.7,3.1l-1.2,4.6l-4.6,1.5l-8.1,2.3
	l-1.9,3.5l-8.5,0.8l-6.2-5.8l-3.1-10.8l-3.1-3.9l-3.9-2.3l5.4-5.4l-0.4-2.3l-3.1-3.1l-2.3-7.3l0.8-7.7l2.3-3.5l1.9-5.8l-3.9-1.9
	l-6.2,1.2l-7.7-0.4l-4.2,1.2l-7.7-9.3l-6.2-1.5l-13.9,1.2l-2.7-3.9l-2.7-0.8l-0.4-2.3l1.2-3.9l-0.8-4.2l-2.3-2.3l-1.5-5l-5.4-0.8
	l3.1-6.6l1.5-7.7l3.1-4.2l4.2-3.1l2.7-5.4L411.9,98z"/>
</svg>
